<ttFont>
          <CharString index="0">
            205 374 hlineto
            247 -11 75 -271 -271 -10 -75 -247 vhcurveto
            -374 205 171 153 vlineto
            241 vmoveto
            -84 -153 84 vlineto
            118 2 10 74 75 2 -10 -118 vhcurveto
            return
          </CharString>
          <CharString index="1">
            rmoveto
            298 5 80 272 272 -5 80 -298 -63 callsubr
            -272 5 -80 298 hvcurveto
            155 vmoveto
            -94 -1 5 192 192 1 5 94 93 2 -5 -192 -192 -2 -5 -93 hvcurveto
            return
          </CharString>
          <CharString index="2">
            rmoveto
            96 hlineto
            14 5 5 26 8 vhcurveto
            12 4 rlineto
            46 13 29 10 63 vvcurveto
            101 -65 3 -66 callgsubr
            3 26 hhcurveto
            45 14 -1 -26 -48 callsubr
            hvcurveto
            -74 callgsubr
            return
          </CharString>
          <CharString index="3">
            rmoveto
            120 hlineto
            56 76 -103 callsubr
            return
          </CharString>
          <CharString index="4">
            58 -76 rlineto
            119 -89 callsubr
            -170 hlineto
            -91 -140 rlineto
            return
          </CharString>
          <CharString index="5">
            181 510 -189 -268 hlineto
            -98 callsubr
            return
          </CharString>
          <CharString index="6">
            rmoveto
            132 hlineto
            135 -13 callsubr
            -89 -142 rlineto
            return
          </CharString>
          <CharString index="7">
            rmoveto
            -100 hlineto
            -31 -1 -24 -57 -56 0 24 31 vhcurveto
            -100 hlineto
            -88 21 -63 135 -61 callsubr
            vhcurveto
            return
          </CharString>
          <CharString index="8">
            127 vlineto
            -4 -53 -62 -4 -36 hhcurveto
            -116 -8 5 80 hvcurveto
            295 hlineto
            -235 176 rmoveto
            51 8 -5 -87 hvcurveto
            -119 hlineto
            86 1 7 6 52 hhcurveto
            return
          </CharString>
          <CharString index="9">
            -86 -4 -11 -51 -48 -4 3 93 vhcurveto
            269 -189 -319 vlineto
            -127 17 -72 133 52 56 14 53 32 vhcurveto
            10 hlineto
            return
          </CharString>
          <CharString index="10">
            rmoveto
            117 90 11 157 128 -43 19 -66 9 hvcurveto
            -110 13 rlineto
            -43 5 -1 3 21 vvcurveto
            25 10 2 85 27 59 -3 -5 54 38 callsubr
            8 -43 -80 6 -68 hhcurveto
            -123 -95 -14 -142 -93 12 -59 81 -11 hvcurveto
            119 -15 rlineto
            48 -6 3 -2 -20 vvcurveto
            -27 -3 -4 -96 -38 -64 4 4 -46 34 callsubr
            -8 57 89 -6 68 hhcurveto
            return
          </CharString>
          <CharString index="11">
            rmoveto
            5 vlineto
            -74 115 rlineto
            -144 -4 hlineto
            109 -116 rlineto
            298 hmoveto
            5 vlineto
            -72 115 rlineto
            -145 -4 hlineto
            110 -116 rlineto
            return
          </CharString>
          <CharString index="12">
            -81 callsubr
            9 -40 hhcurveto
            -97 -1 -56 -95 hvcurveto
            90 hlineto
            30 0 11 24 return
          </CharString>
          <CharString index="13">
            rmoveto
            267 2 77 183 hvcurveto
            165 -282 -143 83 -32 vlineto
            -96 -1 -4 -82 -87 -13 10 192 194 13 4 173 32 66 -5 -7 71 vhcurveto
            143 vlineto
            13 -68 -99 10 -70 hhcurveto
            -263 -58 -76 -276 -276 37 -76 279 hvcurveto
            return
          </CharString>
          <CharString index="14">
            rmoveto
            -212 vlineto
            -118 -2 -10 -74 -75 -2 10 118 vhcurveto
            212 -205 -174 vlineto
            -212 8 -85 174 -20 vhcurveto
            -197 206 197 vlineto
            168 22 7 85 210 vvcurveto
            174 vlineto
            return
          </CharString>
          <CharString index="15">
            rmoveto
            196 161 -196 hlineto
            endchar
          </CharString>
          <CharString index="16">
            rmoveto
            137 15 31 89 90 -15 32 -137 -136 -14 -32 -90 -89 14 -31 136 hvcurveto
            72 vmoveto
            -54 -1 10 38 39 1 11 54 57 0 -11 -39 -38 0 -10 -57 hvcurveto
            return
          </CharString>
          <CharString index="17">
            -58 callsubr
            -271 -272 5 -80 298 297 5 80 272 138 -1 88 -41 54 hvcurveto
            92 11 14 38 88 vvcurveto
            15 vlineto
            -366 -629 9 callsubr
            191 1 5 94 92 2 -5 -191 -192 -2 -5 -92 hvcurveto
            return
          </CharString>
          <CharString index="18">
            7 hlineto
            -92 -53 callsubr
            return
          </CharString>
          <CharString index="19">
            rmoveto
            100 hlineto
            31 1 24 57 56 0 -24 -31 vhcurveto
            100 hlineto
            88 -21 63 -135 -136 -22 -63 -88 vhcurveto
            return
          </CharString>
          <CharString index="20">
            rmoveto
            148 vlineto
            -5 -38 -57 -4 -42 hhcurveto
            -137 -2 16 181 180 2 17 137 23 39 -3 -6 71 hvcurveto
            145 vlineto
            11 -45 -76 8 -61 hhcurveto
            -265 -33 -85 -267 -269 34 -83 264 63 78 7 9 45 hvcurveto
            endchar
          </CharString>
          <CharString index="21">
            rmoveto
            128 vlineto
            -4 -35 -44 -3 -32 hhcurveto
            -83 -6 17 107 106 7 18 82 36 45 -3 -3 26 hvcurveto
            128 vlineto
            11 -48 -55 6 -56 hhcurveto
            -219 -9 -105 -159 -159 8 -103 220 54 59 7 11 50 hvcurveto
            endchar
          </CharString>
          <CharString index="22">
            rmoveto
            132 5 hlineto
            -89 -36 callgsubr
            -178 -5 hlineto
            return
          </CharString>
          <CharString index="23">
            rmoveto
            -99 hlineto
            -31 -1 -24 -57 -56 0 24 31 vhcurveto
            -100 hlineto
            -88 21 -63 135 135 26 callgsubr
            return
          </CharString>
          <CharString index="24">
            rmoveto
            -24 vlineto
            -49 -7 -16 -61 vhcurveto
            -80 -267 -17 callsubr
            268 -189 -318 -35 callsubr
            180 450 hlineto
            69 16 11 38 79 vvcurveto
            15 vlineto
            return
          </CharString>
          <CharString index="25">
            rmoveto
            -24 vlineto
            -49 -7 -16 -61 vhcurveto
            -103 -411 -26 callsubr
            411 -205 -373 6 callsubr
            270 11 75 247 vhcurveto
            313 vlineto
            75 14 11 39 81 vvcurveto
            15 vlineto
            return
          </CharString>
          <CharString index="26">
            6 5 -28 vhcurveto
            8 -35 -43 return
          </CharString>
          <CharString index="27">
            rmoveto
            -74 -345 rlineto
            -11 hlineto
            -77 344 rlineto
            -190 hlineto
            141 -509 rlineto
            68 hlineto
            -51 -189 rlineto
            189 hlineto
            7 callgsubr
            endchar
          </CharString>
          <CharString index="28">
            716 rmoveto
            -48 callsubr
            vhcurveto
            -74 callgsubr
            -3 96 vlineto
            14 5 5 26 8 vhcurveto
            12 4 rlineto
            46 13 29 10 63 vvcurveto
            101 -65 3 -66 callgsubr
            3 26 hhcurveto
            45 14 -1 -26 hvcurveto
            return
          </CharString>
          <CharString index="29">
            vlineto
            -67 callgsubr
            return
          </CharString>
          <CharString index="30">
            189 179 hlineto
            137 40 32 122 vhcurveto
            170 vlineto
            -81 -46 -21 -73 -29 hvcurveto
            -9 hlineto
            -4 86 rlineto
            -182 hlineto
            return
          </CharString>
          <CharString index="31">
            hlineto
            -53 -330 rlineto
            -10 hlineto
            -80 330 rlineto
            -173 hlineto
            -77 -330 rlineto
            -10 hlineto
            -55 330 rlineto
            -185 hlineto
            117 -510 rlineto
            233 hlineto
            57 231 rlineto
            10 hlineto
            endchar
          </CharString>
          <CharString index="32" raw="1">
            430a561d 0b  
          </CharString>
          <CharString index="33">
            rmoveto
            225 44 18 203 hvcurveto
            488 -192 -530 vlineto
            -36 -4 -16 -73 vhcurveto
            endchar
          </CharString>
          <CharString index="34">
            454 139 -217 hlineto
            215 240 rlineto
            131 -440 -139 203 vlineto
            -215 -240 rlineto
            return
          </CharString>
          <CharString index="35">
            rmoveto
            120 hlineto
            return
          </CharString>
          <CharString index="36">
            197 -8 rmoveto
            55 54 11 56 30 hvcurveto
            10 hlineto
            4 -59 rlineto
            182 743 -189 -285 -26 callgsubr
            -207 -207 47 -54 113 hvcurveto
            return
          </CharString>
          <CharString index="37">
            rmoveto
            107 hlineto
            110 116 rlineto
            4 -145 vlineto
            -72 -115 rlineto
            189 -5 rmoveto
            109 hlineto
            return
          </CharString>
          <CharString index="38">
            rmoveto
            5 -178 -78 callsubr
            -5 132 vlineto
            return
          </CharString>
          <CharString index="39">
            -17 callgsubr
            hlineto
            205 -533 rmoveto
            378 44 vlineto
            -30 callsubr
            return
          </CharString>
          <CharString index="40">
            11 323 -8 -100 callgsubr
            return
          </CharString>
          <CharString index="41">
            -78 callgsubr
            93 hvcurveto
            return
          </CharString>
          <CharString index="42">
            -42 -56 -4 -7 -35 return
          </CharString>
          <CharString index="43">
            rmoveto
            287 147 -287 hlineto
            return
          </CharString>
          <CharString index="44">
            -298 -5 -80 -272 return
          </CharString>
          <CharString index="45">
            101 48 hmoveto
            258 149 hlineto
            -42 12 -5 83 104 vvcurveto
            186 2 8 92 91 2 -8 -186 -104 -5 -83 -42 -12 vhcurveto
            -149 258 154 -14 vlineto
            -41 -13 -40 -14 -42 -13 rrcurveto
            8 vlineto
            85 37 48 79 152 vvcurveto
            190 -7 116 -293 -294 -7 -116 -190 -152 48 -79 85 -37 vhcurveto
            -8 vlineto
            -42 13 -40 14 -42 13 rrcurveto
            -13 hlineto
            endchar
          </CharString>
          <CharString index="46">
            136 22 63 88 return
          </CharString>
          <CharString index="47">
            rmoveto
            126 29 40 93 96 -45 18 -78 -54 -18 -17 -9 -7 hvcurveto
            -3 hlineto
            71 9 10 66 20 42 -3 -4 44 vhcurveto
            82 vlineto
            8 -43 -53 4 -31 hhcurveto
            -90 -46 -19 -56 -21 hvcurveto
            -11 -28 -3 -40 -52 vvcurveto
            -63 4 -43 9 -22 vhcurveto
            -58 23 46 -8 85 hhcurveto
            -4 84 rmoveto
            -34 -11 1 41 27 3 10 42 40 8 -4 -36 -36 -9 -3 -39 hvcurveto
            endchar
          </CharString>
          <CharString index="48">
            rmoveto
            151 hlineto
            28 50 rlineto
            -3 19 23 0 26 hhcurveto
            237 13 57 206 115 -4 69 -46 38 hvcurveto
            50 88 rlineto
            -153 hlineto
            -27 -50 rlineto
            2 -20 -24 1 -26 33 callsubr
            -116 3 -69 46 -38 hvcurveto
            199 99 -46 callgsubr
          </CharString>
          <CharString index="49">
            rmoveto
            -24 vlineto
            -49 -7 -16 -61 vhcurveto
            -38 -2 hlineto
            7 -38 -46 3 -57 34 callgsubr
            return
          </CharString>
          <CharString index="50">
            1059 16 callsubr
            -16 -25 -50 callsubr
            93 hvcurveto
            -46 -172 -84 callsubr
            return
          </CharString>
          <CharString index="51">
            rmoveto
            130 31 39 67 62 -25 18 -46 11 hvcurveto
            3 vlineto
            45 10 22 24 55 vvcurveto
            66 -36 34 -121 -37 -55 -5 -7 -35 vhcurveto
            -82 vlineto
            5 32 45 2 32 hhcurveto
            49 9 -1 -30 -28 -7 -5 -33 hvcurveto
            -62 -84 62 hlineto
            34 8 -3 -33 -31 -11 -1 -43 -28 -48 3 4 -41 hvcurveto
            -81 vlineto
            -7 37 54 -5 38 hhcurveto
            endchar
          </CharString>
          <CharString index="52">
            -142 rlineto
            return
          </CharString>
          <CharString index="53">
            596 -104 callsubr
            return
          </CharString>
          <CharString index="54">
            140 rlineto
            return
          </CharString>
          <CharString index="55">
            rmoveto
            5 vlineto
            -89 -36 callgsubr
            -178 -5 hlineto
            135 -55 callsubr
            return
          </CharString>
          <CharString index="56">
            70 266 236 rmoveto
            74 hlineto
            67 4 -20 -64 5 hvcurveto
            12 -152 rlineto
            204 hlineto
            -11 171 -5 103 -37 23 -69 18 rlinecurve
            4 vlineto
            76 21 42 37 123 vvcurveto
            123 -52 65 -134 vhcurveto
            -382 -688 206 hlineto
            534 vmoveto
            71 hlineto
            75 8 -8 -66 -68 -9 -6 -74 hvcurveto
            -71 hlineto
            return
          </CharString>
          <CharString index="57">
            6 5 -28 vhcurveto
            8 -35 -43 9 -40 hhcurveto
            -97 -1 -56 -78 callgsubr
            return
          </CharString>
          <CharString index="58">
            138 hlineto
            19 162 20 212 43 vvcurveto
            27 -216 -27 vlineto
            -43 21 -212 18 -162 vhcurveto
            return
          </CharString>
          <CharString index="59">
            -17 -5 -3 -27 -7 return
          </CharString>
          <CharString index="60">
            -42 callgsubr
            hlineto
            return
          </CharString>
          <CharString index="61">
            97 314 rmoveto
            125 374 -84 hlineto
            -106 -53 rlineto
            -99 vlineto
            65 26 rlineto
            return
          </CharString>
          <CharString index="62">
            vlineto
            -86 -4 -11 -51 -48 -4 3 93 vhcurveto
            return
          </CharString>
          <CharString index="63">
            14 7 5 19 6 vhcurveto
            29 10 22 7 27 10 rrcurveto
            41 16 25 27 72 vvcurveto
            100 -65 12 -77 -46 -59 -5 -8 -36 vhcurveto
            -93 vlineto
            5 39 49 4 25 hhcurveto
            37 8 -2 -19 -19 -4 -3 -24 -11 hvcurveto
            -28 -11 -25 -8 -33 -15 rrcurveto
            -49 -21 -2 -37 -81 vvcurveto
            -58 290 return
          </CharString>
          <CharString index="64">
            -60 0 8 116 116 0 8 60 60 1 -8 -116 -116 -1 -8 -60 hvcurveto
            endchar
          </CharString>
          <CharString index="65">
            hlineto
            -30 -22 callgsubr
            return
          </CharString>
          <CharString index="66">
            1 callsubr
            -275 -64 -129 64 hlineto
            249 -129 rmoveto
            -44 129 75 129 -75 120 44 hlineto
            -30 callsubr
            endchar
          </CharString>
          <CharString index="67">
            457 163 -252 525 -205 hlineto
            return
          </CharString>
          <CharString index="68" raw="1">
            1f7b8605 620b  
          </CharString>
          <CharString index="69">
            rmoveto
            -80 vlineto
            -7 39 52 -5 38 hhcurveto
            131 29 42 89 73 -23 43 -95 -24 -23 -1 -2 -20 hvcurveto
            53 157 87 -257 -226 vlineto
            3 33 45 2 31 hhcurveto
            50 9 -5 -33 -36 -8 -3 -51 -28 -49 3 3 -36 hvcurveto
            endchar
          </CharString>
          <CharString index="70">
            -48 callgsubr
            241 hmoveto
            -67 vlineto
            167 21 39 143 hvcurveto
            116 -185 -151 65 -15 vlineto
            -50 -8 -15 -60 vhcurveto
            endchar
          </CharString>
          <CharString index="71">
            rmoveto
            56 0 -24 -31 hvcurveto
            100 hlineto
            88 -21 63 -135 -136 -22 -63 -88 vhcurveto
            100 hlineto
            31 1 24 57 vhcurveto
            return
          </CharString>
          <CharString index="72">
            vlineto
            -127 17 -72 133 52 56 14 53 32 vhcurveto
            10 hlineto
            4 -59 rlineto
            return
          </CharString>
          <CharString index="73">
            756 rmoveto
            149 118 -149 hlineto
            return
          </CharString>
          <CharString index="74">
            136 vlineto
            -44 9 -57 8 -53 4 rrcurveto
            81 -138 -82 vlineto
            -162 -14 -39 -68 -188 vvcurveto
            -188 30 -68 171 -13 vhcurveto
            -83 138 82 vlineto
            174 11 7 64 134 vvcurveto
            110 vlineto
            endchar
          </CharString>
          <CharString index="75">
            -17 374 hmoveto
            207 hlineto
            -165 268 162 242 rlineto
            -199 hlineto
            -119 -188 rlineto
            -19 return
          </CharString>
          <CharString index="76">
            hvcurveto
            6 hlineto
            -130 -16 -20 -120 -36 -76 5 7 -78 vhcurveto
            -143 vlineto
            -13 72 95 -10 60 hhcurveto
            15 407 rmoveto
            -73 -16 8 67 65 16 6 73 61 21 -1 -78 -48 -6 -19 -76 hvcurveto
            endchar
          </CharString>
          <CharString index="77">
            110 2 -4 -186 -183 -2 -5 -110 hvcurveto
            return
          </CharString>
          <CharString index="78">
            913 rmoveto
            132 5 hlineto
            -89 141 rlineto
            -178 -5 hlineto
            349 -167 -84 callsubr
            return
          </CharString>
          <CharString index="79">
            -42 callgsubr
            -258 -172 258 -206 -688 206 260 172 hlineto
            return
          </CharString>
          <CharString index="80">
            688 rlineto
            return
          </CharString>
          <CharString index="81">
            hlineto
            -118 -2 -10 -75 -74 -2 10 118 vhcurveto
            return
          </CharString>
          <CharString index="82">
            35 43 -10 return
          </CharString>
          <CharString index="83">
            89 vlineto
            -2 -8 -5 0 -4 hhcurveto
            -38 -9 15 19 27 37 34 26 14 hvcurveto
            -151 hlineto
            -36 -34 -26 -40 -39 vvcurveto
            -46 29 -41 107 25 32 2 2 21 vhcurveto
            endchar
          </CharString>
          <CharString index="84">
            rlineto
            18 callgsubr
            return
          </CharString>
          <CharString index="85">
            88 463 hmoveto
            227 hlineto
            -230 364 227 324 rlineto
            -221 hlineto
            -173 -262 rlineto
            -26 262 -205 -688 205 274 26 hlineto
            return
          </CharString>
          <CharString index="86">
            rmoveto
            197 161 -197 hlineto
            -10 -688 rmoveto
            216 27 hlineto
            43 -20 212 -18 162 vhcurveto
            -139 hlineto
            -18 -162 -21 -212 -43 vvcurveto
            endchar
          </CharString>
          <CharString index="87">
            -209 198 -85 rmoveto
            142 285 -85 -28 rlineto
            267 vlineto
            85 -28 -142 285 -143 -285 86 28 rlineto
            -268 vlineto
            -86 29 rlineto
            return
          </CharString>
          <CharString index="88">
            89 1 hmoveto
            691 hlineto
            -204 -27 callsubr
            -283 hlineto
            142 -151 rmoveto
            109 -386 rlineto
            -225 hlineto
            108 386 rlineto
            endchar
          </CharString>
          <CharString index="89">
            58 -76 rlineto
            118 -89 callsubr
            -169 hlineto
            -91 -140 rlineto
            return
          </CharString>
          <CharString index="90">
            hlineto
            -86 -4 -11 -51 -48 -4 3 93 vhcurveto
            return
          </CharString>
          <CharString index="91">
            rmoveto
            132 hlineto
            134 return
          </CharString>
          <CharString index="92">
            -204 12 -59 236 hvcurveto
            138 vmoveto
            -60 0 8 117 116 0 8 60 61 0 -11 -113 -117 0 -8 -61 hvcurveto
            endchar
          </CharString>
          <CharString index="93">
            -5 -47 -46 -5 -6 -51 -21 hvcurveto
            -45 -18 -48 -18 -52 -22 rrcurveto
            -104 -43 -4 -66 -150 vvcurveto
            -100 515 156 -319 vlineto
            endchar
          </CharString>
          <CharString index="94">
            142 -23 callsubr
            return
          </CharString>
          <CharString index="95">
            rmoveto
            32 51 rlineto
            -14 9 -10 16 20 vvcurveto
            20 10 16 15 9 vhcurveto
            -32 51 rlineto
            -32 -20 -21 -35 -41 vvcurveto
            -42 21 -34 31 -20 vhcurveto
            return
          </CharString>
          <CharString index="96">
            -47 2 -33 22 -22 vhcurveto
            -204 -686 rlineto
            202 hlineto
            31 116 rlineto
            222 hlineto
            32 -116 rlineto
            207 hlineto
            -348 return
          </CharString>
          <CharString index="97">
            189 319 return
          </CharString>
          <CharString index="98">
            114 hlineto
            449 -27 callsubr
            -115 hlineto
            return
          </CharString>
          <CharString index="99">
            -169 hlineto
            return
          </CharString>
          <CharString index="100">
            421 740 rmoveto
            92 139 rlineto
            8 -119 vlineto
            -56 -76 -58 76 rlineto
            -120 -8 hlineto
            91 -139 rlineto
            return
          </CharString>
          <CharString index="101">
            rmoveto
            -72 vlineto
            178 22 42 152 hvcurveto
            123 -196 -161 69 -15 vlineto
            -54 -10 -15 -63 vhcurveto
            endchar
          </CharString>
          <CharString index="102">
            761 rmoveto
            67 vlineto
            -168 -20 -33 -121 hvcurveto
            -77 184 118 -65 9 vlineto
            28 9 9 60 vhcurveto
            return
          </CharString>
          <CharString index="103">
            rmoveto
            126 hlineto
            56 214 9 110 rlineto
            -164 hlineto
            return
          </CharString>
          <CharString index="104">
            rmoveto
            -1 callgsubr
          </CharString>
          <CharString index="105">
            -90 -65 callgsubr
            -24 6 5 -28 vhcurveto
            8 -36 -42 10 -40 hhcurveto
            -98 -1 -57 -94 hvcurveto
            return
          </CharString>
          <CharString index="106">
            46 99 rmoveto
            118 hlineto
            132 205 -132 206 rlineto
            -118 hlineto
            102 -206 rlineto
            return
          </CharString>
          <CharString index="107">
            148 99 rmoveto
            117 hlineto
            -101 205 101 206 rlineto
            -117 hlineto
            -132 -206 rlineto
            return
          </CharString>
          <CharString index="108">
            74 -23 callgsubr
            return
          </CharString>
          <CharString index="109">
            rmoveto
            249 hlineto
            313 5 76 268 267 -5 76 -313 hvcurveto
            -249 hlineto
            return
          </CharString>
          <CharString index="110">
            -2 -26 -23 -6 -4 -24 hvcurveto
            -67 -82 67 hlineto
            26 7 -4 -27 -27 -9 -2 -36 -23 return
          </CharString>
          <CharString index="111">
            hhcurveto
            57 2 -5 -106 -106 -2 -5 -57 hvcurveto
            endchar
          </CharString>
          <CharString index="112">
            112 -44 34 -81 19 hvcurveto
            4 vlineto
            80 19 return
          </CharString>
          <CharString index="113">
            vlineto
            -247 11 -75 270 return
          </CharString>
          <CharString index="114">
            rmoveto
            377 44 vlineto
            109 2 -4 -185 -183 -2 -5 -109 hvcurveto
            return
          </CharString>
          <CharString index="115">
            740 -52 callsubr
            return
          </CharString>
          <CharString index="116">
            rmoveto
            -94 -1 5 192 return
          </CharString>
          <CharString index="117">
            -39 -1 4 93 93 1 4 39 39 0 -4 -93 -93 0 -4 -39 hvcurveto
            return
          </CharString>
          <CharString index="118">
            -44 -1 10 63 63 1 11 44 43 0 -11 -63 -63 0 -10 -43 hvcurveto
            return
          </CharString>
          <CharString index="119">
            128 hlineto
            129 300 rlineto
            80 -289 -87 168 vlineto
            endchar
          </CharString>
          <CharString index="120">
            -207 397 hmoveto
            696 vlineto
            -207 -145 -143 -205 return
          </CharString>
          <CharString index="121">
            117 380 -81 hlineto
            -105 -51 rlineto
            -89 vlineto
            69 28 rlineto
            endchar
          </CharString>
          <CharString index="122">
            -16 -5 rlineto
            -41 -11 -8 -11 -49 vvcurveto
            return
          </CharString>
          <CharString index="123">
            rmoveto
            -90 hlineto
            -29 -22 callgsubr
            return
          </CharString>
          <CharString index="124">
            -206 11 -57 237 return
          </CharString>
          <CharString index="125">
            -39 -1 628 rmoveto
            567 60 -567 hlineto
            -688 vmoveto
            return
          </CharString>
          <CharString index="126">
            rmoveto
            400 -36 callgsubr
            131 vlineto
            -400 143 rlineto
            return
          </CharString>
          <CharString index="127">
            347 hmoveto
            201 130 79 154 -79 141 return
          </CharString>
          <CharString index="128">
            -373 33 264 rmoveto
            127 hlineto
            38 255 rlineto
            return
          </CharString>
          <CharString index="129">
            -308 5 callgsubr
            return
          </CharString>
          <CharString index="130">
            rmoveto
            66 248 rlineto
            8 hlineto
            68 -248 rlineto
            endchar
          </CharString>
          <CharString index="131">
            285 142 -285 143 return
          </CharString>
          <CharString index="132">
            205 -145 143 -207 return
          </CharString>
          <CharString index="133">
            hlineto
            41 171 rlineto
            -122 hlineto
            -40 -171 rlineto
            return
          </CharString>
          <CharString index="134">
            3 44 46 0 -3 -108 -107 0 -3 -46 hvcurveto
            return
          </CharString>
          <CharString index="135">
            -887 -52 callgsubr
          </CharString>
          <CharString index="136">
            rmoveto
            -67 vlineto
            168 20 return
          </CharString>
          <CharString index="137">
            35 callgsubr
            -206 return
          </CharString>
          <CharString index="138">
            -32 285 -8 rmoveto
            238 12 58 208 return
          </CharString>
          <CharString index="139">
            88 vlineto
            -7 -6 -1 -5 hhcurveto
            -36 -10 15 16 return
          </CharString>
          <CharString index="140">
            hhcurveto
            30 callsubr
            return
          </CharString>
          <CharString index="141">
            vhcurveto
            -127 vlineto
            return
          </CharString>
          <CharString index="142">
            91 hlineto
            29 0 11 23 17 25 -6 -5 return
          </CharString>
          <CharString index="143">
            205 201 170 93 -152 hlineto
            return
          </CharString>
          <CharString index="144">
            hhcurveto
            -8 151 rmoveto
            -61 -21 1 78 48 return
          </CharString>
          <CharString index="145">
            vhcurveto
            127 vlineto
            return
          </CharString>
        <CharString name=".notdef">
          -104 0 vmoveto
          500 700 -500 hlineto
          450 -50 rmoveto
          -600 -400 600 vlineto
          179 -435 rmoveto
          53 53 hlineto
          33 21 18 23 19 vhcurveto
          30 26 37 36 67 vvcurveto
          12 -3 123 -140 -140 -11 -124 -23 -12 2 -14 2 -5 vhcurveto
          49 28 hlineto
          23 8 77 90 77 12 -59 -28 -51 -28 -24 -28 -23 vhcurveto
          -28 -23 -26 -23 -43 vvcurveto
          -4 -179 rmoveto
          60 70 -60 hlineto
          endchar
        </CharString>
        <CharString name="A">
          92 488 hmoveto
          -104 callgsubr
          endchar
        </CharString>
        <CharString name="A.ss01">
          77 417 hmoveto
          -107 callsubr
          endchar
        </CharString>
        <CharString name="AE">
          378 469 hmoveto
          461 155 -291 hlineto
          -16 116 rlineto
          260 152 -279 hlineto
          -15 110 rlineto
          341 155 -634 -18 callgsubr
        </CharString>
        <CharString name="AEacute">
          377 417 740 -101 callsubr
          52 -745 rmoveto
          460 155 -290 hlineto
          -16 116 rlineto
          259 152 -278 hlineto
          -15 110 rlineto
          340 155 -633 -18 callgsubr
        </CharString>
        <CharString name="Aacute">
          89 247 750 -101 callsubr
          241 -755 rmoveto
          -104 callgsubr
          endchar
        </CharString>
        <CharString name="Aacute.ss01">
          77 276 750 -101 callsubr
          141 -755 rmoveto
          -107 callsubr
          endchar
        </CharString>
        <CharString name="Abreve">
          92 504 887 -100 callsubr
          -16 -887 rmoveto
          -104 callgsubr
          endchar
        </CharString>
        <CharString name="Abreve.ss01">
          77 497 887 -100 callsubr
          -80 -887 rmoveto
          -107 callsubr
          endchar
        </CharString>
        <CharString name="Acircumflex">
          89 169 750 -104 callsubr
          319 -757 rmoveto
          -104 callgsubr
          endchar
        </CharString>
        <CharString name="Acircumflex.ss01">
          77 165 750 -104 callsubr
          252 -757 rmoveto
          -107 callsubr
          endchar
        </CharString>
        <CharString name="Adieresis">
          89 165 777 -92 callgsubr
          110 -895 rmoveto
          -104 callgsubr
          endchar
        </CharString>
        <CharString name="Adieresis.ss01">
          77 164 777 -92 callgsubr
          40 -895 rmoveto
          -107 callsubr
          endchar
        </CharString>
        <CharString name="Agrave">
          89 296 750 -85 callsubr
          327 -892 rmoveto
          -104 callgsubr
          endchar
        </CharString>
        <CharString name="Agrave.ss01">
          77 282 749 -85 callsubr
          270 -891 rmoveto
          -107 callsubr
          endchar
        </CharString>
        <CharString name="Amacron">
          92 205 740 -64 callsubr
          283 -887 rmoveto
          -104 callgsubr
          endchar
        </CharString>
        <CharString name="Amacron.ss01">
          77 198 740 -64 callsubr
          219 -887 rmoveto
          -107 callsubr
          endchar
        </CharString>
        <CharString name="Aogonek">
          89 578 -71 rmoveto
          25 31 30 26 16 vhcurveto
          57 hlineto
          -204 -27 callsubr
          -283 hlineto
          -204 -688 rlineto
          201 hlineto
          32 116 rlineto
          220 hlineto
          33 -115 rlineto
          -35 -33 -24 -39 -38 vvcurveto
          -46 29 -41 107 23 31 2 2 24 vhcurveto
          88 vlineto
          -8 -6 -1 -3 hhcurveto
          -38 -9 15 19 hvcurveto
          -307 335 rmoveto
          68 251 rlineto
          8 hlineto
          68 -251 rlineto
          endchar
        </CharString>
        <CharString name="Aogonek.ss01">
          77 564 hmoveto
          58 374 hlineto
          247 -11 75 -271 -271 -10 -75 -247 vhcurveto
          -374 205 171 153 -170 vlineto
          -34 -33 -25 -39 -38 vvcurveto
          -46 29 -41 107 25 32 2 2 21 vhcurveto
          89 vlineto
          -2 -8 -5 0 -4 hhcurveto
          -38 -9 15 19 25 31 30 25 16 hvcurveto
          -300 328 rmoveto
          84 vlineto
          118 2 10 74 75 2 -10 -118 vhcurveto
          -84 vlineto
          endchar
        </CharString>
        <CharString name="Aring">
          92 491 687 rmoveto
          20 21 4 33 47 vvcurveto
          100 -15 36 -153 -152 -14 -36 -100 -11 callsubr
          843 rmoveto
          62 0 -12 32 callgsubr
          12 59 hvcurveto
          -73 -576 23 callsubr
        </CharString>
        <CharString name="Aring.ss01">
          77 343 730 -91 callsubr
          74 -802 rmoveto
          -107 callsubr
          endchar
        </CharString>
        <CharString name="Aringacute">
          92 540 1118 -69 callsubr
          86 -289 rmoveto
          20 21 4 33 47 vvcurveto
          99 -15 36 -153 -152 -14 -36 -99 -11 callsubr
          842 rmoveto
          62 0 -11 32 callgsubr
          11 59 hvcurveto
          -73 -575 23 callsubr
        </CharString>
        <CharString name="Aringacute.ss01">
          77 269 971 -101 callsubr
          70 -270 -91 callsubr
          78 -778 rmoveto
          -107 callsubr
          endchar
        </CharString>
        <CharString name="Atilde">
          89 547 913 rmoveto
          -90 -103 callgsubr
          97 -47 callgsubr
          -59 -913 rmoveto
          -104 callgsubr
          endchar
        </CharString>
        <CharString name="Atilde.ss01">
          77 545 912 rmoveto
          -90 -103 callgsubr
          97 -47 callgsubr
          -128 -912 rmoveto
          -107 callsubr
          endchar
        </CharString>
        <CharString name="B">
          65 62 hmoveto
          356 hlineto
          149 59 64 120 112 -44 34 -82 19 hvcurveto
          4 vlineto
          82 19 40 43 100 vvcurveto
          119 -72 54 -130 vhcurveto
          -358 hlineto
          280 -273 rmoveto
          -77 122 77 hlineto
          65 9 -8 -54 -51 -11 -9 -63 hvcurveto
          3 -264 rmoveto
          -80 129 80 hlineto
          63 10 -10 -56 -55 -10 -8 -63 hvcurveto
          endchar
        </CharString>
        <CharString name="C">
          -33 532 8 -87 callsubr
        </CharString>
        <CharString name="Cacute">
          -33 212 740 -101 callsubr
          320 -737 -87 callsubr
        </CharString>
        <CharString name="Cacute.loclPLK">
          -33 212 -45 callgsubr
          320 -738 -87 callsubr
        </CharString>
        <CharString name="Ccaron">
          -33 200 740 -99 callgsubr
          423 -871 -87 callsubr
        </CharString>
        <CharString name="Ccedilla">
          -33 532 156 rmoveto
          -5 -38 -57 -4 -42 hhcurveto
          -137 -2 16 181 180 2 17 137 23 39 -3 -6 71 hvcurveto
          145 vlineto
          11 -45 -76 8 -61 hhcurveto
          -265 -33 -85 -267 -220 23 -95 152 -28 hvcurveto
          -77 -185 rlineto
          -5 168 vlineto
          32 181 rlineto
          63 78 7 9 45 hvcurveto
          endchar
        </CharString>
        <CharString name="Ccircumflex">
          -33 109 -84 callgsubr
          423 -739 -87 callsubr
        </CharString>
        <CharString name="Cdotaccent">
          -33 211 -34 callsubr
          321 -866 -87 callsubr
        </CharString>
        <CharString name="D">
          74 62 hmoveto
          -68 callsubr
          endchar
        </CharString>
        <CharString name="Dcaron">
          74 253 740 -99 callgsubr
          -100 -879 rmoveto
          -68 callsubr
          endchar
        </CharString>
        <CharString name="Dcroat">
          -41 callsubr
        </CharString>
        <CharString name="E">
          6 62 hmoveto
          -93 callgsubr
          endchar
        </CharString>
        <CharString name="Eacute">
          0 236 750 -101 callsubr
          -174 -755 rmoveto
          -93 callgsubr
          endchar
        </CharString>
        <CharString name="Ebreve">
          6 462 887 -100 callsubr
          -400 -887 rmoveto
          -93 callgsubr
          endchar
        </CharString>
        <CharString name="Ecaron">
          6 220 740 -99 callgsubr
          -67 -879 rmoveto
          -93 callgsubr
          endchar
        </CharString>
        <CharString name="Ecircumflex">
          0 128 750 -104 callsubr
          -66 -757 rmoveto
          -93 callgsubr
          endchar
        </CharString>
        <CharString name="Edieresis">
          0 127 756 -92 callgsubr
          -278 -874 rmoveto
          -93 callgsubr
          endchar
        </CharString>
        <CharString name="Edotaccent">
          6 231 -34 callsubr
          -169 -874 rmoveto
          -93 callgsubr
          endchar
        </CharString>
        <CharString name="Egrave">
          0 270 750 -85 callsubr
          -73 -892 rmoveto
          -93 callgsubr
          endchar
        </CharString>
        <CharString name="Emacron">
          6 163 740 -64 callsubr
          -101 -887 rmoveto
          -93 callgsubr
          endchar
        </CharString>
        <CharString name="Eng">
          106 453 688 rmoveto
          -308 -6 vlineto
          -176 308 rlineto
          -211 -688 197 355 5 hlineto
          191 -343 rlineto
          -32 vlineto
          -36 -4 -16 -73 34 callsubr
          229 45 18 203 hvcurveto
          666 vlineto
          endchar
        </CharString>
        <CharString name="Eogonek">
          0 466 -196 rmoveto
          25 36 2 2 17 hvcurveto
          32 callsubr
          31 41 28 33 15 hvcurveto
          154 -288 118 241 151 -241 111 288 154 -494 -688 342 vlineto
          -45 -35 -28 -36 -41 vvcurveto
          -42 30 -42 107 vhcurveto
          endchar
        </CharString>
        <CharString name="Eth">
          -41 callsubr
        </CharString>
        <CharString name="Euro">
          3 388 -8 rmoveto
          70 76 9 7 34 hvcurveto
          143 vlineto
          -4 -29 -54 -4 -49 hhcurveto
          -99 -30 8 71 -8 hvcurveto
          216 92 -220 60 220 92 -216 hlineto
          71 8 30 8 99 hhcurveto
          32 61 -5 -4 35 hvcurveto
          141 vlineto
          9 -31 -74 10 -71 hhcurveto
          -212 -60 -65 -165 -15 hvcurveto
          -71 -92 67 -60 -67 -92 71 hlineto
          -170 15 59 -60 213 hhcurveto
          endchar
        </CharString>
        <CharString name="F">
          -30 62 hmoveto
          205 243 235 155 -235 135 272 155 -477 hlineto
          endchar
        </CharString>
        <CharString name="G">
          62 425 266 -94 callgsubr
          endchar
        </CharString>
        <CharString name="G.ss01">
          77 364 -8 -94 callsubr
          endchar
        </CharString>
        <CharString name="G_tilde.loclGUA">
          62 531 887 rmoveto
          -89 -103 callgsubr
          96 -47 callgsubr
          -106 -621 -94 callgsubr
          endchar
        </CharString>
        <CharString name="Gbreve">
          62 488 887 -100 callsubr
          -63 -621 -94 callgsubr
          endchar
        </CharString>
        <CharString name="Gbreve.ss01">
          77 497 887 -100 callsubr
          -133 -895 -94 callsubr
          endchar
        </CharString>
        <CharString name="Gcaron">
          62 246 740 -99 callgsubr
          270 -613 -94 callgsubr
          endchar
        </CharString>
        <CharString name="Gcaron.ss01">
          77 255 740 -99 callgsubr
          200 -887 -94 callsubr
          endchar
        </CharString>
        <CharString name="Gcircumflex">
          62 155 -84 callgsubr
          270 -481 -94 callgsubr
          endchar
        </CharString>
        <CharString name="Gcircumflex.ss01">
          77 164 -84 callgsubr
          200 -755 -94 callsubr
          endchar
        </CharString>
        <CharString name="Gcommaaccent">
          62 425 266 -94 callgsubr
          -108 -488 rmoveto
          -87 callgsubr
        </CharString>
        <CharString name="Gcommaaccent.ss01">
          77 364 -8 -94 callsubr
          -118 -214 rmoveto
          -87 callgsubr
        </CharString>
        <CharString name="Gdotaccent">
          62 257 -34 callsubr
          168 -608 -94 callgsubr
          endchar
        </CharString>
        <CharString name="Gdotaccent.ss01">
          77 266 -34 callsubr
          98 -882 -94 callsubr
          endchar
        </CharString>
        <CharString name="Gtilde.loclGUA.ss01">
          77 540 887 rmoveto
          -89 -103 callgsubr
          96 -47 callgsubr
          -176 -895 -94 callsubr
          endchar
        </CharString>
        <CharString name="H">
          100 438 hmoveto
          -28 callsubr
          endchar
        </CharString>
        <CharString name="Hbar">
          100 438 688 rmoveto
          -87 -172 87 -206 -688 206 220 172 -220 -20 callgsubr
          vlineto
          -378 -298 rmoveto
          84 172 -84 vlineto
          endchar
        </CharString>
        <CharString name="Hcircumflex">
          100 175 -84 callgsubr
          263 -747 rmoveto
          -28 callsubr
          endchar
        </CharString>
        <CharString name="I">
          -277 60 hmoveto
          -49 callgsubr
        </CharString>
        <CharString name="IJ">
          146 60 hmoveto
          -47 callsubr
          288 -543 -70 callgsubr
        </CharString>
        <CharString name="Iacute">
          -277 63 749 -101 callsubr
          -3 -754 -52 callgsubr
        </CharString>
        <CharString name="Iacute_J.loclNLD">
          146 89 740 -101 callsubr
          425 -5 -101 callsubr
          -454 -745 rmoveto
          -47 callsubr
          288 -543 -70 callgsubr
        </CharString>
        <CharString name="Ibreve">
          -277 319 887 -100 callsubr
          -259 28 callsubr
        </CharString>
        <CharString name="Icircumflex">
          -277 -13 750 -104 callsubr
          73 -757 -52 callgsubr
        </CharString>
        <CharString name="Idieresis">
          -277 -17 777 -92 callgsubr
          -136 -895 -52 callgsubr
        </CharString>
        <CharString name="Idotaccent">
          -277 88 -34 callsubr
          -28 -874 -52 callgsubr
        </CharString>
        <CharString name="Igrave">
          -277 135 750 -85 callsubr
          60 -892 -52 callgsubr
        </CharString>
        <CharString name="Imacron">
          -277 20 740 -64 callsubr
          40 28 callsubr
        </CharString>
        <CharString name="Iogonek">
          -277 190 -196 rmoveto
          25 35 2 2 17 hvcurveto
          88 vlineto
          -6 -7 -1 -4 hhcurveto
          -37 -10 15 17 31 38 29 25 13 hvcurveto
          688 -206 -688 55 vlineto
          -36 -33 -26 -38 -39 vvcurveto
          -45 30 -41 107 vhcurveto
          endchar
        </CharString>
        <CharString name="Itilde">
          -277 362 887 rmoveto
          -89 -103 callgsubr
          96 -47 callgsubr
          -302 28 callsubr
        </CharString>
        <CharString name="J">
          -181 21 145 -70 callgsubr
        </CharString>
        <CharString name="Jcircumflex">
          -181 84 -84 callgsubr
          -63 -602 -70 callgsubr
        </CharString>
        <CharString name="K">
          -22 callsubr
          endchar
        </CharString>
        <CharString name="Kcommaaccent">
          -22 callsubr
          -42 -496 rmoveto
          -87 callgsubr
        </CharString>
        <CharString name="L">
          -65 62 hmoveto
          -40 callsubr
          endchar
        </CharString>
        <CharString name="Lacute">
          -65 138 740 -101 callsubr
          -76 -745 rmoveto
          -40 callsubr
          endchar
        </CharString>
        <CharString name="Lcaron">
          -70 62 hmoveto
          -40 callsubr
          290 -264 -29 callgsubr
          endchar
        </CharString>
        <CharString name="Lcommaaccent">
          -65 62 hmoveto
          -40 callsubr
          116 -910 rmoveto
          -87 callgsubr
        </CharString>
        <CharString name="Ldot">
          -55 62 hmoveto
          -40 callsubr
          277 -383 -92 callsubr
        </CharString>
        <CharString name="Lslash">
          -70 267 163 rmoveto
          168 vlineto
          135 50 rlineto
          131 vlineto
          -135 -50 rlineto
          226 -205 -301 vlineto
          -56 -21 rlineto
          -131 vlineto
          56 21 rlineto
          -256 457 163 vlineto
          endchar
        </CharString>
        <CharString name="M">
          297 644 hmoveto
          197 688 -281 hlineto
          -105 -356 rlineto
          -8 hlineto
          -105 356 rlineto
          -282 -688 192 410 9 hlineto
          118 -410 rlineto
          137 hlineto
          119 410 rlineto
          9 hlineto
          endchar
        </CharString>
        <CharString name="N">
          106 459 hmoveto
          -81 callgsubr
          endchar
        </CharString>
        <CharString name="Nacute">
          106 281 740 -101 callsubr
          178 -745 rmoveto
          -81 callgsubr
          endchar
        </CharString>
        <CharString name="Nacute.loclPLK">
          106 281 -45 callgsubr
          178 -746 rmoveto
          -81 callgsubr
          endchar
        </CharString>
        <CharString name="Ncaron">
          106 269 740 -99 callgsubr
          281 -879 rmoveto
          -81 callgsubr
          endchar
        </CharString>
        <CharString name="Ncommaaccent">
          106 459 hmoveto
          -81 callgsubr
          -2 -577 rmoveto
          -87 callgsubr
        </CharString>
        <CharString name="Ntilde">
          106 555 914 rmoveto
          -90 -103 callgsubr
          97 -47 callgsubr
          -96 -914 rmoveto
          -81 callgsubr
          endchar
        </CharString>
        <CharString name="O">
          98 351 -8 -106 callsubr
          endchar
        </CharString>
        <CharString name="OE">
          389 351 hmoveto
          591 155 -237 hlineto
          -32 -27 -4 -4 -12 hvcurveto
          13 34 5 41 1 49 rrcurveto
          242 153 -242 hlineto
          -3 45 -5 39 -11 33 rrcurveto
          -5 15 30 -3 26 hhcurveto
          237 155 -591 hlineto
          -298 -5 -78 -266 -266 5 -78 298 hvcurveto
          155 vmoveto
          -94 -1 5 184 184 1 5 94 93 2 -5 -184 -184 -2 -5 -93 hvcurveto
          endchar
        </CharString>
        <CharString name="Oacute">
          94 272 750 -101 callsubr
          79 -763 -106 callsubr
          endchar
        </CharString>
        <CharString name="Oacute.loclPLK">
          98 277 -45 callgsubr
          74 -754 -106 callsubr
          endchar
        </CharString>
        <CharString name="Obreve">
          98 507 887 -100 callsubr
          -156 -895 -106 callsubr
          endchar
        </CharString>
        <CharString name="Ocircumflex">
          94 172 750 -104 callsubr
          179 -765 -106 callsubr
          endchar
        </CharString>
        <CharString name="Odieresis">
          94 168 777 -92 callgsubr
          -30 -903 -106 callsubr
          endchar
        </CharString>
        <CharString name="Ograve">
          94 296 750 -85 callsubr
          190 -900 -106 callsubr
          endchar
        </CharString>
        <CharString name="Ohorn">
          98 598 777 -58 callsubr
          -272 -272 5 -80 298 298 5 80 272 139 -1 88 -41 54 hvcurveto
          92 11 14 38 88 vvcurveto
          15 vlineto
          -367 -630 -3 callsubr
        </CharString>
        <CharString name="Ohungarumlaut">
          98 203 754 -70 callsubr
          108 116 rlineto
          4 -143 vlineto
          -74 -115 rlineto
          -41 -767 -106 callsubr
          endchar
        </CharString>
        <CharString name="Omacron">
          98 208 740 -64 callsubr
          143 -895 -106 callsubr
          endchar
        </CharString>
        <CharString name="Oslash">
          94 594 644 rmoveto
          56 99 rlineto
          -156 hlineto
          -30 -52 rlineto
          3 -32 -37 2 -44 hhcurveto
          -63 callsubr
          0 callgsubr
          298 5 80 272 157 -2 93 -58 50 hvcurveto
          -243 -497 -3 callsubr
        </CharString>
        <CharString name="Oslash.bold">
          92 593 645 rmoveto
          55 98 rlineto
          -155 hlineto
          -29 -52 rlineto
          3 -32 -37 2 -44 hhcurveto
          -63 callsubr
          -154 2 -92 55 -51 hvcurveto
          -57 -102 rlineto
          154 hlineto
          30 53 rlineto
          -4 33 39 -2 47 hhcurveto
          298 5 80 272 157 -2 93 -59 51 hvcurveto
          -337 -301 rmoveto
          192 1 5 94 vhcurveto
          29 hlineto
          -124 -223 rlineto
          95 -171 rmoveto
          -14 -12 0 1 -10 hvcurveto
          131 233 rlineto
          -37 vlineto
          -192 -2 -5 -93 vhcurveto
          endchar
        </CharString>
        <CharString name="Oslashacute">
          94 543 882 -69 callsubr
          185 -97 rmoveto
          57 100 rlineto
          -156 hlineto
          -31 -53 rlineto
          3 -32 -37 2 -43 34 callgsubr
          -271 0 callgsubr
          297 5 80 272 156 -2 93 -58 50 hvcurveto
          -242 -496 9 callsubr
          191 1 5 94 92 2 -5 -191 -192 -2 -5 -92 hvcurveto
          endchar
        </CharString>
        <CharString name="Otilde">
          94 551 913 rmoveto
          -90 -103 callgsubr
          97 -47 callgsubr
          -200 -921 -106 callsubr
          endchar
        </CharString>
        <CharString name="P">
          40 62 hmoveto
          205 215 136 hlineto
          193 21 96 140 155 -28 82 -186 hvcurveto
          -341 hlineto
          205 -321 rmoveto
          168 55 vlineto
          80 8 -7 -77 -75 -8 -9 -80 hvcurveto
          endchar
        </CharString>
        <CharString name="Q">
          94 478 -115 rmoveto
          213 7 hlineto
          -108 155 rlineto
          56 45 11 87 165 vvcurveto
          273 -6 79 -295 2 callgsubr
          20 19 1 1 18 vhcurveto
          -57 152 -3 callgsubr
        </CharString>
        <CharString name="Q.bold">
          98 585 42 rmoveto
          63 52 6 94 156 vvcurveto
          272 -5 80 -298 -63 callsubr
          -272 5 -80 298 20 18 0 1 18 vhcurveto
          72 -108 rlineto
          211 8 hlineto
          -339 648 rmoveto
          93 2 -5 -192 -57 0 -40 -3 -29 hvcurveto
          -184 hlineto
          -3 29 0 40 57 vvcurveto
          192 1 5 94 vhcurveto
          -92 -326 rmoveto
          44 -66 -28 5 -12 16 -4 45 rlinecurve
          endchar
        </CharString>
        <CharString name="R">
          69 642 hmoveto
          -80 callgsubr
        </CharString>
        <CharString name="R.ss01">
          70 621 171 -86 callgsubr
        </CharString>
        <CharString name="Racute">
          69 530 882 -69 callsubr
          247 -740 rmoveto
          -80 callgsubr
        </CharString>
        <CharString name="Racute.ss01">
          70 530 882 -69 callsubr
          226 -569 -86 callgsubr
        </CharString>
        <CharString name="Rcaron">
          69 -7 callsubr
          391 -740 rmoveto
          -80 callgsubr
        </CharString>
        <CharString name="Rcaron.ss01">
          70 -7 callsubr
          370 -569 -86 callgsubr
        </CharString>
        <CharString name="Rcommaaccent">
          -38 callgsubr
          -21 -559 -2 callgsubr
        </CharString>
        <CharString name="Rcommaaccent.ss01">
          -51 callsubr
          -20 -563 -2 callgsubr
        </CharString>
        <CharString name="S">
          -67 callsubr
          endchar
        </CharString>
        <CharString name="Sacute">
          11 234 740 -101 callsubr
          89 -753 -100 callgsubr
          endchar
        </CharString>
        <CharString name="Sacute.loclPLK">
          11 234 -45 callgsubr
          89 -754 -100 callgsubr
          endchar
        </CharString>
        <CharString name="Scaron">
          8 224 750 -99 callgsubr
          190 -897 -100 callgsubr
          endchar
        </CharString>
        <CharString name="Scedilla">
          11 576 221 rmoveto
          67 -10 43 -15 26 vhcurveto
          -29 51 -44 11 -51 7 -125 15 rcurveline
          -54 7 -3 5 40 vvcurveto
          19 2 12 15 8 vhcurveto
          7 13 25 2 44 hhcurveto
          65 70 -5 -7 62 hvcurveto
          146 vlineto
          13 -67 -82 8 -84 hhcurveto
          -151 -118 -27 -184 -120 22 -79 111 -13 hvcurveto
          122 -15 rlineto
          69 -9 7 -4 -42 vvcurveto
          -21 0 -14 -12 -9 vhcurveto
          -9 -12 -28 -3 -59 hhcurveto
          -49 -78 5 6 -73 hvcurveto
          -148 vlineto
          51 -8 65 -6 67 -2 -74 -178 rcurveline
          33 callgsubr
          rlineto
          121 6 87 37 185 vvcurveto
          endchar
        </CharString>
        <CharString name="Scircumflex">
          11 131 -84 callgsubr
          192 -755 -100 callgsubr
          endchar
        </CharString>
        <CharString name="Scommaaccent">
          -67 callsubr
          -110 -214 rmoveto
          -87 callgsubr
        </CharString>
        <CharString name="T">
          -11 193 hmoveto
          -24 callgsubr
          endchar
        </CharString>
        <CharString name="Tbar">
          -12 579 525 rmoveto
          163 -565 -163 179 -141 -158 -128 158 -256 206 256 157 128 -157 141 vlineto
          endchar
        </CharString>
        <CharString name="Tcaron">
          -11 211 740 -99 callgsubr
          73 -879 rmoveto
          -24 callgsubr
          endchar
        </CharString>
        <CharString name="Thorn">
          40 62 hmoveto
          205 115 136 hlineto
          193 21 97 140 154 -28 83 -186 hvcurveto
          -136 99 -205 hlineto
          205 -421 rmoveto
          169 55 vlineto
          80 8 -8 -76 -76 -8 -9 -80 hvcurveto
          endchar
        </CharString>
        <CharString name="U">
          77 417 688 -101 callgsubr
          endchar
        </CharString>
        <CharString name="Uacute">
          77 270 750 -101 callsubr
          147 -67 -101 callgsubr
          endchar
        </CharString>
        <CharString name="Ubreve">
          77 497 887 -100 callsubr
          -80 -199 -101 callgsubr
          endchar
        </CharString>
        <CharString name="Ucircumflex">
          77 165 750 -104 callsubr
          252 -69 -101 callgsubr
          endchar
        </CharString>
        <CharString name="Udieresis">
          77 159 777 -92 callgsubr
          45 -207 -101 callgsubr
          endchar
        </CharString>
        <CharString name="Ugrave">
          77 285 750 -85 callsubr
          267 -204 -101 callgsubr
          endchar
        </CharString>
        <CharString name="Uhorn">
          77 588 777 rmoveto
          -24 vlineto
          -49 -7 -16 -61 vhcurveto
          -103 -412 -26 callsubr
          412 -205 -374 6 callsubr
          271 11 75 247 vhcurveto
          314 vlineto
          74 15 12 38 81 vvcurveto
          15 vlineto
          endchar
        </CharString>
        <CharString name="Uhungarumlaut">
          77 193 754 -70 callsubr
          108 116 rlineto
          4 -143 vlineto
          -74 -115 rlineto
          35 -71 -101 callgsubr
          endchar
        </CharString>
        <CharString name="Umacron">
          77 198 740 -64 callsubr
          219 -199 -101 callgsubr
          endchar
        </CharString>
        <CharString name="Uogonek">
          77 417 688 rmoveto
          -412 vlineto
          -118 -2 -10 -75 -74 -2 10 118 vhcurveto
          412 -205 -374 vlineto
          -247 11 -75 269 vhcurveto
          14 hlineto
          -31 -31 -20 -36 -34 vvcurveto
          -46 29 -41 107 23 32 2 2 23 vhcurveto
          88 vlineto
          -8 -5 -1 -4 hhcurveto
          -38 -9 15 19 46 38 25 41 19 hvcurveto
          87 39 4 89 167 vvcurveto
          374 vlineto
          endchar
        </CharString>
        <CharString name="Uring">
          77 339 706 -91 callsubr
          78 -90 -101 callgsubr
          endchar
        </CharString>
        <CharString name="Utilde">
          77 540 887 rmoveto
          -89 -103 callgsubr
          96 -47 callgsubr
          -123 -199 -101 callgsubr
          endchar
        </CharString>
        <CharString name="V">
          59 195 hmoveto
          272 hlineto
          192 -27 callsubr
          -206 hlineto
          -115 -466 rlineto
          -9 hlineto
          -116 466 rlineto
          -210 hlineto
          endchar
        </CharString>
        <CharString name="W">
          377 584 hmoveto
          259 31 callgsubr
          -205 -75 callgsubr
        </CharString>
        <CharString name="Wacute">
          376 417 740 -101 callsubr
          167 -745 rmoveto
          258 31 callgsubr
          -204 -75 callgsubr
        </CharString>
        <CharString name="Wcircumflex">
          376 314 -84 callgsubr
          270 -747 rmoveto
          258 31 callgsubr
          -204 -75 callgsubr
        </CharString>
        <CharString name="Wdieresis">
          376 310 756 -92 callgsubr
          61 -874 rmoveto
          258 31 callgsubr
          -204 -75 callgsubr
        </CharString>
        <CharString name="Wgrave">
          376 435 740 -85 callsubr
          284 -882 rmoveto
          258 31 callgsubr
          -204 -75 callgsubr
        </CharString>
        <CharString name="X">
          90 455 hmoveto
          230 hlineto
          -208 350 205 338 rlineto
          -222 hlineto
          -105 -186 rlineto
          -9 hlineto
          -103 186 rlineto
          -230 hlineto
          205 -342 -209 -346 rlineto
          222 hlineto
          107 190 rlineto
          10 hlineto
          endchar
        </CharString>
        <CharString name="Y">
          46 222 hmoveto
          -79 callgsubr
        </CharString>
        <CharString name="Y.loclGUA">
          47 402 688 -93 callsubr
          endchar
        </CharString>
        <CharString name="Yacute">
          46 261 750 -101 callsubr
          -39 -755 -77 callgsubr
        </CharString>
        <CharString name="Yacute.loclGUA">
          47 518 882 -69 callsubr
          19 -52 -93 callsubr
          endchar
        </CharString>
        <CharString name="Ycircumflex">
          46 148 -84 callgsubr
          74 -747 -77 callgsubr
        </CharString>
        <CharString name="Ycircumflex.loclGUA">
          47 324 816 rmoveto
          -103 callsubr
          -7 120 vlineto
          134 -52 -93 callsubr
          endchar
        </CharString>
        <CharString name="Ydieresis">
          46 148 777 -92 callgsubr
          -139 -895 -77 callgsubr
        </CharString>
        <CharString name="Ydieresis.loclGUA">
          47 293 874 -27 callgsubr
          213 118 -27 callgsubr
          -104 -68 -93 callsubr
          endchar
        </CharString>
        <CharString name="Ygrave">
          46 269 740 -85 callsubr
          88 -882 -77 callgsubr
        </CharString>
        <CharString name="Ygrave.loclGUA">
          47 401 8 callsubr
          133 -52 -93 callsubr
          endchar
        </CharString>
        <CharString name="Z">
          17 41 hmoveto
          -73 callgsubr
          endchar
        </CharString>
        <CharString name="Zacute">
          17 236 740 -101 callsubr
          -195 -745 rmoveto
          -73 callgsubr
          endchar
        </CharString>
        <CharString name="Zacute.loclPLK">
          17 236 -45 callgsubr
          -195 -746 rmoveto
          -73 callgsubr
          endchar
        </CharString>
        <CharString name="Zcaron">
          13 231 751 -99 callgsubr
          -99 -890 rmoveto
          -73 callgsubr
          endchar
        </CharString>
        <CharString name="Zdotaccent">
          17 235 -34 callsubr
          -194 -874 rmoveto
          -73 callgsubr
          endchar
        </CharString>
        <CharString name="a">
          -38 175 -8 -107 callgsubr
          endchar
        </CharString>
        <CharString name="aacute">
          -38 211 596 -101 callsubr
          -36 -609 -107 callgsubr
          endchar
        </CharString>
        <CharString name="abreve">
          -38 440 742 -100 callsubr
          -265 -750 -107 callgsubr
          endchar
        </CharString>
        <CharString name="acircumflex">
          -38 109 -54 callsubr
          66 -611 -107 callgsubr
          endchar
        </CharString>
        <CharString name="acute">
          -297 20 596 -101 callsubr
          endchar
        </CharString>
        <CharString name="acute.case.loclPLK">
          -297 20 741 -51 callgsubr
          endchar
        </CharString>
        <CharString name="acute.loclPLK">
          -297 20 -59 callgsubr
          endchar
        </CharString>
        <CharString name="acutecomb">
          -287 596 -101 callsubr
          endchar
        </CharString>
        <CharString name="acutecomb.case">
          -287 741 -101 callsubr
          endchar
        </CharString>
        <CharString name="adieresis">
          -38 105 -64 callgsubr
          -143 -738 -107 callgsubr
          endchar
        </CharString>
        <CharString name="ae">
          246 809 254 -72 callgsubr
        </CharString>
        <CharString name="aeacute">
          245 624 737 -69 callsubr
          320 -341 -72 callgsubr
        </CharString>
        <CharString name="agrave">
          -38 225 596 -85 callsubr
          85 -746 -107 callgsubr
          endchar
        </CharString>
        <CharString name="amacron">
          -38 141 595 -64 callsubr
          34 -750 -107 callgsubr
          endchar
        </CharString>
        <CharString name="ampersand">
          130 426 417 rmoveto
          -281 vlineto
          -2 -23 -22 0 -22 hhcurveto
          -101 -24 9 63 63 14 9 71 hvcurveto
          41 139 -41 hlineto
          -70 -9 9 57 60 16 10 133 64 95 -6 -8 65 hvcurveto
          133 vlineto
          13 -71 -107 11 -77 hhcurveto
          -255 -59 -76 -105 -100 39 -43 80 -19 hvcurveto
          -4 vlineto
          -81 -19 -44 -34 -112 vvcurveto
          -108 42 -84 279 76 107 10 13 75 vhcurveto
          263 102 139 vlineto
          endchar
        </CharString>
        <CharString name="aogonek">
          -38 514 hmoveto
          304 vlineto
          143 -16 71 -229 -83 -72 -8 -9 -53 vhcurveto
          -128 vlineto
          11 91 6 47 hhcurveto
          102 13 -1 -62 hvcurveto
          -18 vlineto
          2 -42 -64 2 -23 hhcurveto
          -132 -31 -40 -115 -111 49 -44 93 52 50 5 61 41 hvcurveto
          9 hlineto
          4 -58 rlineto
          31 hlineto
          -39 -34 -25 -37 -40 vvcurveto
          -44 31 -41 106 22 32 2 2 24 vhcurveto
          88 vlineto
          -8 -6 -1 -4 hhcurveto
          -37 -9 15 16 30 30 31 35 13 hvcurveto
          -189 193 rmoveto
          -23 -2 -16 -6 -11 vhcurveto
          -17 -8 -16 -6 -29 20 callgsubr
        </CharString>
        <CharString name="approxequal">
          -107 48 266 rmoveto
          35 callsubr
          28 vhcurveto
          -8 -25 callsubr
          40 hhcurveto
          97 -47 callgsubr
          -2 callsubr
          -188 vmoveto
          91 hlineto
          29 0 11 23 17 25 -5 -6 27 vhcurveto
          -8 36 43 -9 40 hhcurveto
          97 1 56 95 hvcurveto
          -90 hlineto
          -30 0 -11 -24 -17 -24 6 6 -28 vhcurveto
          7 -36 -42 10 -40 hhcurveto
          -98 -1 -57 -94 hvcurveto
          endchar
        </CharString>
        <CharString name="aring">
          -38 288 578 -91 callsubr
          -113 -658 -107 callgsubr
          endchar
        </CharString>
        <CharString name="aringacute">
          -38 218 859 -101 callsubr
          64 -273 -91 callsubr
          -107 -671 -107 callgsubr
          endchar
        </CharString>
        <CharString name="arrowboth">
          278 340 162 rmoveto
          -30 85 rlineto
          261 hlineto
          -28 -85 24 callsubr
          28 -84 rlineto
          -260 hlineto
          29 84 -285 -143 rlineto
          endchar
        </CharString>
        <CharString name="arrowdown">
          -209 198 -85 rmoveto
          142 285 -85 -28 rlineto
          516 -114 -517 vlineto
          -86 29 rlineto
          endchar
        </CharString>
        <CharString name="arrowdown.ss01">
          -259 173 171 rmoveto
          142 285 rlineto
          -285 hlineto
          endchar
        </CharString>
        <CharString name="arrowleft">
          278 310 247 rmoveto
          518 116 -517 hlineto
          29 84 -285 -143 285 -55 callsubr
          endchar
        </CharString>
        <CharString name="arrowleft.ss01">
          -241 315 201 rmoveto
          285 vlineto
          -285 -143 rlineto
          endchar
        </CharString>
        <CharString name="arrowright">
          278 543 162 rmoveto
          24 callsubr
          28 -84 rlineto
          -516 -116 516 hlineto
          endchar
        </CharString>
        <CharString name="arrowright.ss01">
          -241 48 201 rmoveto
          24 callsubr
          rlineto
          endchar
        </CharString>
        <CharString name="arrowup">
          -209 141 -82 rmoveto
          114 516 hlineto
          85 -28 -142 285 -143 -285 86 28 rlineto
          endchar
        </CharString>
        <CharString name="arrowup.ss01">
          -259 30 231 rmoveto
          285 hlineto
          -142 285 rlineto
          endchar
        </CharString>
        <CharString name="arrowupdn">
          -20 callsubr
          endchar
        </CharString>
        <CharString name="arrowupdnbse">
          -20 callsubr
          -415 vmoveto
          285 96 -285 hlineto
          endchar
        </CharString>
        <CharString name="asciicircum">
          -177 289 443 rmoveto
          131 hlineto
          -142 306 rlineto
          -129 hlineto
          -142 -306 rlineto
          130 hlineto
          76 188 rlineto
          endchar
        </CharString>
        <CharString name="asciitilde">
          -107 448 385 rmoveto
          -2 callsubr
          35 callsubr
          27 vhcurveto
          -8 36 43 -10 40 hhcurveto
          97 -47 callgsubr
          endchar
        </CharString>
        <CharString name="asterisk">
          -151 261 443 rmoveto
          104 -73 46 81 -116 52 116 53 -46 81 -105 -72 13 123 rlineto
          -92 hlineto
          11 -124 -104 73 -46 -81 115 -53 -115 -52 46 -81 104 73 -11 -124 rlineto
          92 hlineto
          endchar
        </CharString>
        <CharString name="asterisk.ss02">
          213 178 -14 rmoveto
          231 170 231 -170 -90 276 232 174 rlineto
          -288 hlineto
          -85 269 -87 -269 rlineto
          -287 hlineto
          234 -174 rlineto
          endchar
        </CharString>
        <CharString name="at">
          338 471 -108 rmoveto
          130 38 0 2 41 hvcurveto
          69 vlineto
          -2 -42 -87 -2 -78 hhcurveto
          -58 -47 0 2 -29 hvcurveto
          -191 10 -2 50 273 vvcurveto
          242 2 66 137 20 vhcurveto
          6 38 63 0 85 hhcurveto
          88 65 0 -7 40 hvcurveto
          130 -21 2 -68 -238 vvcurveto
          -150 -7 -1 -47 vhcurveto
          -61 192 hlineto
          126 -13 57 -198 -60 -63 -5 -10 -56 vhcurveto
          -109 vlineto
          4 74 29 1 25 hhcurveto
          89 9 -1 -53 hvcurveto
          -16 vlineto
          2 -33 -55 2 -23 hhcurveto
          -113 -26 -28 -104 -92 40 -41 82 46 41 5 54 35 hvcurveto
          8 hlineto
          4 -52 rlineto
          210 hlineto
          102 37 1 218 358 -22 44 -379 -379 -21 -45 -357 -357 21 -45 379 hvcurveto
          -5 285 rmoveto
          -45 -3 9 31 38 5 5 39 hvcurveto
          55 -23 hlineto
          -44 -5 -16 -46 vhcurveto
          endchar
        </CharString>
        <CharString name="atilde">
          -38 483 743 rmoveto
          -90 -103 callgsubr
          97 -47 callgsubr
          -308 -751 -107 callgsubr
          endchar
        </CharString>
        <CharString name="b">
          -20 387 -8 rmoveto
          112 48 54 207 207 -48 57 -113 -54 -49 -8 -51 -33 hvcurveto
          -9 285 -189 -743 182 hlineto
          4 59 rlineto
          10 hlineto
          -56 30 54 -11 55 hhcurveto
          -88 152 rmoveto
          -29 -14 4 20 -7 hvcurveto
          -7 18 -1 27 42 vvcurveto
          42 1 27 7 18 vhcurveto
          21 7 14 3 29 4 callsubr
        </CharString>
        <CharString name="backslash">
          -179 280 -55 rmoveto
          155 hlineto
          -290 798 rlineto
          -156 hlineto
          endchar
        </CharString>
        <CharString name="bar">
          -301 72 -161 rmoveto
          159 904 -159 hlineto
          endchar
        </CharString>
        <CharString name="bar.ss02">
          -106 -1 hmoveto
          500 696 -500 hlineto
          endchar
        </CharString>
        <CharString name="braceleft">
          -226 238 -150 -72 callsubr
          -38 37 -51 74 64 vvcurveto
          123 vlineto
          75 -37 55 -89 15 vhcurveto
          7 vlineto
          89 15 37 55 75 vvcurveto
          123 vlineto
          64 51 74 38 37 vhcurveto
          -120 hlineto
          -60 -28 -75 -80 -91 vvcurveto
          -107 vlineto
          -53 -15 -39 -66 -11 vhcurveto
          -76 vlineto
          66 -10 15 -39 -53 vvcurveto
          -107 vlineto
          -91 75 -80 60 -28 vhcurveto
          endchar
        </CharString>
        <CharString name="braceright">
          -226 20 -150 -72 callsubr
          59 28 75 80 91 vvcurveto
          107 vlineto
          53 15 39 67 10 vhcurveto
          76 vlineto
          -67 11 -15 39 53 vvcurveto
          107 vlineto
          91 -75 80 -59 28 vhcurveto
          -120 hlineto
          37 -37 52 -74 -64 vvcurveto
          -123 vlineto
          -75 37 -55 89 -15 vhcurveto
          -7 vlineto
          -89 -15 -37 -55 -75 vvcurveto
          -123 vlineto
          -64 -52 -74 -37 -37 vhcurveto
          endchar
        </CharString>
        <CharString name="bracketleft">
          -209 66 -150 rmoveto
          284 112 hlineto
          -119 4 rlineto
          661 vlineto
          119 4 rlineto
          112 -284 vlineto
          endchar
        </CharString>
        <CharString name="bracketleft.ss02">
          13 callsubr
          hvcurveto
          -348 vlineto
          endchar
        </CharString>
        <CharString name="bracketright">
          -209 45 -150 rmoveto
          284 893 -284 -112 hlineto
          119 -4 rlineto
          -661 vlineto
          -119 -4 rlineto
          endchar
        </CharString>
        <CharString name="bracketright.ss02">
          -207 0 vmoveto
          352 348 hlineto
          25 callsubr
          vhcurveto
          endchar
        </CharString>
        <CharString name="breve">
          -250 334 743 -100 callsubr
          endchar
        </CharString>
        <CharString name="brokenbar">
          -301 72 390 rmoveto
          159 353 -159 hlineto
          -904 vmoveto
          159 353 -159 hlineto
          endchar
        </CharString>
        <CharString name="bullet">
          -203 326 342 rmoveto
          111 -5 17 -123 -118 -5 -17 -111 -108 5 -17 118 123 5 17 108 vhcurveto
          endchar
        </CharString>
        <CharString name="bullet.ss02">
          179 392 421 rmoveto
          62 50 39 73 90 -76 73 -36 -37 -76 -73 -90 -73 50 -39 63 hvcurveto
          60 vmoveto
          -30 -23 18 34 57 36 46 17 17 35 -46 -57 -34 -23 -18 -29 hvcurveto
          -189 -250 rmoveto
          73 39 50 63 62 -39 50 -73 -90 -73 -76 -36 -37 73 -76 90 hvcurveto
          378 hmoveto
          89 73 76 37 36 -73 76 -89 -74 -39 -50 -62 -63 39 -50 74 hvcurveto
          -378 60 rmoveto
          -57 -46 36 17 17 46 35 57 34 18 -23 -29 -30 -18 -23 -34 hvcurveto
          378 hmoveto
          -35 -18 23 30 29 18 23 35 56 46 -35 -17 -17 -46 -36 -56 hvcurveto
          -189 -299 rmoveto
          36 76 73 90 73 -50 39 -62 -63 -50 -39 -73 -90 76 -73 37 hvcurveto
          60 vmoveto
          -17 -36 46 57 34 23 18 30 29 23 -18 -34 -57 -35 -46 -17 hvcurveto
          endchar
        </CharString>
        <CharString name="c">
          -140 428 10 -86 callsubr
        </CharString>
        <CharString name="cacute">
          -140 164 595 -101 callsubr
          264 -590 -86 callsubr
        </CharString>
        <CharString name="cacute.loclPLK">
          -140 164 -59 callgsubr
          264 -591 -86 callsubr
        </CharString>
        <CharString name="caron">
          -211 111 596 -99 callgsubr
          endchar
        </CharString>
        <CharString name="caron.loclCSY">
          -309 54 424 -29 callgsubr
          endchar
        </CharString>
        <CharString name="ccaron">
          -140 146 595 -99 callgsubr
          373 -724 -86 callsubr
        </CharString>
        <CharString name="ccedilla">
          -140 428 138 rmoveto
          -4 -35 -44 -3 -32 hhcurveto
          -83 -6 17 107 106 7 18 82 36 45 -3 -3 26 hvcurveto
          128 vlineto
          11 -48 -55 6 -56 hhcurveto
          -219 -9 -105 -159 -132 5 -93 127 -28 hvcurveto
          -77 -185 rlineto
          33 callgsubr
          46 1 48 7 42 9 rlinecurve
          endchar
        </CharString>
        <CharString name="ccircumflex">
          -140 55 595 -104 callsubr
          373 -592 -86 callsubr
        </CharString>
        <CharString name="cdotaccent">
          -140 157 -16 callgsubr
          271 -719 -86 callsubr
        </CharString>
        <CharString name="cedilla">
          -362 20 4 callgsubr
        </CharString>
        <CharString name="cent">
          -136 194 -8 rmoveto
          138 78 hlineto
          35 3 32 5 26 8 rrcurveto
          133 vlineto
          -4 -30 -44 -4 -31 hhcurveto
          -76 -9 18 113 112 9 19 75 35 43 -3 -4 24 hvcurveto
          133 vlineto
          -37 9 -26 4 -26 2 rrcurveto
          82 -138 -85 vlineto
          -131 -23 -17 -93 -154 vvcurveto
          -153 16 -93 132 -22 vhcurveto
          endchar
        </CharString>
        <CharString name="cent.bold">
          -136 425 219 rmoveto
          -26 -4 -37 -3 -30 -1 rrcurveto
          262 vlineto
          32 -1 36 -2 21 -4 rrcurveto
          133 vlineto
          -35 9 -28 5 -26 2 rrcurveto
          81 -138 -83 vlineto
          -127 -21 -21 -105 -146 vvcurveto
          -175 31 -75 117 -18 vhcurveto
          -81 138 78 vlineto
          41 3 27 6 25 7 rrcurveto
          endchar
        </CharString>
        <CharString name="circumflex">
          -211 20 -54 callsubr
          endchar
        </CharString>
        <CharString name="colon">
          -280 64 349 rmoveto
          196 161 -196 hlineto
          -510 vmoveto
          196 161 -196 hlineto
          endchar
        </CharString>
        <CharString name="comma">
          -280 60 -84 -6 callsubr
        </CharString>
        <CharString name="copyright">
          148 376 -8 rmoveto
          28 callgsubr
          27 callgsubr
          hvcurveto
          67 -7 callgsubr
          21 96 rmoveto
          31 42 2 5 26 hvcurveto
          80 vlineto
          -2 -17 -30 -2 -26 hhcurveto
          -70 -2 8 98 96 2 9 70 16 32 -2 -3 23 hvcurveto
          79 vlineto
          6 -24 -40 4 -33 hhcurveto
          -140 -17 -48 -141 -141 17 -48 140 hvcurveto
          endchar
        </CharString>
        <CharString name="currency">
          77 130 hmoveto
          84 84 rlineto
          -6 32 42 -4 52 hhcurveto
          53 40 3 7 33 hvcurveto
          84 -85 94 95 -72 72 rlineto
          15 40 2 59 80 vvcurveto
          80 -2 57 -15 42 vhcurveto
          72 72 -92 93 -85 -85 rlineto
          7 -32 -42 3 -53 hhcurveto
          -52 -41 -2 -7 -33 hvcurveto
          -84 84 -93 -94 71 -72 rlineto
          -15 -41 -1 -57 -80 vvcurveto
          -81 1 -58 16 -42 vhcurveto
          -71 -71 rlineto
          302 120 rmoveto
          -60 0 9 123 123 0 8 60 60 1 -8 -123 -123 -1 -9 -60 hvcurveto
          endchar
        </CharString>
        <CharString name="d">
          -20 -71 callsubr
          88 152 -69 callgsubr
          endchar
        </CharString>
        <CharString name="dagger">
          -69 212 hmoveto
          111 hlineto
          9 415 134 10 rlineto
          111 vlineto
          -134 9 -9 143 rlineto
          -111 hlineto
          -10 -143 -133 -9 rlineto
          -111 vlineto
          133 -10 rlineto
          endchar
        </CharString>
        <CharString name="daggerdbl">
          -69 212 hmoveto
          111 hlineto
          9 142 134 10 rlineto
          110 vlineto
          -134 11 rlineto
          142 vlineto
          134 10 rlineto
          111 vlineto
          -134 10 -9 -36 callgsubr
          -111 hlineto
          -10 -142 -133 -10 rlineto
          -111 vlineto
          133 -10 rlineto
          -142 vlineto
          -133 -11 rlineto
          -110 vlineto
          133 -10 rlineto
          endchar
        </CharString>
        <CharString name="dcaron">
          71 -71 callsubr
          364 432 -29 callgsubr
          -287 -494 -69 callgsubr
          endchar
        </CharString>
        <CharString name="dcroat">
          -20 588 688 rmoveto
          -56 55 -189 -55 -121 -128 121 -102 -26 callgsubr
          -207 -207 47 -54 113 55 54 11 56 30 hvcurveto
          10 hlineto
          4 -59 rlineto
          182 560 56 hlineto
          -251 -387 rmoveto
          -24 -6 -14 -5 -32 hhcurveto
          -57 -3 5 106 106 3 5 57 32 15 -5 -28 6 hvcurveto
          4 -18 1 -25 -35 vvcurveto
          -36 -1 -25 -5 -21 vhcurveto
          endchar
        </CharString>
        <CharString name="degree">
          -206 200 -8 callgsubr
          76 vmoveto
          11 callsubr
          endchar
        </CharString>
        <CharString name="dialog">
          201 306 -212 rmoveto
          213 212 rlineto
          227 688 -687 -688 247 60 -187 568 567 -568 38 callgsubr
        </CharString>
        <CharString name="dieresis">
          -208 17 -64 callgsubr
          endchar
        </CharString>
        <CharString name="divide">
          -64 203 387 rmoveto
          132 109 -132 hlineto
          -133 -310 rmoveto
          400 133 -400 hlineto
          133 -309 rmoveto
          132 109 -132 hlineto
          endchar
        </CharString>
        <CharString name="dollar">
          -66 202 -8 rmoveto
          138 77 hlineto
          88 6 63 32 136 vvcurveto
          133 -44 22 -87 12 vhcurveto
          -94 10 rlineto
          -41 6 -1 2 23 vvcurveto
          26 10 2 86 28 58 -4 -4 57 vhcurveto
          132 vlineto
          -27 5 -51 6 -45 2 rrcurveto
          80 -138 -81 vlineto
          -91 -8 -64 -34 -118 vvcurveto
          -96 13 -63 128 -17 vhcurveto
          84 -11 rlineto
          40 -5 2 -3 -21 vvcurveto
          -28 -2 -4 -98 -47 -67 4 3 -37 vhcurveto
          -132 vlineto
          40 -5 55 -6 44 -2 rrcurveto
          endchar
        </CharString>
        <CharString name="dollar.bold">
          -66 491 243 rmoveto
          133 -44 22 -87 12 vhcurveto
          -20 2 rlineto
          67 vlineto
          123 -8 rlineto
          132 vlineto
          -30 5 -44 6 -49 3 rrcurveto
          79 -138 -80 vlineto
          -106 -12 -49 -42 -107 vvcurveto
          -96 13 -63 128 -17 vhcurveto
          14 -2 rlineto
          -70 vlineto
          -46 1 -59 3 -34 3 rrcurveto
          -132 vlineto
          51 -6 46 -5 42 -3 rrcurveto
          -76 138 77 vlineto
          114 12 37 45 117 vvcurveto
          endchar
        </CharString>
        <CharString name="dotaccent">
          -415 20 29 callgsubr
        </CharString>
        <CharString name="dotbelowcomb">
          -260 -223 -92 callsubr
        </CharString>
        <CharString name="dotlessi">
          -308 52 hmoveto
          -61 callgsubr
        </CharString>
        <CharString name="e">
          -47 517 254 -106 callgsubr
          endchar
        </CharString>
        <CharString name="eacute">
          -47 482 738 -69 callsubr
          170 -342 -106 callgsubr
          endchar
        </CharString>
        <CharString name="ebreve">
          -47 277 591 rmoveto
          -61 callsubr
          hvcurveto
          -100 hlineto
          -31 -1 -24 -57 -56 0 24 31 vhcurveto
          -100 hlineto
          -88 21 -63 135 vhcurveto
          240 -337 -106 callgsubr
          endchar
        </CharString>
        <CharString name="ecaron">
          -47 363 595 rmoveto
          92 139 rlineto
          8 -119 vlineto
          -56 -76 -58 76 rlineto
          -120 -8 hlineto
          91 -139 rlineto
          324 -341 -106 callgsubr
          endchar
        </CharString>
        <CharString name="ecircumflex">
          -47 286 672 rmoveto
          -103 callsubr
          -7 120 vlineto
          287 -342 -106 callgsubr
          endchar
        </CharString>
        <CharString name="edieresis">
          -47 255 730 -27 callgsubr
          213 118 -27 callgsubr
          49 -358 -106 callgsubr
          endchar
        </CharString>
        <CharString name="edotaccent">
          -47 353 729 -27 callgsubr
          164 -357 -106 callgsubr
          endchar
        </CharString>
        <CharString name="egrave">
          -47 360 596 -52 callsubr
          289 -342 -106 callgsubr
          endchar
        </CharString>
        <CharString name="eight">
          75 339 -8 rmoveto
          239 54 73 119 5 callsubr
          39 43 100 vvcurveto
          118 -66 63 -221 -220 -66 -63 -118 -100 38 -43 80 -19 vhcurveto
          -4 vlineto
          -80 -19 -44 -34 -112 vvcurveto
          -119 54 -73 238 vhcurveto
          421 vmoveto
          -72 -10 7 60 62 10 7 72 73 10 -7 -62 -60 -10 -7 -73 hvcurveto
          -274 vmoveto
          -72 -16 6 64 66 16 7 72 73 16 -7 -66 -64 -16 -6 -73 hvcurveto
          endchar
        </CharString>
        <CharString name="eight.dnom">
          -216 194 -4 -95 callgsubr
        </CharString>
        <CharString name="eight.numr">
          -216 194 304 -95 callgsubr
        </CharString>
        <CharString name="eight.tnum">
          55 330 -8 rmoveto
          238 54 73 119 112 -44 34 -80 19 hvcurveto
          4 vlineto
          79 19 39 43 100 vvcurveto
          118 -66 63 -220 -221 -66 -63 -118 -100 39 -43 80 -19 vhcurveto
          -4 vlineto
          -81 -19 -44 -34 -112 vvcurveto
          -119 54 -73 239 vhcurveto
          421 vmoveto
          -73 -10 7 60 62 10 7 73 73 9 -7 -62 -60 -10 -7 -72 hvcurveto
          -274 vmoveto
          -72 -17 6 64 66 16 7 73 73 15 -7 -66 -64 -16 -6 -72 hvcurveto
          endchar
        </CharString>
        <CharString name="ellipsis">
          369 64 hmoveto
          196 161 -196 hlineto
          324 -161 rmoveto
          197 161 -197 hlineto
          325 -161 -92 callsubr
        </CharString>
        <CharString name="emacron">
          -47 423 742 24 callgsubr
          94 -341 -106 callgsubr
          endchar
        </CharString>
        <CharString name="emdash">
          275 40 239 rmoveto
          798 131 -798 hlineto
          endchar
        </CharString>
        <CharString name="endash">
          -125 40 239 rmoveto
          398 131 -398 hlineto
          endchar
        </CharString>
        <CharString name="eng">
          -15 387 518 rmoveto
          -12 callgsubr
          hvcurveto
          -40 callgsubr
          -510 189 268 hlineto
          86 4 11 51 48 4 -3 -93 vhcurveto
          -289 vlineto
          -36 -4 -16 -73 34 callsubr
          223 43 18 203 hvcurveto
          297 vlineto
          -25 callgsubr
          vhcurveto
          endchar
        </CharString>
        <CharString name="eogonek">
          -47 517 254 rmoveto
          196 -2 68 -233 -230 -15 -76 -188 -188 13 -74 251 vhcurveto
          17 hlineto
          -41 -31 -25 -34 -40 vvcurveto
          -41 30 -42 107 25 35 2 2 17 vhcurveto
          88 vlineto
          -7 -6 -1 -4 hhcurveto
          -37 -10 15 15 37 57 34 38 15 hvcurveto
          -99 callsubr
          endchar
        </CharString>
        <CharString name="equal">
          -64 70 293 rmoveto
          6 callgsubr
          -345 vmoveto
          6 callgsubr
          endchar
        </CharString>
        <CharString name="estimated">
          94 349 696 rmoveto
          2 callgsubr
          225 45 20 188 14 hvcurveto
          -36 hlineto
          -166 -12 -37 -8 -194 hhcurveto
          -96 -3 7 290 hvcurveto
          395 21 hlineto
          273 -6 79 -295 vhcurveto
          -34 vmoveto
          91 4 -7 -298 hvcurveto
          -189 hlineto
          298 2 7 92 vhcurveto
          endchar
        </CharString>
        <CharString name="eth">
          31 callsubr
          65 -5 55 -7 48 hvcurveto
          -12 72 -19 57 -26 48 60 10 rcurveline
          102 vlineto
          -130 -18 -13 16 -13 14 -20 16 rlinecurve
          -202 -4 hlineto
          23 -19 25 -23 23 -25 -65 -8 rcurveline
          -103 vlineto
          129 17 12 -20 10 -21 8 -25 rlinecurve
          -5 -5 rlineto
          7 -29 -22 4 -36 hhcurveto
          -167 -17 -74 -189 -15 callsubr
        </CharString>
        <CharString name="exclam">
          -247 118 244 rmoveto
          -49 callsubr
          -29 -244 -92 callsubr
        </CharString>
        <CharString name="exclam.case">
          -247 118 244 rmoveto
          -49 callsubr
          -29 -244 -92 callsubr
        </CharString>
        <CharString name="exclam.ss02">
          190 397 -8 rmoveto
          194 158 158 194 194 -158 158 -194 -194 -158 -158 -194 -194 158 -158 194 hvcurveto
          45 vmoveto
          -169 -138 138 169 169 138 138 169 169 138 -138 -169 -169 -138 -138 -169 hvcurveto
          -20 231 rmoveto
          40 hlineto
          6 42 8 89 81 vvcurveto
          99 -68 -99 vlineto
          -81 8 -89 6 -42 vhcurveto
          -14 -159 rmoveto
          68 82 -68 hlineto
          endchar
        </CharString>
        <CharString name="exclamdbl">
          30 118 244 rmoveto
          -49 callsubr
          278 hmoveto
          -49 callsubr
          -307 -244 rmoveto
          196 161 -196 hlineto
          278 -161 -92 callsubr
        </CharString>
        <CharString name="exclamdown">
          -267 69 349 -21 callsubr
        </CharString>
        <CharString name="exclamdown.case">
          -250 71 527 -21 callsubr
        </CharString>
        <CharString name="f">
          -164 107 hmoveto
          -71 callgsubr
          endchar
        </CharString>
        <CharString name="f_f">
          275 107 hmoveto
          -71 callgsubr
          440 -371 rmoveto
          -71 callgsubr
          endchar
        </CharString>
        <CharString name="fi">
          132 492 -34 callgsubr
          -385 -743 rmoveto
          -71 callgsubr
          385 -371 rmoveto
          -61 callgsubr
        </CharString>
        <CharString name="five">
          23 65 157 rmoveto
          -143 vlineto
          -13 68 94 -9 66 hhcurveto
          233 53 75 162 132 -43 78 -168 -40 -45 -3 -4 -34 hvcurveto
          100 279 156 -455 -410 vlineto
          6 59 79 4 57 hhcurveto
          88 17 -7 -64 -64 -16 -7 -89 -51 -85 5 6 -67 hvcurveto
          endchar
        </CharString>
        <CharString name="five.dnom">
          -245 41 88 -38 callsubr
        </CharString>
        <CharString name="five.numr">
          -245 41 396 -38 callsubr
        </CharString>
        <CharString name="five.tnum">
          55 87 157 rmoveto
          -143 vlineto
          -13 67 94 -9 67 hhcurveto
          233 52 75 162 132 -43 78 -167 -40 -46 -3 -4 -34 hvcurveto
          100 279 156 -454 -410 vlineto
          6 58 80 4 56 hhcurveto
          88 17 -7 -64 -64 -15 -7 -89 -51 -86 5 6 -66 hvcurveto
          endchar
        </CharString>
        <CharString name="fiveeighths">
          310 162 hmoveto
          -9 callsubr
          -569 -292 rmoveto
          -80 vlineto
          -7 39 52 -5 38 hhcurveto
          131 29 42 89 73 -23 43 -95 -24 -23 -1 -2 -20 hvcurveto
          52 157 87 -257 -225 vlineto
          3 33 45 2 31 hhcurveto
          50 9 -5 -33 -36 -8 -3 -51 -28 -49 3 3 -36 hvcurveto
          680 -400 -95 callgsubr
        </CharString>
        <CharString name="fl">
          132 492 -13 callgsubr
          -385 -743 rmoveto
          -71 callgsubr
          endchar
        </CharString>
        <CharString name="florin">
          -68 495 615 rmoveto
          26 127 rlineto
          -267 -41 -6 -223 -48 hvcurveto
          -1 -3 rlineto
          -89 hlineto
          -29 -139 rlineto
          89 hlineto
          -81 -381 rlineto
          -56 -13 -8 -4 -108 hhcurveto
          -26 -127 rlineto
          264 43 5 172 37 hvcurveto
          83 391 rlineto
          117 hlineto
          29 139 rlineto
          -117 hlineto
          100 22 1 5 117 hhcurveto
          endchar
        </CharString>
        <CharString name="four">
          49 20 callsubr
          -133 hlineto
          -60 19 callgsubr
          -220 -421 rlineto
          -137 317 vlineto
          endchar
        </CharString>
        <CharString name="four.dnom">
          -234 197 hmoveto
          -14 callgsubr
        </CharString>
        <CharString name="four.numr">
          -234 197 308 rmoveto
          -14 callgsubr
        </CharString>
        <CharString name="four.ss01">
          61 353 hmoveto
          201 130 84 154 -84 404 -282 hlineto
          -242 -420 rlineto
          -138 323 vlineto
          -144 154 rmoveto
          136 240 rlineto
          8 -240 hlineto
          endchar
        </CharString>
        <CharString name="four.tnum">
          55 20 callsubr
          -132 hlineto
          -61 19 callgsubr
          -219 -421 rlineto
          -137 316 vlineto
          endchar
        </CharString>
        <CharString name="fraction">
          -436 -197 hmoveto
          -9 callsubr
          endchar
        </CharString>
        <CharString name="g">
          -20 265 -206 -102 callgsubr
        </CharString>
        <CharString name="g_tilde.loclGUA">
          -20 491 742 rmoveto
          -89 -103 callgsubr
          96 -47 callgsubr
          -226 -948 -102 callgsubr
        </CharString>
        <CharString name="gbreve">
          -20 448 742 -100 callsubr
          -183 -948 -102 callgsubr
        </CharString>
        <CharString name="gcaron">
          -20 206 595 -99 callgsubr
          150 -940 -102 callgsubr
        </CharString>
        <CharString name="gcircumflex">
          -20 115 595 -104 callsubr
          150 -808 -102 callgsubr
        </CharString>
        <CharString name="gcommaaccent">
          -20 388 -5 callsubr
          -123 -967 -102 callgsubr
        </CharString>
        <CharString name="gdotaccent">
          -20 217 -16 callgsubr
          48 -935 -102 callgsubr
        </CharString>
        <CharString name="germandbls">
          1 326 hmoveto
          201 41 61 177 128 -43 48 -82 15 hvcurveto
          4 vlineto
          80 13 36 42 88 vvcurveto
          109 -50 65 -204 -192 -61 -62 -130 vhcurveto
          -558 189 541 vlineto
          65 15 6 51 48 12 -7 -53 -51 -6 -6 -56 vhcurveto
          -12 -139 12 hlineto
          60 13 -3 -106 -107 -10 -2 -62 hvcurveto
          -13 -138 hlineto
          endchar
        </CharString>
        <CharString name="grave">
          -297 155 596 -85 callsubr
          endchar
        </CharString>
        <CharString name="gravecomb">
          -152 596 -85 callsubr
          endchar
        </CharString>
        <CharString name="gravecomb.case">
          -152 741 -85 callsubr
          endchar
        </CharString>
        <CharString name="greater">
          -63 70 45 19 callsubr
          -132 vlineto
          239 -76 -239 -77 rlineto
          endchar
        </CharString>
        <CharString name="greaterequal">
          -63 70 174 19 callsubr
          -131 vlineto
          240 -77 -240 -77 rlineto
          -306 vmoveto
          6 callgsubr
          endchar
        </CharString>
        <CharString name="guillemotleft">
          -92 0 callsubr
          332 -205 rmoveto
          118 hlineto
          -101 205 101 206 rlineto
          -118 hlineto
          -131 -206 rlineto
          endchar
        </CharString>
        <CharString name="guillemotright">
          -92 -1 callsubr
          99 -205 rmoveto
          117 hlineto
          132 205 -132 206 rlineto
          -117 hlineto
          101 -206 rlineto
          endchar
        </CharString>
        <CharString name="guilsinglleft">
          -293 0 callsubr
          endchar
        </CharString>
        <CharString name="guilsinglright">
          -293 -1 callsubr
          endchar
        </CharString>
        <CharString name="h">
          -15 348 hmoveto
          -54 callgsubr
          endchar
        </CharString>
        <CharString name="hbar">
          -15 388 518 rmoveto
          -52 -53 -14 -52 -33 hvcurveto
          -9 108 120 128 -120 55 -189 -55 -56 -128 56 -560 189 268 hlineto
          86 4 11 51 48 4 -3 -93 vhcurveto
          -269 -10 callsubr
          vlineto
          127 -16 72 -133 vhcurveto
          endchar
        </CharString>
        <CharString name="hcircumflex">
          -15 -30 773 -104 callsubr
          378 -780 rmoveto
          -54 callgsubr
          endchar
        </CharString>
        <CharString name="hookabovecomb">
          -238 610 -105 callsubr
          endchar
        </CharString>
        <CharString name="hookabovecomb.case">
          -238 726 rmoveto
          96 hlineto
          14 5 5 26 8 vhcurveto
          12 3 rlineto
          46 13 29 11 63 vvcurveto
          100 -65 4 -66 callgsubr
          2 26 hhcurveto
          45 14 0 -27 -19 callgsubr
          hvcurveto
          15 callsubr
          endchar
        </CharString>
        <CharString name="house">
          164 43 hmoveto
          682 420 hlineto
          -279 275 rlineto
          -124 hlineto
          -279 -275 rlineto
          131 -310 rmoveto
          272 vlineto
          210 215 210 -215 rlineto
          -272 vlineto
          endchar
        </CharString>
        <CharString name="hungarumlaut">
          -157 20 610 -70 callsubr
          109 116 rlineto
          4 -144 vlineto
          -74 -115 rlineto
          endchar
        </CharString>
        <CharString name="hyphen">
          15 callgsubr
        </CharString>
        <CharString name="i">
          22 callsubr
          -743 vmoveto
          -61 callgsubr
        </CharString>
        <CharString name="i.loclTRK">
          -308 73 -16 callgsubr
          -21 -729 rmoveto
          -61 callgsubr
        </CharString>
        <CharString name="iacute">
          -308 53 596 -101 callsubr
          -1 -601 rmoveto
          -61 callgsubr
        </CharString>
        <CharString name="iacute_j.loclNLD">
          -12 80 595 -101 callsubr
          296 -5 -101 callsubr
          -324 -600 rmoveto
          192 510 -192 hlineto
          219 -709 -74 callsubr
        </CharString>
        <CharString name="ibreve">
          -308 304 742 -100 callsubr
          -252 -742 rmoveto
          -61 callgsubr
        </CharString>
        <CharString name="icircumflex">
          -308 -29 -54 callsubr
          81 -603 rmoveto
          -61 callgsubr
        </CharString>
        <CharString name="idieresis">
          -308 -33 -64 callgsubr
          -128 -730 rmoveto
          -61 callgsubr
        </CharString>
        <CharString name="igrave">
          -308 113 596 -85 callsubr
          74 -738 rmoveto
          -61 callgsubr
        </CharString>
        <CharString name="ij">
          -12 5 callgsubr
          296 -142 -39 callgsubr
          -296 -743 rmoveto
          192 510 -192 hlineto
          219 -709 -74 callsubr
        </CharString>
        <CharString name="imacron">
          -308 5 595 -64 callsubr
          47 -742 rmoveto
          -61 callgsubr
        </CharString>
        <CharString name="infinity">
          432 284 34 rmoveto
          130 67 57 68 38 hvcurveto
          -68 38 67 -57 130 hhcurveto
          192 44 79 143 141 -44 81 -192 -130 -67 -58 -67 -38 hvcurveto
          67 -38 -67 58 -130 hhcurveto
          -191 -48 -81 -141 -143 48 -79 191 hvcurveto
          10 124 rmoveto
          -86 -23 24 74 73 23 25 86 99 30 -49 -49 23 hvcurveto
          -49 -23 -30 -49 -99 hhcurveto
          451 hmoveto
          -100 -31 49 49 -22 hvcurveto
          49 22 31 49 100 hhcurveto
          84 23 -25 -73 -74 -23 -24 -84 hvcurveto
          endchar
        </CharString>
        <CharString name="integral">
          -129 43 -190 rmoveto
          236 74 5 153 16 -1 17 -3 43 hvcurveto
          -36 449 rlineto
          -1 14 0 11 8 vvcurveto
          41 21 3 97 vhcurveto
          126 vlineto
          -236 -74 -5 -154 -20 1 -16 1 -15 hvcurveto
          34 -444 rlineto
          4 -45 1 -11 -6 vvcurveto
          -41 -21 -3 -97 vhcurveto
          endchar
        </CharString>
        <CharString name="iogonek">
          -308 222 730 -27 callgsubr
          22 -612 rmoveto
          510 -192 -510 40 vlineto
          -37 -33 -25 -37 -41 vvcurveto
          -44 30 -41 107 22 32 2 2 23 vhcurveto
          88 vlineto
          -7 -6 -1 -4 hhcurveto
          -37 -10 15 16 30 30 31 34 13 hvcurveto
          endchar
        </CharString>
        <CharString name="itilde">
          -308 347 742 rmoveto
          -89 -103 callgsubr
          96 -47 callgsubr
          -295 -742 rmoveto
          -61 callgsubr
        </CharString>
        <CharString name="j">
          22 callsubr
          -77 -942 -74 callsubr
        </CharString>
        <CharString name="jcircumflex">
          -308 -29 595 -104 callsubr
          4 -801 -74 callsubr
        </CharString>
        <CharString name="k">
          -32 callsubr
          421 -189 -743 189 184 19 hlineto
          endchar
        </CharString>
        <CharString name="kcommaaccent">
          -32 callsubr
          421 -189 -743 189 184 19 hlineto
          -61 -406 rmoveto
          -87 callgsubr
        </CharString>
        <CharString name="kgreenlandic">
          -32 callsubr
          188 -189 -510 189 184 19 hlineto
          endchar
        </CharString>
        <CharString name="l">
          -308 52 -13 callgsubr
          endchar
        </CharString>
        <CharString name="lacute">
          -308 80 773 -101 callsubr
          -28 -778 rmoveto
          192 743 -192 hlineto
          endchar
        </CharString>
        <CharString name="lcaron">
          -210 52 -13 callgsubr
          223 -319 -29 callgsubr
          endchar
        </CharString>
        <CharString name="lcommaaccent">
          -308 52 -13 callgsubr
          1 -965 rmoveto
          -87 callgsubr
        </CharString>
        <CharString name="ldot">
          -182 52 -13 callgsubr
          225 -524 rmoveto
          167 161 -167 hlineto
          endchar
        </CharString>
        <CharString name="leftOpenDialog">
          21 626 628 rmoveto
          60 -626 -688 626 60 -566 568 vlineto
          endchar
        </CharString>
        <CharString name="less">
          -63 471 45 rmoveto
          131 vlineto
          -241 77 241 76 rlineto
          132 vlineto
          -400 -143 rlineto
          -131 vlineto
          endchar
        </CharString>
        <CharString name="lessequal">
          -63 470 174 rmoveto
          131 vlineto
          -241 77 241 77 rlineto
          131 vlineto
          -400 -143 rlineto
          -131 vlineto
          -317 vmoveto
          6 callgsubr
          endchar
        </CharString>
        <CharString name="logicalnot">
          -65 338 53 rmoveto
          131 266 -399 -132 268 hlineto
          endchar
        </CharString>
        <CharString name="longs">
          -183 107 hmoveto
          192 555 hlineto
          57 7 4 110 vhcurveto
          126 vlineto
          -261 -48 -5 -205 hvcurveto
          -22 -88 -139 88 vlineto
          endchar
        </CharString>
        <CharString name="lozenge">
          -64 201 hmoveto
          138 hlineto
          169 344 -169 344 rlineto
          -138 hlineto
          -169 -344 rlineto
          238 -232 rmoveto
          -105 232 105 232 105 -232 rlineto
          endchar
        </CharString>
        <CharString name="lslash">
          -281 65 hmoveto
          192 348 hlineto
          55 20 rlineto
          131 vlineto
          -55 -20 rlineto
          264 -192 -329 vlineto
          -55 -20 rlineto
          -130 vlineto
          55 20 rlineto
          endchar
        </CharString>
        <CharString name="m">
          262 625 hmoveto
          16 callgsubr
          -20 72 -127 -51 -56 -14 -53 -32 vhcurveto
          -10 hlineto
          47 -18 -38 20 -77 hhcurveto
          -51 -55 -14 -53 -32 hvcurveto
          -40 callgsubr
          -510 189 268 hlineto
          87 3 10 48 42 5 -3 -93 vhcurveto
          -269 188 268 vlineto
          87 3 10 48 42 5 -3 -93 vhcurveto
          endchar
        </CharString>
        <CharString name="macron">
          -225 47 596 -64 callsubr
          endchar
        </CharString>
        <CharString name="minus">
          -64 70 186 rmoveto
          400 133 -400 hlineto
          endchar
        </CharString>
        <CharString name="minute">
          -309 48 364 -4 callsubr
          endchar
        </CharString>
        <CharString name="multiply">
          -78 262 160 rmoveto
          101 -101 93 95 -100 100 100 101 -92 93 -100 -100 -101 101 -94 -95 101 -101 -99 -100 92 -93 rlineto
          endchar
        </CharString>
        <CharString name="n">
          -15 348 hmoveto
          -90 callgsubr
          endchar
        </CharString>
        <CharString name="nacute">
          -15 227 595 -101 callsubr
          121 -600 rmoveto
          -90 callgsubr
          endchar
        </CharString>
        <CharString name="nacute.loclPLK">
          -15 227 -59 callgsubr
          121 -601 rmoveto
          -90 callgsubr
          endchar
        </CharString>
        <CharString name="napostrophe">
          150 -6 callgsubr
          492 -542 rmoveto
          -90 callgsubr
          endchar
        </CharString>
        <CharString name="ncaron">
          -15 209 595 -99 callgsubr
          230 -734 rmoveto
          -90 callgsubr
          endchar
        </CharString>
        <CharString name="ncommaaccent">
          -15 348 hmoveto
          -90 callgsubr
          -148 -491 rmoveto
          -87 callgsubr
        </CharString>
        <CharString name="nine">
          60 313 -8 rmoveto
          144 79 28 80 43 hvcurveto
          27 50 10 81 113 vvcurveto
          99 -5 71 -18 57 vhcurveto
          106 -31 -78 19 -164 hhcurveto
          -225 -50 -71 -170 -172 79 -34 141 94 34 32 15 13 -31 callsubr
        </CharString>
        <CharString name="nine.dnom">
          -226 177 -4 -60 callgsubr
        </CharString>
        <CharString name="nine.numr">
          -226 177 304 -60 callgsubr
        </CharString>
        <CharString name="nine.ss01">
          41 109 hmoveto
          233 hlineto
          131 107 141 177 162 vvcurveto
          148 -43 102 -250 -250 -41 -91 -133 -117 22 -104 184 40 38 6 9 33 vhcurveto
          3 -5 -53 -91 -104 -98 -84 -65 rlinecurve
          212 393 rmoveto
          -80 -17 6 67 66 17 6 80 66 24 -2 -77 -49 -10 -17 -80 hvcurveto
          endchar
        </CharString>
        <CharString name="nine.tnum">
          55 310 -8 rmoveto
          160 79 36 82 31 hvcurveto
          26 67 7 71 96 vvcurveto
          146 -12 87 -34 44 vhcurveto
          64 -47 -75 11 -128 hhcurveto
          -225 -50 -71 -170 -172 78 -34 141 80 40 20 27 22 -31 callsubr
        </CharString>
        <CharString name="notequal">
          -64 240 80 rmoveto
          230 132 -8 callsubr
          38 81 rlineto
          131 132 -71 hlineto
          41 85 rlineto
          -110 hlineto
          -41 -85 rlineto
          -219 -132 159 hlineto
          -38 -81 rlineto
          -121 -132 60 hlineto
          -38 -80 rlineto
          110 hlineto
          endchar
        </CharString>
        <CharString name="ntilde">
          -15 498 743 rmoveto
          -90 -103 callgsubr
          97 -47 callgsubr
          -150 -743 rmoveto
          -90 callgsubr
          endchar
        </CharString>
        <CharString name="numbersign">
          100 326 hmoveto
          122 hlineto
          39 170 rlineto
          127 113 -102 hlineto
          29 122 rlineto
          110 112 -85 26 callsubr
          -112 26 callsubr
          -127 -112 101 hlineto
          -28 -122 rlineto
          -110 -113 84 hlineto
          -39 -170 rlineto
          122 hlineto
          39 170 rlineto
          111 hlineto
          54 235 rmoveto
          -28 -122 rlineto
          -112 hlineto
          29 122 rlineto
          endchar
        </CharString>
        <CharString name="o">
          -33 285 -8 -105 callgsubr
          endchar
        </CharString>
        <CharString name="oacute">
          -33 209 596 -101 callsubr
          76 -609 -105 callgsubr
          endchar
        </CharString>
        <CharString name="oacute.loclPLK">
          -33 218 -59 callgsubr
          67 -609 -105 callgsubr
          endchar
        </CharString>
        <CharString name="obreve">
          -33 442 742 -100 callsubr
          -157 -750 -105 callgsubr
          endchar
        </CharString>
        <CharString name="ocircumflex">
          -33 111 -54 callsubr
          174 -611 -105 callgsubr
          endchar
        </CharString>
        <CharString name="odieresis">
          -33 107 -64 callgsubr
          -35 -738 -105 callgsubr
          endchar
        </CharString>
        <CharString name="oe">
          266 829 254 rmoveto
          196 -2 68 -220 -71 -54 -13 -29 -39 vhcurveto
          30 -36 -53 12 -75 hhcurveto
          -231 -11 -57 -206 -206 11 -57 231 76 54 13 29 37 hvcurveto
          -29 41 59 -13 80 hhcurveto
          67 77 8 11 39 hvcurveto
          127 vlineto
          -4 -52 -63 -4 -35 hhcurveto
          -117 -7 5 80 hvcurveto
          294 hlineto
          -235 176 rmoveto
          51 9 -5 -87 hvcurveto
          -119 hlineto
          86 7 6 52 vhcurveto
          -309 -260 -46 callgsubr
        </CharString>
        <CharString name="ogonek">
          -391 213 -192 rmoveto
          -24 callsubr
        </CharString>
        <CharString name="ograve">
          -33 228 596 -85 callsubr
          192 -746 -105 callgsubr
          endchar
        </CharString>
        <CharString name="ohorn">
          -33 478 599 rmoveto
          -24 vlineto
          -49 -7 -16 -61 vhcurveto
          -6 hlineto
          6 -31 -39 2 -49 33 callsubr
          17 callsubr
          237 13 57 206 92 -3 62 -23 41 hvcurveto
          77 13 12 39 82 vvcurveto
          15 vlineto
          -313 -468 -46 callgsubr
        </CharString>
        <CharString name="ohungarumlaut">
          -33 138 609 -70 callsubr
          108 116 rlineto
          4 -143 vlineto
          -74 -115 rlineto
          -42 -622 -105 callgsubr
          endchar
        </CharString>
        <CharString name="omacron">
          -33 143 595 -64 callsubr
          142 -750 -105 callgsubr
          endchar
        </CharString>
        <CharString name="one">
          -204 133 hmoveto
          -20 callgsubr
          -141 hlineto
          -187 -94 rlineto
          -156 vlineto
          122 49 rlineto
          endchar
        </CharString>
        <CharString name="one.dnom">
          -374 76 hmoveto
          14 callsubr
        </CharString>
        <CharString name="one.numr">
          -374 76 308 rmoveto
          14 callsubr
        </CharString>
        <CharString name="one.tnum">
          55 95 hmoveto
          508 154 -143 534 -142 hlineto
          -218 -97 rlineto
          -153 vlineto
          154 49 rlineto
          -333 -159 vlineto
          endchar
        </CharString>
        <CharString name="oneeighth">
          236 -46 callsubr
          -15 -562 rmoveto
          114 hlineto
          448 -27 callsubr
          -114 hlineto
          103 -692 -95 callgsubr
        </CharString>
        <CharString name="onehalf">
          211 -46 callsubr
          433 126 rmoveto
          -448 -688 rlineto
          114 hlineto
          448 -27 callsubr
          -40 -585 rmoveto
          14 8 7 22 7 vhcurveto
          25 8 22 7 26 10 rrcurveto
          42 15 24 27 72 vvcurveto
          100 -64 12 -78 -45 -59 -5 -7 -36 vhcurveto
          -94 vlineto
          5 38 50 4 25 hhcurveto
          35 9 -1 -19 -20 -3 -3 -24 -10 hvcurveto
          -28 -12 -25 -8 -33 -14 rrcurveto
          -50 -22 -2 -36 -81 vvcurveto
          -59 290 100 -169 vlineto
          endchar
        </CharString>
        <CharString name="onequarter">
          167 -46 callsubr
          -15 -562 rmoveto
          114 hlineto
          448 -27 callsubr
          -114 hlineto
          38 -688 rmoveto
          122 63 42 98 -42 76 -73 hlineto
          -38 -76 rlineto
          -53 hlineto
          126 215 rlineto
          -135 hlineto
          -118 -230 rlineto
          -83 169 vlineto
          endchar
        </CharString>
        <CharString name="ordfeminine">
          -183 134 312 rmoveto
          37 36 4 45 29 hvcurveto
          6 hlineto
          4 -43 rlineto
          133 222 hlineto
          105 -11 51 -166 -51 -54 -5 -9 -45 vhcurveto
          -93 vlineto
          3 56 27 2 23 hhcurveto
          76 8 -1 -45 hvcurveto
          -13 vlineto
          1 -30 -46 2 -17 hhcurveto
          -95 -22 -29 -83 -77 34 -37 68 hvcurveto
          64 93 rmoveto
          -36 -3 8 26 32 4 5 33 hvcurveto
          46 -18 hlineto
          -19 -1 -14 -4 -6 vhcurveto
          -11 -8 -11 -3 -20 hhcurveto
          endchar
        </CharString>
        <CharString name="ordmasculine">
          -163 220 313 rmoveto
          155 25 30 161 162 -25 30 -155 -154 -25 -30 -162 -161 25 -30 154 hvcurveto
          101 vmoveto
          -43 0 7 83 84 0 7 43 43 1 -7 -84 -83 -1 -7 -43 hvcurveto
          endchar
        </CharString>
        <CharString name="orn.001">
          -267 289 341 rmoveto
          105 -6 17 -117 -112 -6 -17 -105 -102 6 -16 112 117 6 16 102 vhcurveto
          endchar
        </CharString>
        <CharString name="orn.002">
          -55 210 -50 callgsubr
          63 101 -41 callgsubr
          121 87 3 callgsubr
          -29 -21 22 28 29 21 21 29 28 22 -21 -29 -28 -22 -22 -28 hvcurveto
          endchar
        </CharString>
        <CharString name="orn.003">
          -189 211 -50 callgsubr
          63 101 -41 callgsubr
          63 101 -12 callsubr
          endchar
        </CharString>
        <CharString name="orn.007">
          -267 168 222 rmoveto
          67 54 53 67 67 -54 54 -67 -67 -53 -54 -67 -67 53 -53 67 hvcurveto
          endchar
        </CharString>
        <CharString name="orn.010">
          190 397 hmoveto
          352 348 hlineto
          25 callsubr
          -207 -145 -143 -205 -204 145 -144 207 vhcurveto
          endchar
        </CharString>
        <CharString name="orn.015">
          18 callsubr
          187 60 -187 hlineto
          187 -272 rmoveto
          213 212 rlineto
          167 60 38 callgsubr
        </CharString>
        <CharString name="orn.016">
          18 callsubr
          567 60 -567 hlineto
          endchar
        </CharString>
        <CharString name="orn.017">
          -544 0 vmoveto
          60 688 -60 hlineto
          endchar
        </CharString>
        <CharString name="orn.018">
          188 211 -50 callgsubr
          370 hmoveto
          99 62 67 110 126 vvcurveto
          125 -67 111 -99 62 vhcurveto
          -32 -51 rlineto
          82 -51 56 -92 -104 vvcurveto
          -105 -55 -91 -83 -52 vhcurveto
          -275 51 -41 callgsubr
          244 hmoveto
          65 41 44 73 83 vvcurveto
          83 -44 73 -66 41 vhcurveto
          -32 -51 rlineto
          49 -31 33 -54 -61 vvcurveto
          -62 -33 -53 -48 -31 vhcurveto
          -149 50 -12 callsubr
          118 hmoveto
          -9 callgsubr
        </CharString>
        <CharString name="orn.019">
          -55 338 -43 callgsubr
          -89 36 3 callgsubr
          -28 -22 22 28 29 22 21 28 29 21 -21 -29 -28 -21 -22 -29 hvcurveto
          endchar
        </CharString>
        <CharString name="orn.020">
          -189 204 -43 callgsubr
          -31 50 rmoveto
          -9 callgsubr
        </CharString>
        <CharString name="orn.021">
          149 376 -116 rmoveto
          142 77 190 194 209 vvcurveto
          188 -149 144 -183 -183 -148 -144 -188 -208 190 -195 141 -77 vhcurveto
          endchar
        </CharString>
        <CharString name="orn.022">
          -215 171 220 rmoveto
          98 80 83 40 40 -80 83 -98 -81 -42 -55 -68 -68 42 -55 81 hvcurveto
          endchar
        </CharString>
        <CharString name="oslash">
          -33 38 -55 -59 callsubr
        </CharString>
        <CharString name="oslash.bold">
          -33 486 477 rmoveto
          49 88 rlineto
          -153 hlineto
          -27 -49 rlineto
          1 -21 -23 1 -26 33 callsubr
          -116 4 -69 45 -38 hvcurveto
          -48 -87 rlineto
          151 hlineto
          27 49 rlineto
          -1 21 23 -1 25 hhcurveto
          237 13 57 206 115 -4 69 -45 38 hvcurveto
          -207 -98 rmoveto
          -54 -97 rlineto
          87 5 9 49 1 vhcurveto
          14 -248 rmoveto
          53 95 -1 -84 -5 -10 -47 -1 rlinecurve
          endchar
        </CharString>
        <CharString name="oslashacute">
          -33 218 595 -101 callsubr
          -180 -655 -59 callsubr
        </CharString>
        <CharString name="otilde">
          -33 488 743 rmoveto
          -90 -103 callgsubr
          97 -47 callgsubr
          -203 -751 -105 callgsubr
          endchar
        </CharString>
        <CharString name="p">
          -20 52 -199 rmoveto
          189 251 1 callgsubr
          -54 -11 -56 -30 hvcurveto
          -10 hlineto
          -4 59 rlineto
          -182 hlineto
          247 -366 rmoveto
          -30 -15 4 25 -8 hvcurveto
          -4 15 -1 27 40 vvcurveto
          39 1 26 5 18 vhcurveto
          23 7 14 5 31 4 callsubr
        </CharString>
        <CharString name="paragraph">
          49 287 -144 rmoveto
          117 832 -117 hlineto
          -233 -11 -31 -203 -203 11 -29 233 hvcurveto
          182 -366 rmoveto
          118 832 -118 hlineto
          endchar
        </CharString>
        <CharString name="parenleft">
          -234 229 -150 -72 callsubr
          -77 102 -41 45 300 vvcurveto
          298 41 46 77 102 vhcurveto
          -120 hlineto
          -127 -126 -43 -58 -262 vvcurveto
          -263 43 -48 127 -136 vhcurveto
          endchar
        </CharString>
        <CharString name="parenleft.ss02">
          13 callsubr
          -204 145 -144 207 hvcurveto
          endchar
        </CharString>
        <CharString name="parenright">
          -234 21 -150 -72 callsubr
          127 136 43 48 263 vvcurveto
          262 -43 58 -127 126 vhcurveto
          -120 hlineto
          77 -102 41 -46 -298 vvcurveto
          -300 -41 -45 -77 -102 vhcurveto
          endchar
        </CharString>
        <CharString name="parenright.ss02">
          -207 0 vmoveto
          207 145 144 204 25 callsubr
          hvcurveto
          endchar
        </CharString>
        <CharString name="partialdiff">
          31 callsubr
          75 -7 64 -14 72 hvcurveto
          -25 125 -62 80 -77 69 rrcurveto
          -202 -4 hlineto
          62 -56 65 -67 37 -106 -4 -3 rcurveline
          7 -27 -33 4 -20 hhcurveto
          -169 -22 -68 -195 -15 callsubr
        </CharString>
        <CharString name="percent">
          289 200 311 rmoveto
          137 18 26 166 167 -18 26 -137 -137 -16 -26 -167 -166 16 -26 137 hvcurveto
          -33 -311 rmoveto
          111 hlineto
          449 -27 callsubr
          -112 hlineto
          -415 -295 rmoveto
          -44 0 3 107 108 0 27 callsubr
          492 -401 rmoveto
          137 17 26 166 167 -17 26 -137 -137 -17 -26 -167 -166 17 -26 137 hvcurveto
          82 vmoveto
          -44 -1 3 107 108 1 27 callsubr
          endchar
        </CharString>
        <CharString name="period">
          -280 64 hmoveto
          196 161 -196 hlineto
          endchar
        </CharString>
        <CharString name="periodcentered">
          -280 64 219 -92 callsubr
        </CharString>
        <CharString name="perthousand">
          441 181 360 rmoveto
          124 11 23 145 144 -11 24 -124 -123 -11 -24 -144 -145 11 -23 123 hvcurveto
          -98 -360 rmoveto
          111 hlineto
          461 -27 callsubr
          -112 hlineto
          -362 -257 rmoveto
          -39 0 4 93 93 0 4 39 40 0 -4 -93 -93 -1 -4 -39 hvcurveto
          375 -439 rmoveto
          -5 callgsubr
          307 hmoveto
          -5 callgsubr
          -307 71 rmoveto
          10 callsubr
          307 hmoveto
          10 callsubr
          endchar
        </CharString>
        <CharString name="pi">
          -16 342 hmoveto
          192 510 -479 -510 192 371 95 hlineto
          endchar
        </CharString>
        <CharString name="plus">
          -64 203 52 rmoveto
          132 134 135 133 -135 134 -132 -134 -133 -133 133 hlineto
          endchar
        </CharString>
        <CharString name="plusminus">
          -64 203 190 rmoveto
          132 134 135 132 -135 135 -132 -135 -133 -132 133 hlineto
          -133 -325 rmoveto
          6 callgsubr
          endchar
        </CharString>
        <CharString name="product">
          110 445 -189 rmoveto
          207 877 -589 -877 207 726 175 hlineto
          endchar
        </CharString>
        <CharString name="q">
          -20 343 -199 rmoveto
          189 709 -182 hlineto
          -4 -59 rlineto
          -10 hlineto
          56 -30 -54 11 -55 hhcurveto
          -113 -47 -54 -208 -206 48 -57 113 54 48 8 51 34 hvcurveto
          9 hlineto
          -58 92 rmoveto
          -57 -3 5 106 106 3 5 57 28 14 -4 -18 8 hvcurveto
          7 -18 1 -28 -43 vvcurveto
          -45 -1 -28 -6 -13 vhcurveto
          -21 -8 -14 -4 -29 hhcurveto
          endchar
        </CharString>
        <CharString name="question">
          -58 callgsubr
        </CharString>
        <CharString name="question.case">
          -58 callgsubr
        </CharString>
        <CharString name="questiondown">
          -140 205 349 -55 callgsubr
        </CharString>
        <CharString name="questiondown.case">
          -84 208 527 -55 callgsubr
        </CharString>
        <CharString name="quotedbl">
          -88 13 callgsubr
          239 -214 rmoveto
          127 hlineto
          19 214 rlineto
          50 -165 -50 vlineto
          endchar
        </CharString>
        <CharString name="quotedblbase">
          -49 61 -80 -37 callsubr
        </CharString>
        <CharString name="quotedblleft">
          -49 -4 callgsubr
          240 -116 rmoveto
          185 151 -65 15 hlineto
          50 8 15 60 vhcurveto
          67 vlineto
          -167 -21 -39 -143 hvcurveto
          endchar
        </CharString>
        <CharString name="quotedblright">
          -49 61 458 -37 callsubr
        </CharString>
        <CharString name="quoteleft">
          -289 -4 callgsubr
          endchar
        </CharString>
        <CharString name="quoteright">
          -289 61 458 -48 callgsubr
          endchar
        </CharString>
        <CharString name="quotesinglbase">
          -289 61 -80 -48 callgsubr
          endchar
        </CharString>
        <CharString name="quotesingle">
          -309 13 callgsubr
          endchar
        </CharString>
        <CharString name="r">
          -15 callgsubr
          endchar
        </CharString>
        <CharString name="racute">
          -180 144 595 -101 callsubr
          -92 -600 rmoveto
          -77 callsubr
          endchar
        </CharString>
        <CharString name="radical">
          172 278 -106 rmoveto
          224 hlineto
          227 876 -33 callgsubr
          -179 -716 -146 302 -205 -88 35 -85 59 25 rlineto
          endchar
        </CharString>
        <CharString name="rcaron">
          -180 126 595 -99 callgsubr
          17 -734 rmoveto
          -77 callsubr
          endchar
        </CharString>
        <CharString name="rcommaaccent">
          -15 callgsubr
          -732 vmoveto
          -87 callgsubr
        </CharString>
        <CharString name="registered">
          148 376 696 rmoveto
          27 callgsubr
          28 callgsubr
          hvcurveto
          -637 -7 callgsubr
          152 348 rmoveto
          80 -14 42 -104 vhcurveto
          -182 -370 106 126 45 hlineto
          5 hlineto
          41 -126 rlineto
          111 hlineto
          -53 -53 callsubr
          39 19 6 40 49 vvcurveto
          -194 39 rmoveto
          43 hlineto
          42 2 -5 -36 -37 -4 -4 -41 hvcurveto
          -42 hlineto
          endchar
        </CharString>
        <CharString name="rightCloseDialog">
          19 624 688 rmoveto
          -625 -60 565 -568 -190 hlineto
          -188 -187 rlineto
          -85 vlineto
          213 212 rlineto
          225 hlineto
          -438 60 rmoveto
          -187 -60 187 hlineto
          endchar
        </CharString>
        <CharString name="rightOpenDialog">
          20 625 688 rmoveto
          -626 -60 566 -568 -566 -60 626 hlineto
          endchar
        </CharString>
        <CharString name="ring">
          -262 170 592 -91 callsubr
          endchar
        </CharString>
        <CharString name="s">
          -62 callgsubr
          endchar
        </CharString>
        <CharString name="sacute">
          -103 182 595 -101 callsubr
          80 -608 -97 callsubr
          endchar
        </CharString>
        <CharString name="sacute.loclPLK">
          -103 182 -59 callgsubr
          80 -609 -97 callsubr
          endchar
        </CharString>
        <CharString name="scaron">
          -103 168 596 -99 callgsubr
          185 -743 -97 callsubr
          endchar
        </CharString>
        <CharString name="scedilla">
          -103 469 160 rmoveto
          128 -43 19 -66 9 vhcurveto
          -110 13 rlineto
          -43 5 -1 3 21 vvcurveto
          25 10 2 85 27 59 -3 -5 54 38 callsubr
          8 -43 -80 6 -68 hhcurveto
          -123 -95 -14 -142 -93 12 -59 81 -11 hvcurveto
          119 -15 rlineto
          48 -6 3 -2 -20 vvcurveto
          -27 -3 -4 -96 -38 -64 4 4 -46 34 callsubr
          37 -5 50 -4 49 -3 -74 -178 rcurveline
          33 callgsubr
          rlineto
          93 5 66 27 135 vvcurveto
          endchar
        </CharString>
        <CharString name="scircumflex">
          -103 73 595 -104 callsubr
          189 -610 -97 callsubr
          endchar
        </CharString>
        <CharString name="scommaaccent">
          -62 callgsubr
          -107 -214 rmoveto
          -87 callgsubr
        </CharString>
        <CharString name="second">
          -87 48 364 -4 callsubr
          195 -324 -4 callsubr
          endchar
        </CharString>
        <CharString name="section">
          85 329 -171 rmoveto
          131 104 20 150 30 -4 26 -7 22 hvcurveto
          80 20 20 46 110 vvcurveto
          136 -45 18 -92 29 vhcurveto
          -153 46 rlineto
          -51 16 -3 1 21 vvcurveto
          24 11 3 55 77 79 -4 -3 31 vhcurveto
          139 vlineto
          6 -25 -79 11 -99 hhcurveto
          -131 -103 -20 -150 -31 2 -27 7 -21 hvcurveto
          -80 -20 -19 -46 -110 vvcurveto
          -136 44 -18 101 -31 vhcurveto
          151 -45 rlineto
          44 -14 4 -2 -20 vvcurveto
          -24 -10 -3 -57 -76 -77 4 2 -32 vhcurveto
          -138 vlineto
          -6 25 79 -11 98 hhcurveto
          129 344 rmoveto
          -4 -9 2 7 -21 hvcurveto
          -166 51 rlineto
          -38 11 -9 8 44 vvcurveto
          43 5 12 15 6 11 -4 -6 21 vhcurveto
          169 -52 rlineto
          30 -8 10 -9 -44 vvcurveto
          -43 -6 -12 -14 vhcurveto
          endchar
        </CharString>
        <CharString name="semicolon">
          -280 64 349 rmoveto
          196 161 -196 hlineto
          -4 -594 -6 callsubr
        </CharString>
        <CharString name="seven">
          -29 88 hmoveto
          224 hlineto
          232 546 rlineto
          142 -513 -156 299 vlineto
          endchar
        </CharString>
        <CharString name="seven.dnom">
          -276 51 hmoveto
          12 callsubr
        </CharString>
        <CharString name="seven.numr">
          -276 51 308 rmoveto
          12 callsubr
        </CharString>
        <CharString name="seven.tnum">
          55 129 hmoveto
          224 hlineto
          252 546 rlineto
          142 -553 -156 340 vlineto
          endchar
        </CharString>
        <CharString name="seveneighths">
          238 90 hmoveto
          -9 callsubr
          -487 -380 rmoveto
          128 hlineto
          129 299 rlineto
          80 -289 -87 168 vlineto
          461 -604 -95 callgsubr
        </CharString>
        <CharString name="six">
          60 344 -8 rmoveto
          225 50 71 170 172 -78 34 -141 -95 -34 -32 -15 -13 hvcurveto
          -6 hlineto
          130 17 20 119 37 76 -5 -7 78 vhcurveto
          143 vlineto
          14 -77 -94 9 -57 hhcurveto
          -158 -80 -34 -95 -37 hvcurveto
          -21 -52 -7 -73 -98 vvcurveto
          -121 9 -81 19 -41 vhcurveto
          -93 43 79 -16 146 37 callsubr
          7 19 75 73 16 -8 -67 -65 -16 -6 -73 hvcurveto
          endchar
        </CharString>
        <CharString name="six.dnom">
          -226 197 -4 -60 callsubr
        </CharString>
        <CharString name="six.numr">
          -226 197 304 -60 callsubr
        </CharString>
        <CharString name="six.ss01">
          41 324 -8 rmoveto
          249 41 91 133 116 -21 105 -185 -39 -39 -6 -9 -32 hvcurveto
          -3 5 52 90 104 99 85 65 rlinecurve
          7 -234 vlineto
          -134 -107 -138 -178 -161 vvcurveto
          -149 43 -101 251 vhcurveto
          150 vmoveto
          -67 -24 2 78 49 10 17 81 79 18 -6 -67 -66 -17 -7 -80 hvcurveto
          endchar
        </CharString>
        <CharString name="six.tnum">
          55 343 -8 rmoveto
          224 51 71 170 172 -79 34 -141 -78 -42 -20 -27 -22 hvcurveto
          -6 hlineto
          130 17 20 120 35 76 -5 -7 79 vhcurveto
          143 vlineto
          13 -72 -96 10 -59 hhcurveto
          -151 -79 -31 -82 -38 hvcurveto
          -27 -57 -9 -76 -106 vvcurveto
          -129 10 -82 23 -43 vhcurveto
          -85 45 78 -13 141 37 callsubr
          6 19 76 73 16 -8 -67 -65 -17 -6 -72 hvcurveto
          endchar
        </CharString>
        <CharString name="slash">
          -179 -11 -55 rmoveto
          155 hlineto
          291 798 rlineto
          -156 hlineto
          endchar
        </CharString>
        <CharString name="space">
          -346 endchar
        </CharString>
        <CharString name="sterling">
          4 321 154 rmoveto
          127 161 144 -161 vlineto
          56 5 30 24 17 vhcurveto
          12 15 29 2 47 hhcurveto
          23 52 -4 -5 42 hvcurveto
          145 vlineto
          10 -39 -71 8 -56 hhcurveto
          -223 -53 -73 -198 hvcurveto
          -75 -144 74 -127 -74 -154 528 154 hlineto
          endchar
        </CharString>
        <CharString name="summation">
          110 62 -189 rmoveto
          589 150 -341 hlineto
          263 288 -263 288 rlineto
          341 151 -589 -147 hlineto
          268 -292 -268 -291 rlineto
          endchar
        </CharString>
        <CharString name="t">
          -181 106 hmoveto
          -37 callgsubr
          endchar
        </CharString>
        <CharString name="tbar">
          -181 405 371 rmoveto
          139 -107 148 -192 -148 -88 -139 88 -88 -86 -128 86 -155 192 155 105 128 -105 88 vlineto
          endchar
        </CharString>
        <CharString name="tcaron">
          -55 433 424 -29 callgsubr
          -338 -638 rmoveto
          -37 callgsubr
          endchar
        </CharString>
        <CharString name="thorn">
          -20 52 -189 rmoveto
          189 241 1 callgsubr
          -51 -11 -55 -30 hvcurveto
          -10 291 -189 hlineto
          247 -599 rmoveto
          -31 -15 4 28 -7 hvcurveto
          -4 13 -1 26 40 vvcurveto
          36 1 26 5 18 vhcurveto
          27 7 14 4 31 4 callsubr
        </CharString>
        <CharString name="three">
          5 275 -8 rmoveto
          233 52 74 118 5 callsubr
          40 43 100 vvcurveto
          117 -65 64 -214 -68 -95 -10 -12 -61 vhcurveto
          -145 vlineto
          7 53 82 6 58 hhcurveto
          89 14 -2 -57 -51 -11 -9 -60 hvcurveto
          -110 -151 110 37 callgsubr
          -86 5 7 -72 hvcurveto
          -144 vlineto
          -12 63 95 -10 69 hhcurveto
          endchar
        </CharString>
        <CharString name="three.dnom">
          -256 158 -4 -56 callsubr
        </CharString>
        <CharString name="three.numr">
          -256 158 304 -56 callsubr
        </CharString>
        <CharString name="three.tnum">
          55 300 -8 rmoveto
          233 52 74 118 5 callsubr
          39 43 100 vvcurveto
          117 -64 64 -214 -68 -95 -10 -12 -62 vhcurveto
          -145 vlineto
          7 53 82 6 59 hhcurveto
          89 14 -2 -57 -51 -12 -9 -59 hvcurveto
          -111 -151 111 37 callgsubr
          -87 5 7 -72 hvcurveto
          -144 vlineto
          -12 64 95 -10 69 hhcurveto
          endchar
        </CharString>
        <CharString name="threeeighths">
          299 158 304 rmoveto
          130 31 39 67 62 -25 18 -46 11 hvcurveto
          3 vlineto
          45 10 22 24 54 vvcurveto
          66 -36 34 -121 -37 -55 -5 -7 -35 vhcurveto
          -82 vlineto
          5 32 45 2 32 hhcurveto
          49 9 -1 -30 -27 -7 -5 -33 hvcurveto
          -62 -84 62 hlineto
          34 8 -3 -33 -31 -11 -1 -43 -28 -48 3 4 -41 hvcurveto
          -81 vlineto
          -7 37 54 -5 38 hhcurveto
          -7 -304 rmoveto
          -9 callsubr
          111 -692 -95 callgsubr
        </CharString>
        <CharString name="threequarters">
          232 38 410 rmoveto
          9 callgsubr
          131 29 43 68 50 -22 25 25 callgsubr
          27 46 vvcurveto
          67 -37 37 -119 -39 23 callgsubr
          41 6 3 callsubr
          -41 3 5 -54 hvcurveto
          108 -410 rmoveto
          115 hlineto
          448 -27 callsubr
          -114 hlineto
          37 -688 rmoveto
          123 63 42 98 -42 76 -74 hlineto
          -37 -76 rlineto
          -54 hlineto
          127 215 rlineto
          -135 hlineto
          -119 -230 rlineto
          -83 169 vlineto
          endchar
        </CharString>
        <CharString name="tilde">
          -164 420 743 rmoveto
          -90 -103 callgsubr
          97 -47 callgsubr
          endchar
        </CharString>
        <CharString name="tildecomb">
          -20 743 rmoveto
          -90 -103 callgsubr
          97 -47 callgsubr
          endchar
        </CharString>
        <CharString name="tildecomb.case">
          -20 888 rmoveto
          -90 -103 callgsubr
          97 -47 callgsubr
          endchar
        </CharString>
        <CharString name="trademark">
          211 154 388 rmoveto
          96 217 92 83 -278 -83 90 hlineto
          224 -217 rmoveto
          89 186 4 hlineto
          63 -186 rlineto
          57 hlineto
          64 186 rlineto
          4 -186 90 300 -129 hlineto
          -52 -160 rlineto
          -6 hlineto
          -55 160 rlineto
          -129 hlineto
          endchar
        </CharString>
        <CharString name="two">
          9 244 163 rmoveto
          22 1 13 7 11 vhcurveto
          6 10 14 6 17 -21 callgsubr
          78 19 -14 callsubr
        </CharString>
        <CharString name="two.dnom">
          -254 142 91 -56 callgsubr
        </CharString>
        <CharString name="two.numr">
          -254 142 399 -56 callgsubr
        </CharString>
        <CharString name="two.tnum">
          55 269 163 rmoveto
          23 1 13 7 10 vhcurveto
          7 10 15 6 15 -21 callgsubr
          77 20 -14 callsubr
        </CharString>
        <CharString name="u">
          -15 356 hmoveto
          -102 callsubr
          endchar
        </CharString>
        <CharString name="uacute">
          -15 232 596 -101 callsubr
          124 -601 rmoveto
          -102 callsubr
          endchar
        </CharString>
        <CharString name="ubreve">
          -15 451 742 -100 callsubr
          -95 -742 rmoveto
          -102 callsubr
          endchar
        </CharString>
        <CharString name="ucircumflex">
          -15 118 -54 callsubr
          238 -603 rmoveto
          -102 callsubr
          endchar
        </CharString>
        <CharString name="udieresis">
          -15 114 -64 callgsubr
          29 -730 rmoveto
          -102 callsubr
          endchar
        </CharString>
        <CharString name="ugrave">
          -15 234 596 -85 callsubr
          257 -738 rmoveto
          -102 callsubr
          endchar
        </CharString>
        <CharString name="uhorn">
          -15 496 599 rmoveto
          -24 vlineto
          -49 -7 -16 -61 vhcurveto
          -80 -268 hlineto
          -98 callsubr
          4 -59 rlineto
          181 452 hlineto
          68 15 11 39 78 vvcurveto
          15 vlineto
          endchar
        </CharString>
        <CharString name="uhungarumlaut">
          -15 147 609 -70 callsubr
          108 116 rlineto
          4 -143 vlineto
          -74 -115 rlineto
          20 -614 rmoveto
          -102 callsubr
          endchar
        </CharString>
        <CharString name="umacron">
          -15 152 595 -64 callsubr
          204 -742 rmoveto
          -102 callsubr
          endchar
        </CharString>
        <CharString name="underscore">
          -207 -190 vmoveto
          397 132 -397 hlineto
          endchar
        </CharString>
        <CharString name="underscoredbl">
          -207 -165 vmoveto
          397 103 -397 hlineto
          -229 vmoveto
          397 103 -397 hlineto
          endchar
        </CharString>
        <CharString name="uni00AD">
          15 callgsubr
        </CharString>
        <CharString name="uni00B2">
          -234 161 417 rmoveto
          -44 callsubr
          99 -170 vlineto
          endchar
        </CharString>
        <CharString name="uni00B3">
          -237 167 305 rmoveto
          131 28 43 68 50 -21 25 25 callgsubr
          27 46 vvcurveto
          67 -38 37 -119 -38 23 callgsubr
          40 7 3 callsubr
          -42 3 5 -53 hvcurveto
          9 callgsubr
          endchar
        </CharString>
        <CharString name="uni00B5">
          -32 callgsubr
        </CharString>
        <CharString name="uni00B9">
          -337 -46 callsubr
          endchar
        </CharString>
        <CharString name="uni0162">
          -11 14 688 rmoveto
          -163 179 -525 41 21 callgsubr
          41 525 180 163 hlineto
          endchar
        </CharString>
        <CharString name="uni0163">
          -181 298 510 rmoveto
          148 -192 -148 -88 -139 88 -371 33 21 callgsubr
          35 371 107 139 hlineto
          endchar
        </CharString>
        <CharString name="uni018F">
          86 322 696 rmoveto
          -65 -82 -7 -9 -47 hvcurveto
          -148 vlineto
          5 41 60 4 44 hhcurveto
          128 24 -11 -106 4 hvcurveto
          -381 -80 hlineto
          -273 6 -79 285 291 6 79 273 269 -35 83 -279 vhcurveto
          17 -551 rmoveto
          -76 -12 4 122 -2 hvcurveto
          187 hlineto
          -122 -3 -13 -4 -81 hhcurveto
          endchar
        </CharString>
        <CharString name="uni019D">
          106 453 688 rmoveto
          -308 -6 vlineto
          -176 308 rlineto
          -211 -708 hlineto
          -36 -3 -16 -73 34 callsubr
          229 44 18 203 hvcurveto
          333 5 vlineto
          197 -355 rlineto
          191 688 hlineto
          endchar
        </CharString>
        <CharString name="uni01C4">
          693 897 740 -99 callgsubr
          -744 -879 2 callsubr
          657 -687 rmoveto
          538 155 -290 hlineto
          290 387 rlineto
          145 -527 -155 274 vlineto
          -285 -383 rlineto
          -452 6 7 callsubr
          endchar
        </CharString>
        <CharString name="uni01C5">
          604 862 595 -99 callgsubr
          -709 -734 2 callsubr
          205 -532 7 callsubr
          406 -155 rmoveto
          453 139 -217 hlineto
          215 240 rlineto
          130 -439 -138 202 vlineto
          -214 -240 rlineto
          endchar
        </CharString>
        <CharString name="uni01C6">
          510 197 -8 rmoveto
          55 54 11 56 30 hvcurveto
          10 hlineto
          4 -59 rlineto
          181 742 -188 -285 -26 callgsubr
          -206 -207 47 -54 113 hvcurveto
          566 603 -99 callgsubr
          -49 -734 rmoveto
          453 139 -217 hlineto
          215 240 rlineto
          130 -439 -138 202 vlineto
          -214 -240 rlineto
          -338 13 -69 callgsubr
          endchar
        </CharString>
        <CharString name="uni01C7">
          357 62 hmoveto
          -40 callsubr
          498 -543 -70 callgsubr
        </CharString>
        <CharString name="uni01C8">
          231 591 -34 callgsubr
          -529 -743 rmoveto
          -40 callsubr
          452 -887 -74 callsubr
        </CharString>
        <CharString name="uni01C9">
          -12 52 -13 callgsubr
          296 -142 -39 callgsubr
          -77 -942 -74 callsubr
        </CharString>
        <CharString name="uni01CA">
          528 459 hmoveto
          -81 callgsubr
          469 -210 -70 callgsubr
        </CharString>
        <CharString name="uni01CB">
          401 762 -34 callgsubr
          -303 -743 rmoveto
          -81 callgsubr
          423 -554 -74 callsubr
        </CharString>
        <CharString name="uni01CC">
          280 641 -34 callgsubr
          -293 -743 rmoveto
          -90 callgsubr
          216 -468 -74 callsubr
        </CharString>
        <CharString name="uni01CD">
          92 262 740 -99 callgsubr
          317 -879 rmoveto
          -104 callgsubr
          endchar
        </CharString>
        <CharString name="uni01CD.ss01">
          77 255 740 -99 callgsubr
          253 -879 rmoveto
          -107 callsubr
          endchar
        </CharString>
        <CharString name="uni01CE">
          -38 198 595 -99 callgsubr
          68 -742 -107 callgsubr
          endchar
        </CharString>
        <CharString name="uni01CF">
          -277 77 740 -99 callgsubr
          74 -879 -52 callgsubr
        </CharString>
        <CharString name="uni01D0">
          -308 62 595 -99 callgsubr
          81 -734 rmoveto
          -61 callgsubr
        </CharString>
        <CharString name="uni01D1">
          98 265 740 -99 callgsubr
          177 -887 -106 callsubr
          endchar
        </CharString>
        <CharString name="uni01D2">
          -33 200 595 -99 callgsubr
          176 -742 -105 callgsubr
          endchar
        </CharString>
        <CharString name="uni01D3">
          77 255 740 -99 callgsubr
          253 -191 -101 callgsubr
          endchar
        </CharString>
        <CharString name="uni01D4">
          -15 209 595 -99 callgsubr
          238 -734 rmoveto
          -102 callsubr
          endchar
        </CharString>
        <CharString name="uni01D5">
          77 200 912 rmoveto
          287 114 -287 hlineto
          -40 -270 -92 callgsubr
          44 -186 -101 callgsubr
          endchar
        </CharString>
        <CharString name="uni01D6">
          -15 154 755 -64 callsubr
          -40 -291 -92 callgsubr
          29 -729 rmoveto
          -102 callsubr
          endchar
        </CharString>
        <CharString name="uni01D7">
          22 callgsubr
          -114 hlineto
          128 135 -23 callsubr
          -88 -140 rlineto
          -110 -118 149 hlineto
          108 -68 -101 callgsubr
          endchar
        </CharString>
        <CharString name="uni01D8">
          -15 229 755 -101 callsubr
          -115 -149 -92 callgsubr
          29 -729 rmoveto
          -102 callsubr
          endchar
        </CharString>
        <CharString name="uni01D9">
          22 callgsubr
          -90 hlineto
          87 132 rlineto
          8 -119 vlineto
          -56 -76 -58 76 rlineto
          -120 -8 hlineto
          86 -132 rlineto
          -92 -118 149 hlineto
          108 -68 -101 callgsubr
          endchar
        </CharString>
        <CharString name="uni01DA">
          -15 211 755 -99 callgsubr
          -6 -283 -92 callgsubr
          29 -729 rmoveto
          -102 callsubr
          endchar
        </CharString>
        <CharString name="uni01DB">
          77 160 874 rmoveto
          -118 149 111 64 -111 149 118 -104 vlineto
          -88 -53 callsubr
          -178 -5 hlineto
          128 -135 rlineto
          137 -186 -101 callgsubr
          endchar
        </CharString>
        <CharString name="uni01DC">
          -15 236 755 -85 callsubr
          13 -286 -92 callgsubr
          29 -729 rmoveto
          -102 callsubr
          endchar
        </CharString>
        <CharString name="uni01EA">
          94 466 -196 rmoveto
          22 32 2 2 24 hvcurveto
          88 vlineto
          -8 -6 -1 -4 hhcurveto
          -37 -9 15 17 38 26 33 52 25 hvcurveto
          89 43 3 95 183 vvcurveto
          273 -6 79 -295 2 callgsubr
          vhcurveto
          28 hlineto
          -30 -32 -18 -35 -35 vvcurveto
          -45 30 -41 107 vhcurveto
          -117 342 -3 callgsubr
        </CharString>
        <CharString name="uni01EB">
          -33 285 518 rmoveto
          30 callsubr
          -209 11 -51 232 -3 hvcurveto
          8 hlineto
          -26 -32 -16 -35 -34 vvcurveto
          -46 30 -41 107 25 35 2 2 17 vhcurveto
          88 vlineto
          -6 -7 -1 -4 hhcurveto
          -39 -8 15 20 47 42 28 25 13 hvcurveto
          66 36 6 63 138 vvcurveto
          206 -13 57 -237 vhcurveto
          -60 -263 rmoveto
          116 0 8 60 60 1 -8 -116 -116 -1 -8 -60 -60 0 8 116 vhcurveto
          endchar
        </CharString>
        <CharString name="uni01F1">
          694 -23 callgsubr
          hlineto
          657 -688 rmoveto
          -73 callgsubr
          -452 6 rmoveto
          378 44 vlineto
          -30 callsubr
          endchar
        </CharString>
        <CharString name="uni01F2">
          605 62 hmoveto
          -68 callsubr
          406 -155 rmoveto
          -73 callsubr
          endchar
        </CharString>
        <CharString name="uni01F3">
          511 -71 callsubr
          426 8 rmoveto
          -73 callsubr
          -338 13 -69 callgsubr
          endchar
        </CharString>
        <CharString name="uni01F4">
          62 258 740 -101 callsubr
          167 -479 -94 callgsubr
          endchar
        </CharString>
        <CharString name="uni01F4.ss01">
          77 267 740 -101 callsubr
          97 -753 -94 callsubr
          endchar
        </CharString>
        <CharString name="uni01F5">
          -20 224 595 -101 callsubr
          41 -806 -102 callgsubr
        </CharString>
        <CharString name="uni0200">
          92 318 754 -96 callsubr
          88 -754 rmoveto
          -104 callgsubr
          endchar
        </CharString>
        <CharString name="uni0200.ss01">
          77 311 754 -96 callsubr
          24 -754 rmoveto
          -107 callsubr
          endchar
        </CharString>
        <CharString name="uni0201">
          -38 254 609 -96 callsubr
          -161 -617 -107 callgsubr
          endchar
        </CharString>
        <CharString name="uni0202">
          92 190 742 -88 callsubr
          298 -742 rmoveto
          -104 callgsubr
          endchar
        </CharString>
        <CharString name="uni0202.ss01">
          77 183 742 -88 callsubr
          234 -742 rmoveto
          -107 callsubr
          endchar
        </CharString>
        <CharString name="uni0203">
          -38 126 597 -88 callsubr
          49 -605 -107 callgsubr
          endchar
        </CharString>
        <CharString name="uni0204">
          6 276 754 -96 callsubr
          -296 -754 rmoveto
          -93 callgsubr
          endchar
        </CharString>
        <CharString name="uni0205">
          -47 249 609 -96 callsubr
          186 -355 -106 callgsubr
          endchar
        </CharString>
        <CharString name="uni0206">
          6 148 742 -88 callsubr
          -86 -742 rmoveto
          -93 callgsubr
          endchar
        </CharString>
        <CharString name="uni0207">
          -47 279 652 -36 callsubr
          238 -398 -106 callgsubr
          endchar
        </CharString>
        <CharString name="uni0208">
          -277 133 754 -96 callsubr
          -155 -754 -52 callgsubr
        </CharString>
        <CharString name="uni0209">
          -308 118 609 -96 callsubr
          -148 -609 rmoveto
          -61 callgsubr
        </CharString>
        <CharString name="uni020A">
          -277 5 742 -88 callsubr
          55 -742 -52 callgsubr
        </CharString>
        <CharString name="uni020B">
          -308 -10 597 -88 callsubr
          62 -597 rmoveto
          -61 callgsubr
        </CharString>
        <CharString name="uni020C">
          98 321 754 -96 callsubr
          -52 -762 -106 callsubr
          endchar
        </CharString>
        <CharString name="uni020D">
          -33 256 609 -96 callsubr
          -53 -617 -105 callgsubr
          endchar
        </CharString>
        <CharString name="uni020E">
          98 193 742 -88 callsubr
          158 -750 -106 callsubr
          endchar
        </CharString>
        <CharString name="uni020F">
          -33 128 597 -88 callsubr
          157 -605 -105 callgsubr
          endchar
        </CharString>
        <CharString name="uni0210">
          69 307 754 -96 callsubr
          253 -754 rmoveto
          -80 callgsubr
        </CharString>
        <CharString name="uni0210.ss01">
          70 307 754 -96 callsubr
          232 -583 -86 callgsubr
        </CharString>
        <CharString name="uni0211">
          -180 182 609 -96 callsubr
          -212 -609 rmoveto
          -77 callsubr
          endchar
        </CharString>
        <CharString name="uni0212">
          69 337 797 -36 callsubr
          305 -797 rmoveto
          -80 callgsubr
        </CharString>
        <CharString name="uni0212.ss01">
          70 337 797 -36 callsubr
          284 -626 -86 callgsubr
        </CharString>
        <CharString name="uni0213">
          -180 54 597 -88 callsubr
          -2 -597 rmoveto
          -77 callsubr
          endchar
        </CharString>
        <CharString name="uni0214">
          77 311 754 -96 callsubr
          24 -66 -101 callgsubr
          endchar
        </CharString>
        <CharString name="uni0215">
          -15 265 609 -96 callsubr
          9 -609 rmoveto
          -102 callsubr
          endchar
        </CharString>
        <CharString name="uni0216">
          77 183 742 -88 callsubr
          234 -54 -101 callgsubr
          endchar
        </CharString>
        <CharString name="uni0217">
          -15 137 597 -88 callsubr
          219 -597 rmoveto
          -102 callsubr
          endchar
        </CharString>
        <CharString name="uni021A">
          -11 193 hmoveto
          -24 callgsubr
          9 -747 rmoveto
          -87 callgsubr
        </CharString>
        <CharString name="uni021B">
          -181 106 hmoveto
          -37 callgsubr
          1 -593 rmoveto
          -87 callgsubr
        </CharString>
        <CharString name="uni0232">
          46 182 740 -64 callsubr
          40 -887 -77 callgsubr
        </CharString>
        <CharString name="uni0232.loclGUA">
          47 469 887 24 callgsubr
          -67 -52 -93 callsubr
          endchar
        </CharString>
        <CharString name="uni0233">
          -15 152 595 -64 callsubr
          122 -948 -96 callgsubr
          endchar
        </CharString>
        <CharString name="uni0233.loclGUA">
          -46 435 742 24 callgsubr
          -74 -85 -80 callsubr
        </CharString>
        <CharString name="uni0237">
          -308 -25 -199 -74 callsubr
        </CharString>
        <CharString name="uni0259">
          -47 256 518 rmoveto
          -72 -83 -8 -11 -41 hvcurveto
          -127 vlineto
          4 53 62 4 36 hhcurveto
          116 8 -5 -80 hvcurveto
          -295 -39 hlineto
          -196 2 -68 233 230 15 76 188 188 -13 74 -251 vhcurveto
          19 -399 rmoveto
          -51 -8 5 87 hvcurveto
          119 hlineto
          -86 -1 -7 -6 -52 hhcurveto
          endchar
        </CharString>
        <CharString name="uni0272">
          -15 -25 -199 rmoveto
          223 43 18 203 hvcurveto
          246 vlineto
          86 4 11 51 48 4 -3 -93 vhcurveto
          -269 -10 callsubr
          vlineto
          -25 callgsubr
          -12 callgsubr
          vhcurveto
          -40 callgsubr
          -530 hlineto
          -36 -4 -16 -73 vhcurveto
          endchar
        </CharString>
        <CharString name="uni02BC">
          -372 -6 callgsubr
          endchar
        </CharString>
        <CharString name="uni02C9">
          -225 47 596 -64 callsubr
          endchar
        </CharString>
        <CharString name="uni0302">
          -373 -54 callsubr
          endchar
        </CharString>
        <CharString name="uni0302.case">
          -373 741 -104 callsubr
          endchar
        </CharString>
        <CharString name="uni03020300">
          -136 768 -85 callsubr
          -102 -315 -104 callsubr
          endchar
        </CharString>
        <CharString name="uni03020300.case">
          -136 914 -85 callsubr
          -102 -315 -104 callsubr
          endchar
        </CharString>
        <CharString name="uni03020301">
          -189 768 -101 callsubr
          -184 -178 -104 callsubr
          endchar
        </CharString>
        <CharString name="uni03020301.case">
          -189 914 -101 callsubr
          -184 -178 -104 callsubr
          endchar
        </CharString>
        <CharString name="uni03020303">
          5 915 rmoveto
          -89 -103 callgsubr
          96 -47 callgsubr
          -378 -320 -104 callsubr
          endchar
        </CharString>
        <CharString name="uni03020303.case">
          5 1061 rmoveto
          -89 -103 callgsubr
          96 -47 callgsubr
          -378 -320 -104 callsubr
          endchar
        </CharString>
        <CharString name="uni03020309">
          -147 763 -105 callsubr
          -226 -171 -104 callsubr
          endchar
        </CharString>
        <CharString name="uni03020309.case">
          -147 909 -105 callsubr
          -226 -172 -104 callsubr
          endchar
        </CharString>
        <CharString name="uni0304">
          -332 596 -64 callsubr
          endchar
        </CharString>
        <CharString name="uni0304.case">
          -332 741 -64 callsubr
          endchar
        </CharString>
        <CharString name="uni0306">
          -20 743 -100 callsubr
          endchar
        </CharString>
        <CharString name="uni0306.case">
          -20 888 -100 callsubr
          endchar
        </CharString>
        <CharString name="uni03060300">
          -235 768 -85 callsubr
          350 -168 -100 callsubr
          endchar
        </CharString>
        <CharString name="uni03060300.case">
          -235 913 -85 callsubr
          350 -168 -100 callsubr
          endchar
        </CharString>
        <CharString name="uni03060301">
          -255 768 -101 callsubr
          235 -31 -100 callsubr
          endchar
        </CharString>
        <CharString name="uni03060301.case">
          -255 913 -101 callsubr
          235 -31 -100 callsubr
          endchar
        </CharString>
        <CharString name="uni03060303">
          25 915 rmoveto
          -89 -103 callgsubr
          96 -47 callgsubr
          -45 -173 -100 callsubr
          endchar
        </CharString>
        <CharString name="uni03060303.case">
          25 1060 rmoveto
          -89 -103 callgsubr
          96 -47 callgsubr
          -45 -173 -100 callsubr
          endchar
        </CharString>
        <CharString name="uni03060309">
          -232 751 -105 callsubr
          212 -12 -100 callsubr
          endchar
        </CharString>
        <CharString name="uni03060309.case">
          -232 896 -105 callsubr
          212 -12 -100 callsubr
          endchar
        </CharString>
        <CharString name="uni0307">
          -169 29 callgsubr
        </CharString>
        <CharString name="uni0307.case">
          -169 757 rmoveto
          149 118 -149 hlineto
          endchar
        </CharString>
        <CharString name="uni0308">
          -379 -64 callgsubr
          endchar
        </CharString>
        <CharString name="uni0308.case">
          -379 757 -92 callgsubr
          endchar
        </CharString>
        <CharString name="uni030A">
          -172 592 -91 callsubr
          endchar
        </CharString>
        <CharString name="uni030A.case">
          -172 707 -91 callsubr
          endchar
        </CharString>
        <CharString name="uni030B">
          -427 610 -70 callsubr
          109 116 rlineto
          4 -144 vlineto
          -74 -115 rlineto
          endchar
        </CharString>
        <CharString name="uni030B.case">
          -427 755 -70 callsubr
          109 116 rlineto
          4 -144 vlineto
          -74 -115 rlineto
          endchar
        </CharString>
        <CharString name="uni030C">
          -282 596 -99 callgsubr
          endchar
        </CharString>
        <CharString name="uni030C.case">
          -282 741 -99 callgsubr
          endchar
        </CharString>
        <CharString name="uni030F">
          -209 610 -96 callsubr
          endchar
        </CharString>
        <CharString name="uni030F.case">
          -209 755 -96 callsubr
          endchar
        </CharString>
        <CharString name="uni0311">
          -334 597 -88 callsubr
          endchar
        </CharString>
        <CharString name="uni0311.case">
          -334 742 -88 callsubr
          endchar
        </CharString>
        <CharString name="uni0312">
          -132 -5 callsubr
          endchar
        </CharString>
        <CharString name="uni031B">
          -334 510 rmoveto
          -38 -67 38 hlineto
          167 21 32 109 hvcurveto
          15 -120 -24 vlineto
          -49 -7 -16 -61 vhcurveto
          endchar
        </CharString>
        <CharString name="uni0326">
          -254 -222 rmoveto
          -87 callgsubr
        </CharString>
        <CharString name="uni0327">
          -222 4 callgsubr
        </CharString>
        <CharString name="uni0328">
          -192 vmoveto
          -24 callsubr
        </CharString>
        <CharString name="uni0335">
          -336 284 rmoveto
          338 128 -338 hlineto
          endchar
        </CharString>
        <CharString name="uni0336">
          -60 474 rmoveto
          127 -584 -127 vlineto
          endchar
        </CharString>
        <CharString name="uni0394">
          -19 callsubr
        </CharString>
        <CharString name="uni03A9">
          -62 callsubr
        </CharString>
        <CharString name="uni03BC">
          -32 callgsubr
        </CharString>
        <CharString name="uni1E0C">
          74 62 hmoveto
          -68 callsubr
          -70 -378 -92 callsubr
        </CharString>
        <CharString name="uni1E0D">
          -20 -71 callsubr
          88 152 -69 callgsubr
          -91 -367 -92 callsubr
        </CharString>
        <CharString name="uni1E24">
          100 438 hmoveto
          -28 callsubr
          -184 -483 -92 callsubr
        </CharString>
        <CharString name="uni1E25">
          -15 348 hmoveto
          -54 callgsubr
          -151 -492 -92 callsubr
        </CharString>
        <CharString name="uni1E44">
          106 280 -34 callsubr
          179 -874 rmoveto
          -81 callgsubr
          endchar
        </CharString>
        <CharString name="uni1E45">
          -15 220 -16 callgsubr
          128 -729 rmoveto
          -90 callgsubr
          endchar
        </CharString>
        <CharString name="uni1E5A">
          -38 callgsubr
          -28 -605 -92 callsubr
        </CharString>
        <CharString name="uni1E5A.ss01">
          -51 callsubr
          -27 -609 -92 callsubr
        </CharString>
        <CharString name="uni1E5B">
          -15 callgsubr
          -3 -733 -92 callsubr
        </CharString>
        <CharString name="uni1E62">
          -67 callsubr
          -113 -215 -92 callsubr
        </CharString>
        <CharString name="uni1E63">
          -62 callgsubr
          -110 -215 -92 callsubr
        </CharString>
        <CharString name="uni1E6C">
          -11 193 hmoveto
          -24 callgsubr
          6 -748 -92 callsubr
        </CharString>
        <CharString name="uni1E6D">
          -181 106 hmoveto
          -37 callgsubr
          -2 -594 -92 callsubr
        </CharString>
        <CharString name="uni1E92">
          17 41 hmoveto
          -73 callgsubr
          171 -372 -92 callsubr
        </CharString>
        <CharString name="uni1E93">
          -72 39 hmoveto
          -73 callsubr
          129 -354 -92 callsubr
        </CharString>
        <CharString name="uni1E9E">
          166 555 377 rmoveto
          137 154 rlineto
          130 vlineto
          17 -93 -122 18 -118 hhcurveto
          -264 -36 -75 -293 hvcurveto
          -328 205 328 vlineto
          194 4 20 127 13 27 0 -3 34 vhcurveto
          -121 -136 rlineto
          -131 92 vlineto
          64 16 -7 -59 -56 -14 -4 -77 -25 -44 5 7 -36 hvcurveto
          -144 vlineto
          -12 38 60 -10 43 hhcurveto
          206 55 69 123 136 -55 45 -116 12 hvcurveto
          endchar
        </CharString>
        <CharString name="uni1EA0">
          92 488 hmoveto
          -104 callgsubr
          -90 -738 -92 callsubr
        </CharString>
        <CharString name="uni1EA0.ss01">
          77 417 hmoveto
          -107 callsubr
          -174 -635 -92 callsubr
        </CharString>
        <CharString name="uni1EA1">
          -38 175 -8 -107 callgsubr
          -78 -343 -92 callsubr
        </CharString>
        <CharString name="uni1EA2">
          92 274 726 rmoveto
          96 hlineto
          -91 callgsubr
          -19 callgsubr
          hvcurveto
          15 callsubr
          214 -729 rmoveto
          -104 callgsubr
          endchar
        </CharString>
        <CharString name="uni1EA2.ss01">
          77 267 726 rmoveto
          96 hlineto
          -91 callgsubr
          -19 callgsubr
          hvcurveto
          15 callsubr
          150 -729 rmoveto
          -107 callsubr
          endchar
        </CharString>
        <CharString name="uni1EA3">
          -38 210 610 -105 callsubr
          -35 -621 -107 callgsubr
          endchar
        </CharString>
        <CharString name="uni1EA4">
          92 354 914 12 callgsubr
          -184 -178 -97 callgsubr
          318 -748 rmoveto
          -104 callgsubr
          endchar
        </CharString>
        <CharString name="uni1EA4.ss01">
          77 347 914 12 callgsubr
          -184 -178 -97 callgsubr
          254 -748 rmoveto
          -107 callsubr
          endchar
        </CharString>
        <CharString name="uni1EA5">
          -38 290 768 -16 callsubr
          142 10 callgsubr
          -142 rlineto
          -184 -178 -97 callgsubr
          69 -610 -107 callgsubr
          endchar
        </CharString>
        <CharString name="uni1EA6">
          92 399 914 rmoveto
          131 5 hlineto
          -88 141 rlineto
          -178 -5 hlineto
          -102 -314 -97 callgsubr
          326 -748 rmoveto
          -104 callgsubr
          endchar
        </CharString>
        <CharString name="uni1EA6.ss01">
          77 392 914 rmoveto
          131 5 hlineto
          -88 141 rlineto
          -178 -5 hlineto
          -102 -314 -97 callgsubr
          262 -748 rmoveto
          -107 callsubr
          endchar
        </CharString>
        <CharString name="uni1EA7">
          -38 335 768 rmoveto
          131 5 hlineto
          -88 -36 callgsubr
          -178 -5 hlineto
          -102 -315 -97 callgsubr
          77 -610 -107 callgsubr
          endchar
        </CharString>
        <CharString name="uni1EA8">
          92 397 -85 callgsubr
          317 -747 rmoveto
          -104 callgsubr
          endchar
        </CharString>
        <CharString name="uni1EA8.ss01">
          77 390 -85 callgsubr
          253 -747 rmoveto
          -107 callsubr
          endchar
        </CharString>
        <CharString name="uni1EA9">
          -38 333 762 -105 callsubr
          -226 -170 -97 callgsubr
          68 -610 -107 callgsubr
          endchar
        </CharString>
        <CharString name="uni1EAA">
          92 547 -83 callgsubr
          319 -748 rmoveto
          -104 callgsubr
          endchar
        </CharString>
        <CharString name="uni1EAA.ss01">
          77 540 -83 callgsubr
          255 -748 rmoveto
          -107 callsubr
          endchar
        </CharString>
        <CharString name="uni1EAB">
          -38 483 -57 callgsubr
          70 -610 -107 callgsubr
          endchar
        </CharString>
        <CharString name="uni1EAC">
          92 171 -84 callgsubr
          317 -747 rmoveto
          -104 callgsubr
          -90 -738 -92 callsubr
        </CharString>
        <CharString name="uni1EAC.ss01">
          77 164 -84 callgsubr
          253 -747 rmoveto
          -107 callsubr
          -174 -635 -92 callsubr
        </CharString>
        <CharString name="uni1EAD">
          -38 107 595 -104 callsubr
          68 -610 -107 callgsubr
          -78 -343 -92 callsubr
        </CharString>
        <CharString name="uni1EAE">
          92 268 -31 callgsubr
          -14 -887 rmoveto
          -104 callgsubr
          endchar
        </CharString>
        <CharString name="uni1EAE.ss01">
          77 261 -31 callgsubr
          -78 -887 rmoveto
          -107 callsubr
          endchar
        </CharString>
        <CharString name="uni1EAF">
          -38 190 768 -16 callsubr
          142 10 callgsubr
          -142 rlineto
          234 -31 -84 callsubr
          -249 -750 -107 callgsubr
          endchar
        </CharString>
        <CharString name="uni1EB0">
          92 295 -29 callsubr
          -21 -887 rmoveto
          -104 callgsubr
          endchar
        </CharString>
        <CharString name="uni1EB0.ss01">
          77 288 -29 callsubr
          -85 -887 rmoveto
          -107 callsubr
          endchar
        </CharString>
        <CharString name="uni1EB1">
          -38 244 768 -85 callsubr
          349 -168 -84 callsubr
          -283 -750 -107 callgsubr
          endchar
        </CharString>
        <CharString name="uni1EB2">
          92 290 895 -105 callsubr
          211 -11 -84 callsubr
          -13 -887 rmoveto
          -104 callgsubr
          endchar
        </CharString>
        <CharString name="uni1EB2.ss01">
          77 334 945 rmoveto
          -16 -5 -35 -10 -11 -9 -2 -34 rlinecurve
          -87 hlineto
          -88 21 -63 135 -61 callsubr
          vhcurveto
          -100 hlineto
          -31 -1 -24 -57 -42 -11 14 20 -2 vhcurveto
          81 hlineto
          -91 callgsubr
          -19 callgsubr
          hvcurveto
          6 -249 rmoveto
          -271 -10 -75 -247 hvcurveto
          -374 205 171 153 -171 205 374 vlineto
          247 -11 75 -271 vhcurveto
          77 -368 rmoveto
          -153 84 hlineto
          118 2 10 74 75 2 -10 -118 vhcurveto
          endchar
        </CharString>
        <CharString name="uni1EB3">
          -38 226 750 -105 callsubr
          211 -11 -84 callsubr
          -262 -750 -107 callgsubr
          endchar
        </CharString>
        <CharString name="uni1EB4">
          92 547 -57 callsubr
          -13 -887 rmoveto
          -104 callgsubr
          endchar
        </CharString>
        <CharString name="uni1EB4.ss01">
          77 540 -57 callsubr
          -77 -887 rmoveto
          -107 callsubr
          endchar
        </CharString>
        <CharString name="uni1EB5">
          -38 483 915 rmoveto
          -90 -42 callsubr
          -16 -25 -50 callsubr
          94 hvcurveto
          -46 -173 -84 callsubr
          -262 -750 -107 callgsubr
          endchar
        </CharString>
        <CharString name="uni1EB6">
          92 504 887 -100 callsubr
          -16 -887 rmoveto
          -104 callgsubr
          -90 -738 -92 callsubr
        </CharString>
        <CharString name="uni1EB6.ss01">
          77 497 887 -100 callsubr
          -80 -887 rmoveto
          -107 callsubr
          -174 -635 -92 callsubr
        </CharString>
        <CharString name="uni1EB7">
          -38 440 742 -100 callsubr
          -265 -750 -107 callgsubr
          -78 -343 -92 callsubr
        </CharString>
        <CharString name="uni1EB8">
          6 62 hmoveto
          -93 callgsubr
          146 -911 -92 callsubr
        </CharString>
        <CharString name="uni1EB9">
          -47 517 254 -106 callgsubr
          -101 -614 -92 callsubr
        </CharString>
        <CharString name="uni1EBA">
          6 232 726 rmoveto
          96 hlineto
          -91 callgsubr
          -19 callgsubr
          hvcurveto
          15 callsubr
          -170 -729 rmoveto
          -93 callgsubr
          endchar
        </CharString>
        <CharString name="uni1EBB">
          -47 302 -79 callsubr
          215 -462 -106 callgsubr
          endchar
        </CharString>
        <CharString name="uni1EBC">
          6 505 887 rmoveto
          -89 -103 callgsubr
          96 -47 callgsubr
          -443 -887 rmoveto
          -93 callgsubr
          endchar
        </CharString>
        <CharString name="uni1EBD">
          -47 193 620 -88 callgsubr
          324 -366 -106 callgsubr
          endchar
        </CharString>
        <CharString name="uni1EBE">
          6 312 914 12 callgsubr
          -184 -178 -97 callgsubr
          -66 -748 rmoveto
          -93 callgsubr
          endchar
        </CharString>
        <CharString name="uni1EBF">
          -47 374 915 rmoveto
          -67 callgsubr
          -5 132 vlineto
          134 -36 callgsubr
          5 vlineto
          -274 -244 -28 callgsubr
          61 -44 callgsubr
        </CharString>
        <CharString name="uni1EC0">
          6 357 914 rmoveto
          131 5 hlineto
          -88 141 rlineto
          -178 -5 hlineto
          -102 -314 -97 callgsubr
          -58 -748 rmoveto
          -93 callgsubr
          endchar
        </CharString>
        <CharString name="uni1EC1">
          -47 461 768 rmoveto
          5 vlineto
          -88 -36 callgsubr
          -178 -5 hlineto
          135 -55 callsubr
          -61 -97 -28 callgsubr
          304 -341 -106 callgsubr
          endchar
        </CharString>
        <CharString name="uni1EC2">
          6 355 -85 callgsubr
          -67 -747 rmoveto
          -93 callgsubr
          endchar
        </CharString>
        <CharString name="uni1EC3">
          -47 395 983 rmoveto
          -65 callsubr
          hvcurveto
          -83 vlineto
          3 25 53 3 26 hhcurveto
          45 14 -1 -26 -48 callsubr
          hvcurveto
          -74 callgsubr
          -3 96 vlineto
          14 5 5 26 8 vhcurveto
          12 4 rlineto
          46 13 29 10 63 vvcurveto
          101 -65 3 -82 vhcurveto
          -117 -312 -28 callgsubr
          60 -44 callgsubr
        </CharString>
        <CharString name="uni1EC4">
          6 505 -83 callgsubr
          -65 -748 rmoveto
          -93 callgsubr
          endchar
        </CharString>
        <CharString name="uni1EC5">
          -47 193 793 rmoveto
          -68 callgsubr
          hvcurveto
          -7 -25 callsubr
          39 hhcurveto
          97 -47 callgsubr
          -90 -65 callgsubr
          -24 -95 callsubr
          vhcurveto
          -2 -51 rmoveto
          -91 -140 rlineto
          -7 120 vlineto
          -53 callgsubr
          118 -89 callsubr
          157 -488 -106 callgsubr
          endchar
        </CharString>
        <CharString name="uni1EC6">
          6 129 -84 callgsubr
          -67 -747 rmoveto
          -93 callgsubr
          146 -911 -92 callsubr
        </CharString>
        <CharString name="uni1EC7">
          -47 278 671 rmoveto
          -103 callsubr
          -7 120 vlineto
          295 -341 -106 callgsubr
          -101 -614 -92 callsubr
        </CharString>
        <CharString name="uni1EC8">
          -277 89 726 rmoveto
          96 hlineto
          -91 callgsubr
          -19 callgsubr
          hvcurveto
          15 callsubr
          -29 -729 -52 callgsubr
        </CharString>
        <CharString name="uni1EC9">
          -308 74 610 -105 callsubr
          -22 -613 rmoveto
          -61 callgsubr
        </CharString>
        <CharString name="uni1ECA">
          -277 60 hmoveto
          -47 callsubr
          5 -911 -92 callsubr
        </CharString>
        <CharString name="uni1ECB">
          22 callsubr
          -743 vmoveto
          192 510 -192 hlineto
          12 -733 -92 callsubr
        </CharString>
        <CharString name="uni1ECC">
          98 351 -8 -106 callsubr
          -98 -370 -92 callsubr
        </CharString>
        <CharString name="uni1ECD">
          -33 285 -8 -105 callgsubr
          -97 -354 -92 callsubr
        </CharString>
        <CharString name="uni1ECE">
          98 277 726 rmoveto
          96 hlineto
          -91 callgsubr
          -19 callgsubr
          hvcurveto
          15 callsubr
          74 -737 -106 callsubr
          endchar
        </CharString>
        <CharString name="uni1ECF">
          -33 212 610 -105 callsubr
          73 -621 -105 callgsubr
          endchar
        </CharString>
        <CharString name="uni1ED0">
          98 357 914 12 callgsubr
          -184 -178 -97 callgsubr
          178 -756 -106 callsubr
          endchar
        </CharString>
        <CharString name="uni1ED1">
          -33 292 768 -16 callsubr
          142 10 callgsubr
          -142 rlineto
          -184 -178 -97 callgsubr
          177 -610 -105 callgsubr
          endchar
        </CharString>
        <CharString name="uni1ED2">
          98 402 914 rmoveto
          131 5 hlineto
          -88 141 rlineto
          -178 -5 hlineto
          -102 -314 -97 callgsubr
          186 -756 -106 callsubr
          endchar
        </CharString>
        <CharString name="uni1ED3">
          -33 337 768 rmoveto
          131 5 hlineto
          -88 -36 callgsubr
          -178 -5 hlineto
          -102 -315 -97 callgsubr
          185 -610 -105 callgsubr
          endchar
        </CharString>
        <CharString name="uni1ED4">
          98 400 -85 callgsubr
          177 -755 -106 callsubr
          endchar
        </CharString>
        <CharString name="uni1ED5">
          -33 335 762 -105 callsubr
          -226 -170 -97 callgsubr
          176 -610 -105 callgsubr
          endchar
        </CharString>
        <CharString name="uni1ED6">
          98 550 -83 callgsubr
          179 -756 -106 callsubr
          endchar
        </CharString>
        <CharString name="uni1ED7">
          -33 485 -57 callgsubr
          178 -610 -105 callgsubr
          endchar
        </CharString>
        <CharString name="uni1ED8">
          98 174 -84 callgsubr
          177 -755 -106 callsubr
          -98 -370 -92 callsubr
        </CharString>
        <CharString name="uni1ED9">
          -33 109 595 -104 callsubr
          176 -610 -105 callgsubr
          -97 -354 -92 callsubr
        </CharString>
        <CharString name="uni1EDA">
          98 544 882 -69 callsubr
          189 36 -90 callsubr
          endchar
        </CharString>
        <CharString name="uni1EDB">
          -33 485 737 -69 callsubr
          128 3 -89 callgsubr
          endchar
        </CharString>
        <CharString name="uni1EDC">
          98 427 8 callsubr
          303 36 -90 callsubr
          endchar
        </CharString>
        <CharString name="uni1EDD">
          -33 357 595 -52 callsubr
          253 3 -89 callgsubr
          endchar
        </CharString>
        <CharString name="uni1EDE">
          98 374 831 rmoveto
          -19 callgsubr
          vhcurveto
          15 callsubr
          -3 96 vlineto
          -91 callgsubr
          hvcurveto
          224 -55 -90 callsubr
          endchar
        </CharString>
        <CharString name="uni1EDF">
          -33 309 -79 callsubr
          169 -118 -89 callgsubr
          endchar
        </CharString>
        <CharString name="uni1EE0">
          98 265 765 -88 callgsubr
          333 11 -90 callsubr
          endchar
        </CharString>
        <CharString name="uni1EE1">
          -33 200 620 -88 callgsubr
          278 -22 -89 callgsubr
          endchar
        </CharString>
        <CharString name="uni1EE2">
          98 598 776 -90 callsubr
          -98 -370 -92 callsubr
        </CharString>
        <CharString name="uni1EE3">
          -33 478 598 -89 callgsubr
          -97 -354 -92 callsubr
        </CharString>
        <CharString name="uni1EE4">
          77 417 688 -101 callgsubr
          -379 -911 -92 callsubr
        </CharString>
        <CharString name="uni1EE5">
          -15 356 hmoveto
          -102 callsubr
          -171 -282 -92 callsubr
        </CharString>
        <CharString name="uni1EE6">
          77 267 726 rmoveto
          96 hlineto
          -91 callgsubr
          -19 callgsubr
          hvcurveto
          15 callsubr
          150 -41 -101 callgsubr
          endchar
        </CharString>
        <CharString name="uni1EE7">
          -15 221 610 -105 callsubr
          135 -613 rmoveto
          -102 callsubr
          endchar
        </CharString>
        <CharString name="uni1EE8">
          77 534 882 -69 callsubr
          189 36 -82 callsubr
          endchar
        </CharString>
        <CharString name="uni1EE9">
          -15 494 737 -69 callsubr
          137 3 -83 callsubr
          endchar
        </CharString>
        <CharString name="uni1EEA">
          77 417 8 callsubr
          303 36 -82 callsubr
          endchar
        </CharString>
        <CharString name="uni1EEB">
          -15 366 595 -52 callsubr
          262 3 -83 callsubr
          endchar
        </CharString>
        <CharString name="uni1EEC">
          77 364 831 rmoveto
          -19 callgsubr
          vhcurveto
          15 callsubr
          -3 96 vlineto
          -91 callgsubr
          hvcurveto
          224 -55 -82 callsubr
          endchar
        </CharString>
        <CharString name="uni1EED">
          -15 318 -79 callsubr
          178 -118 -83 callsubr
          endchar
        </CharString>
        <CharString name="uni1EEE">
          77 255 765 -88 callgsubr
          333 11 -82 callsubr
          endchar
        </CharString>
        <CharString name="uni1EEF">
          -15 209 620 -88 callgsubr
          287 -22 -83 callsubr
          endchar
        </CharString>
        <CharString name="uni1EF0">
          77 588 776 -82 callsubr
          -464 -999 -92 callsubr
        </CharString>
        <CharString name="uni1EF1">
          -15 496 598 -83 callsubr
          -435 -821 -92 callsubr
        </CharString>
        <CharString name="uni1EF4">
          46 222 hmoveto
          -82 callgsubr
          5 -451 -92 callsubr
        </CharString>
        <CharString name="uni1EF4.loclGUA">
          47 402 688 -93 callsubr
          -380 -911 -92 callsubr
        </CharString>
        <CharString name="uni1EF5">
          -15 274 -206 -96 callgsubr
          -98 -223 -92 callsubr
        </CharString>
        <CharString name="uni1EF5.loclGUA">
          -46 356 -189 rmoveto
          7 callgsubr
          -188 hlineto
          -74 -345 rlineto
          -11 hlineto
          -77 344 rlineto
          -190 hlineto
          141 -509 rlineto
          68 hlineto
          -51 -189 rlineto
          17 -223 -92 callsubr
        </CharString>
        <CharString name="uni1EF6">
          46 251 726 rmoveto
          96 hlineto
          -91 callgsubr
          -19 callgsubr
          hvcurveto
          15 callsubr
          -29 -729 -77 callgsubr
        </CharString>
        <CharString name="uni1EF6.loclGUA">
          47 348 831 rmoveto
          -19 callgsubr
          vhcurveto
          15 callsubr
          -3 96 vlineto
          -91 callgsubr
          hvcurveto
          54 -143 -93 callsubr
          endchar
        </CharString>
        <CharString name="uni1EF7">
          -15 221 610 -105 callsubr
          53 -819 -96 callgsubr
          endchar
        </CharString>
        <CharString name="uni1EF7.loclGUA">
          -46 314 -79 callsubr
          47 -206 -80 callsubr
        </CharString>
        <CharString name="uni1EF8">
          46 524 887 rmoveto
          -89 -103 callgsubr
          96 -47 callgsubr
          -302 -887 -77 callgsubr
        </CharString>
        <CharString name="uni1EF8.loclGUA">
          47 239 765 -88 callgsubr
          163 -77 -93 callsubr
          endchar
        </CharString>
        <CharString name="uni1EF9">
          -15 494 742 rmoveto
          -89 -103 callgsubr
          96 -47 callgsubr
          -220 -948 -96 callgsubr
          endchar
        </CharString>
        <CharString name="uni1EF9.loclGUA">
          -46 205 620 -88 callgsubr
          156 -110 -80 callsubr
        </CharString>
        <CharString name="uni2002">
          -304 endchar
        </CharString>
        <CharString name="uni20B2">
          16 313 393 rmoveto
          -104 56 -16 vlineto
          -49 -1 -2 -55 -54 -8 6 116 125 5 2 116 33 65 -5 -8 71 vhcurveto
          -33 callsubr
        </CharString>
        <CharString name="uni20B2.bold">
          16 387 393 rmoveto
          78 vlineto
          36 -1 57 -5 61 -7 rrcurveto
          -33 callsubr
        </CharString>
        <CharString name="uni2113">
          -51 258 187 rmoveto
          174 49 76 126 137 vvcurveto
          119 -60 77 -142 -169 -92 -89 -281 vhcurveto
          -2 0 -2 -2 vvcurveto
          -46 -153 hlineto
          -1 19 21 0 20 hhcurveto
          -127 29 74 -45 139 hhcurveto
          60 44 8 19 61 hvcurveto
          163 vlineto
          -27 -70 -43 -9 -33 hhcurveto
          -33 -19 11 29 -10 hvcurveto
          50 356 rmoveto
          20 13 -16 -28 -66 -37 -49 -60 -30 hvcurveto
          123 1 11 66 52 hhcurveto
          endchar
        </CharString>
        <CharString name="uni2116">
          463 869 -8 callgsubr
          -410 -397 rmoveto
          -81 callgsubr
          607 118 rmoveto
          11 callsubr
          -134 -287 rmoveto
          269 133 -269 hlineto
          endchar
        </CharString>
        <CharString name="uni2126">
          -62 callsubr
        </CharString>
        <CharString name="uni2153">
          215 -46 callsubr
          -15 -562 rmoveto
          114 hlineto
          448 -27 callsubr
          -114 hlineto
          -41 -591 rmoveto
          9 callgsubr
          131 28 42 68 50 -21 26 25 callgsubr
          26 47 vvcurveto
          67 -38 37 -119 -38 8 callgsubr
          -6 -4 -24 hvcurveto
          -67 -82 67 hlineto
          26 7 -3 -27 -27 -9 -2 -36 -23 -42 3 5 -53 hvcurveto
          endchar
        </CharString>
        <CharString name="uni2154">
          282 329 413 rmoveto
          -170 4 hlineto
          -44 callsubr
          vlineto
          279 374 rmoveto
          -449 -688 rlineto
          114 hlineto
          449 -27 callsubr
          66 -499 rmoveto
          4 vlineto
          35 13 19 26 47 vvcurveto
          67 -37 37 -119 -39 8 callgsubr
          -5 -4 -25 hvcurveto
          -67 -82 67 hlineto
          27 6 -3 -27 -27 -9 -2 -36 -22 -42 3 5 -54 hvcurveto
          9 callgsubr
          132 28 42 68 50 -22 26 -35 11 hvcurveto
          endchar
        </CharString>
        <CharString name="uni2206">
          -19 callsubr
        </CharString>
        <CharString name="uniA78B">
          21 callsubr
          169 -165 vlineto
          endchar
        </CharString>
        <CharString name="uniA78C">
          21 callsubr
          224 -165 vlineto
          endchar
        </CharString>
        <CharString name="uniF8FF">
          236 72 hmoveto
          697 698 -697 hlineto
          546 -316 rmoveto
          -66 vlineto
          -100 -72 -81 -124 -125 -73 81 100 vhcurveto
          66 vlineto
          100 73 81 125 124 72 -81 -100 vhcurveto
          -135 -92 rmoveto
          118 vlineto
          33 -27 27 -34 -35 -27 -27 -33 vhcurveto
          -118 vlineto
          -33 27 -27 35 34 27 27 33 vhcurveto
          endchar
        </CharString>
        <CharString name="uogonek">
          -15 537 hmoveto
          510 -189 -268 vlineto
          -98 callsubr
          4 -59 rlineto
          29 hlineto
          -36 -32 -27 -38 -41 vvcurveto
          -44 30 -41 107 25 31 2 2 22 vhcurveto
          32 callsubr
          32 38 29 26 13 hvcurveto
          endchar
        </CharString>
        <CharString name="uring">
          -15 293 591 -91 callsubr
          63 -663 rmoveto
          -102 callsubr
          endchar
        </CharString>
        <CharString name="utilde">
          -15 494 742 rmoveto
          -89 -103 callgsubr
          96 -47 callgsubr
          -138 -742 rmoveto
          -102 callsubr
          endchar
        </CharString>
        <CharString name="v">
          -46 150 hmoveto
          257 hlineto
          142 510 rlineto
          -188 hlineto
          -74 -345 rlineto
          -11 hlineto
          -77 345 rlineto
          -190 hlineto
          endchar
        </CharString>
        <CharString name="w">
          248 489 hmoveto
          233 hlineto
          116 510 rlineto
          -181 -76 callsubr
        </CharString>
        <CharString name="wacute">
          247 358 595 -101 callsubr
          131 -600 rmoveto
          233 hlineto
          115 510 rlineto
          -180 -76 callsubr
        </CharString>
        <CharString name="wcircumflex">
          247 249 595 -104 callsubr
          240 -602 rmoveto
          233 hlineto
          115 510 rlineto
          -180 -76 callsubr
        </CharString>
        <CharString name="wdieresis">
          247 245 611 -92 callgsubr
          31 -729 rmoveto
          233 hlineto
          115 510 rlineto
          -180 -76 callsubr
        </CharString>
        <CharString name="wgrave">
          247 365 595 -85 callsubr
          259 -737 rmoveto
          233 hlineto
          115 510 rlineto
          -180 -76 callsubr
        </CharString>
        <CharString name="x">
          -27 366 hmoveto
          205 hlineto
          -164 260 157 250 rlineto
          -194 hlineto
          -71 -131 rlineto
          -8 hlineto
          -74 131 -10 callgsubr
          156 -250 -162 -260 rlineto
          194 hlineto
          77 -53 callsubr
          8 hlineto
          endchar
        </CharString>
        <CharString name="y">
          -15 274 -206 -96 callgsubr
          endchar
        </CharString>
        <CharString name="y.loclGUA">
          -46 361 510 rmoveto
          -74 -345 rlineto
          -11 hlineto
          -77 345 rlineto
          -190 hlineto
          141 -510 rlineto
          68 hlineto
          -51 -189 rlineto
          189 hlineto
          7 callgsubr
          endchar
        </CharString>
        <CharString name="yacute">
          -15 224 596 -101 callsubr
          50 -807 -96 callgsubr
          endchar
        </CharString>
        <CharString name="yacute.loclGUA">
          -46 490 737 -69 callsubr
          6 -85 -80 callsubr
        </CharString>
        <CharString name="ycircumflex">
          -15 118 595 -104 callsubr
          156 -808 -96 callgsubr
          endchar
        </CharString>
        <CharString name="ycircumflex.loclGUA">
          -46 290 671 rmoveto
          -103 callsubr
          -7 120 vlineto
          127 -85 -80 callsubr
        </CharString>
        <CharString name="ydieresis">
          -15 114 -64 callgsubr
          -53 -936 -96 callgsubr
          endchar
        </CharString>
        <CharString name="ydieresis.loclGUA">
          -46 259 729 -27 callgsubr
          213 118 -27 callgsubr
          -111 -101 -80 callsubr
        </CharString>
        <CharString name="yen">
          28 213 hmoveto
          36 callsubr
          31 59 rlineto
          121 93 -81 hlineto
          109 242 rlineto
          -198 hlineto
          -97 -265 rlineto
          -7 hlineto
          -96 265 rlineto
          -203 hlineto
          108 -242 rlineto
          -81 -93 121 hlineto
          32 -59 rlineto
          -153 -93 171 hlineto
          endchar
        </CharString>
        <CharString name="yen.bold">
          28 616 688 rmoveto
          -198 hlineto
          -89 -242 rlineto
          -23 hlineto
          -88 242 rlineto
          -203 hlineto
          111 -242 rlineto
          -84 -93 126 hlineto
          27 -59 rlineto
          -153 -93 171 -201 36 callsubr
          27 59 rlineto
          125 93 -83 hlineto
          endchar
        </CharString>
        <CharString name="ygrave">
          -15 234 595 -85 callsubr
          175 -943 -96 callgsubr
          endchar
        </CharString>
        <CharString name="ygrave.loclGUA">
          -46 362 595 -52 callsubr
          131 -85 -80 callsubr
        </CharString>
        <CharString name="z">
          -72 39 hmoveto
          -73 callsubr
          endchar
        </CharString>
        <CharString name="zacute">
          -72 198 595 -101 callsubr
          -159 -600 rmoveto
          -73 callsubr
          endchar
        </CharString>
        <CharString name="zacute.loclPLK">
          -72 198 -59 callgsubr
          -159 -601 rmoveto
          -73 callsubr
          endchar
        </CharString>
        <CharString name="zcaron">
          -72 187 596 -99 callgsubr
          -57 -735 rmoveto
          -73 callsubr
          endchar
        </CharString>
        <CharString name="zdotaccent">
          -72 191 -16 callgsubr
          -152 -729 rmoveto
          -73 callsubr
          endchar
        </CharString>
        <CharString name="zero">
          56 330 -8 rmoveto
          259 23 46 306 306 -23 46 -259 -259 -23 -46 -306 -306 23 -46 259 hvcurveto
          154 vmoveto
          -74 -2 4 194 194 2 4 74 74 1 -4 -194 -194 -1 -4 -74 hvcurveto
          endchar
        </CharString>
        <CharString name="zero.dnom">
          -228 188 -4 -30 callgsubr
        </CharString>
        <CharString name="zero.numr">
          -228 188 304 -30 callgsubr
        </CharString>
        <CharString name="zero.tnum">
          -11 callgsubr
          153 vmoveto
          -73 -1 5 194 195 1 3 73 72 1 -4 -194 -195 -1 -4 -72 hvcurveto
          endchar
        </CharString>
        <CharString name="zero.zero">
          -11 callgsubr
          -80 414 rmoveto
          132 1 9 4 70 hhcurveto
          69 9 -4 -132 1 hvcurveto
          -79 -261 rmoveto
          -70 -9 4 132 -1 hvcurveto
          159 hlineto
          -132 -1 -9 -4 -69 hhcurveto
          endchar
        </CharString>
      <CharString index="0">
        rmoveto
        52 50 5 61 41 hvcurveto
        9 hlineto
        4 -58 rlineto
        183 304 hlineto
        143 -16 71 -229 -83 -72 -8 -9 -53 vhcurveto
        -128 vlineto
        3 41 61 3 47 hhcurveto
        102 13 -1 -62 hvcurveto
        -18 vlineto
        2 -42 -64 2 -23 hhcurveto
        -132 -31 -40 -115 -111 49 -44 93 hvcurveto
        89 128 rmoveto
        -51 -4 10 35 46 6 5 45 hvcurveto
        65 -23 hlineto
        -23 -2 -16 -6 -11 vhcurveto
        -17 -8 -16 -6 -29 hhcurveto
        return
      </CharString>
      <CharString index="1">
        rmoveto
        196 -2 68 -233 11 callgsubr
        vhcurveto
        -99 callsubr
        return
      </CharString>
      <CharString index="2">
        rmoveto
        237 13 57 206 206 -13 57 -237 30 callsubr
        17 callsubr
        hvcurveto
        139 vmoveto
        -60 0 8 116 116 0 8 60 60 1 -8 -116 -116 -1 -8 -60 hvcurveto
        return
      </CharString>
      <CharString index="3">
        207 hlineto
        -205 -27 callsubr
        -284 hlineto
        -205 -688 rlineto
        202 hlineto
        31 116 rlineto
        222 hlineto
        -108 399 rmoveto
        68 -248 rlineto
        -142 hlineto
        66 248 rlineto
        return
      </CharString>
      <CharString index="4">
        -65 callgsubr
        -98 callgsubr
        -68 callgsubr
        vhcurveto
        -63 callgsubr
        return
      </CharString>
      <CharString index="5">
        rmoveto
        253 14 88 174 hvcurveto
        454 -182 vlineto
        -4 -59 rlineto
        -10 hlineto
        56 -30 -54 11 -55 hhcurveto
        -113 -47 -53 -202 -202 48 -55 114 54 48 9 51 33 hvcurveto
        9 -42 hlineto
        -85 -4 -6 -124 -44 -49 0 1 -42 vhcurveto
        -126 vlineto
        -8 42 77 -6 66 hhcurveto
        20 363 rmoveto
        -57 -3 5 99 100 3 5 57 31 14 -4 -26 6 hvcurveto
        6 -16 1 -25 -34 vvcurveto
        -35 -1 -24 -6 -18 vhcurveto
        -23 -6 -14 -4 -31 hhcurveto
        endchar
      </CharString>
      <CharString index="6">
        rmoveto
        -412 vlineto
        -118 -2 -10 -75 -74 -2 10 118 vhcurveto
        412 -205 -374 6 callsubr
        271 11 75 247 vhcurveto
        374 vlineto
        return
      </CharString>
      <CharString index="7">
        rmoveto
        143 110 21 208 67 -10 43 -15 26 hvcurveto
        -29 51 -44 11 -51 7 -125 15 rcurveline
        -54 7 -3 5 40 vvcurveto
        19 2 12 15 8 vhcurveto
        7 13 25 2 44 hhcurveto
        65 70 -5 -7 62 hvcurveto
        146 vlineto
        13 -67 -82 8 -84 hhcurveto
        -151 -118 -27 -184 -120 22 -79 111 -13 hvcurveto
        122 -15 rlineto
        69 -9 7 -4 -42 vvcurveto
        -21 0 -14 -12 -9 vhcurveto
        -9 -12 -28 -3 -59 hhcurveto
        -49 -78 5 6 -73 hvcurveto
        -148 vlineto
        -11 71 99 -7 94 hhcurveto
        return
      </CharString>
      <CharString index="8">
        rmoveto
        170 hlineto
        92 139 rlineto
        8 -119 vlineto
        -56 -76 -58 76 rlineto
        -120 -8 hlineto
        return
      </CharString>
      <CharString index="9">
        -25 -95 callsubr
        return
      </CharString>
      <CharString index="10">
        rmoveto
        120 hlineto
        56 76 -18 callsubr
        return
      </CharString>
      <CharString index="11">
        rmoveto
        249 14 88 174 hvcurveto
        454 -189 -255 -45 callsubr
        256 -189 -306 vlineto
        -127 17 -72 133 52 53 14 52 32 vhcurveto
        9 -47 hlineto
        -86 -3 -5 -118 vhcurveto
        -135 -125 hlineto
        -8 42 76 -6 64 hhcurveto
        return
      </CharString>
      <CharString index="12">
        rmoveto
        134 31 39 67 61 -25 20 -45 10 hvcurveto
        3 vlineto
        44 9 22 25 55 vvcurveto
        66 -37 34 -124 -124 -38 -34 -66 -55 22 -25 45 -9 vhcurveto
        -3 vlineto
        -45 -10 -25 -20 -61 vvcurveto
        -67 31 -39 134 vhcurveto
        232 vmoveto
        -40 -5 4 33 33 5 5 40 40 5 -5 -33 -33 -6 -4 -39 hvcurveto
        -150 vmoveto
        -39 -9 4 34 36 8 4 40 40 8 -4 -36 -34 -8 -4 -40 hvcurveto
        endchar
      </CharString>
      <CharString index="13">
        rmoveto
        -121 vlineto
        -1 -18 -27 -1 -10 hhcurveto
        -106 -12 30 171 193 11 4 167 47 93 -9 -5 36 hvcurveto
        145 vlineto
        9 -44 -108 15 -93 hhcurveto
        -258 -55 -78 -274 -284 55 -68 258 72 104 9 13 72 hvcurveto
        395 -264 -143 vlineto
        return
      </CharString>
      <CharString index="14">
        497 155 -292 116 245 153 -245 109 292 155 -497 hlineto
        return
      </CharString>
      <CharString index="15">
        rmoveto
        149 118 -149 hlineto
        213 -118 rmoveto
        149 118 -149 hlineto
        return
      </CharString>
      <CharString index="16">
        14 5 5 26 8 vhcurveto
        12 3 rlineto
        46 13 29 11 62 vvcurveto
        100 -65 4 -66 callgsubr
        2 26 hhcurveto
        45 14 0 -26 return
      </CharString>
      <CharString index="17">
        16 callgsubr
        -17 72 -133 -12 callgsubr
        vhcurveto
        -40 callgsubr
        -510 189 268 hlineto
        86 4 11 51 48 4 -3 -93 vhcurveto
        return
      </CharString>
      <CharString index="18">
        rmoveto
        -24 vlineto
        -49 -7 -16 -61 vhcurveto
        -6 hlineto
        6 -31 -40 2 -48 hhcurveto
        35 callgsubr
        -205 17 callsubr
        236 13 57 206 91 -3 62 -23 40 hvcurveto
        78 14 12 39 82 vvcurveto
        15 vlineto
        -313 -467 rmoveto
        -60 0 8 116 116 0 8 60 60 1 -8 -116 -116 -1 -8 -60 hvcurveto
        return
      </CharString>
      <CharString index="19">
        rmoveto
        -68 callgsubr
        hvcurveto
        -63 callgsubr
        96 -47 callgsubr
        -76 callgsubr
        vhcurveto
        return
      </CharString>
      <CharString index="20">
        -67 vlineto
        168 20 33 121 hvcurveto
        77 -184 -119 65 -8 vlineto
        -29 -9 -8 -60 vhcurveto
        endchar
      </CharString>
      <CharString index="21">
        rmoveto
        -5 103 -37 23 -69 18 rrcurveto
        4 vlineto
        76 21 42 37 123 vvcurveto
        123 -52 65 -134 vhcurveto
        -382 -688 206 236 74 hlineto
        67 4 -20 -64 5 hvcurveto
        12 -152 rlineto
        204 hlineto
        -295 386 rmoveto
        -71 148 71 hlineto
        75 8 -8 -66 -68 -9 -6 -74 hvcurveto
        endchar
      </CharString>
      <CharString index="22">
        908 -105 callsubr
        -226 -171 -97 callgsubr
        return
      </CharString>
      <CharString index="23">
        740 -104 callsubr
        return
      </CharString>
      <CharString index="24">
        1060 16 callsubr
        -17 -24 -81 callsubr
        8 -40 hhcurveto
        -97 -1 -55 -66 callsubr
        -378 -319 -97 callgsubr
        return
      </CharString>
      <CharString index="25">
        206 228 hlineto
        222 460 -10 callgsubr
        -114 -269 rlineto
        -7 hlineto
        -114 269 rlineto
        -211 hlineto
        223 -460 rlineto
        return
      </CharString>
      <CharString index="26">
        191 688 -197 -308 -6 hlineto
        -176 308 rlineto
        -211 -688 197 355 5 hlineto
        return
      </CharString>
      <CharString index="27">
        -100 260 rlineto
        74 36 11 79 86 vvcurveto
        146 -26 81 -192 vhcurveto
        -347 -688 205 235 83 hlineto
        79 -235 rlineto
        -97 382 rmoveto
        -65 153 66 hlineto
        84 4 -10 -67 -69 -9 -7 -80 hvcurveto
        endchar
      </CharString>
      <CharString index="28">
        -82 callgsubr
        endchar
      </CharString>
      <CharString index="29">
        -35 callgsubr
        39 hhcurveto
        97 1 57 return
      </CharString>
      <CharString index="30">
        rmoveto
        -79 callgsubr
      </CharString>
      <CharString index="31">
        -89 -65 callgsubr
        -98 callgsubr
        return
      </CharString>
      <CharString index="32">
        hlineto
        -72 -455 rlineto
        -9 hlineto
        -95 455 rlineto
        -211 hlineto
        -93 -455 rlineto
        -9 hlineto
        -79 455 -10 callgsubr
        142 -688 rlineto
        260 hlineto
        83 377 rlineto
        8 hlineto
        endchar
      </CharString>
      <CharString index="33">
        -16 -5 rlineto
        -41 -10 -8 -12 -49 vvcurveto
        return
      </CharString>
      <CharString index="34">
        539 155 -290 hlineto
        290 388 rlineto
        145 -528 -155 275 vlineto
        -286 -384 rlineto
        return
      </CharString>
      <CharString index="35">
        rmoveto
        196 -3 68 -217 -73 -54 -13 -27 -39 vhcurveto
        27 -38 -55 13 -76 hhcurveto
        -81 -66 -9 -8 -46 hvcurveto
        -128 vlineto
        4 47 60 2 42 hhcurveto
        102 13 -1 -62 hvcurveto
        -18 vlineto
        1 -28 -76 3 -25 hhcurveto
        -132 -31 -40 -115 -111 36 -44 148 66 63 3 40 53 hvcurveto
        -30 35 60 -13 99 hhcurveto
        72 82 8 11 42 hvcurveto
        127 vlineto
        -4 -53 -63 -4 -35 hhcurveto
        -116 -8 5 81 hvcurveto
        295 hlineto
        -235 175 rmoveto
        50 9 -4 -88 hvcurveto
        -119 hlineto
        86 7 6 53 vhcurveto
        -249 -198 rmoveto
        -16 -1 -13 -3 -12 vhcurveto
        -22 -6 -15 -10 -36 20 callgsubr
      </CharString>
      <CharString index="36">
        192 371 117 139 -117 45 hlineto
        57 7 4 110 vhcurveto
        126 vlineto
        -261 -48 -5 -205 hvcurveto
        -22 -88 -139 88 vlineto
        return
      </CharString>
</ttFont>
